<?xml version="1.0" encoding="UTF-8" standalone="no"?>
<svg
   xmlns:dc="http://purl.org/dc/elements/1.1/"
   xmlns:cc="http://creativecommons.org/ns#"
   xmlns:rdf="http://www.w3.org/1999/02/22-rdf-syntax-ns#"
   xmlns:svg="http://www.w3.org/2000/svg"
   xmlns="http://www.w3.org/2000/svg"
   xmlns:sodipodi="http://sodipodi.sourceforge.net/DTD/sodipodi-0.dtd"
   xmlns:inkscape="http://www.inkscape.org/namespaces/inkscape"
   viewBox="0 0 1000 1000"
   version="1.1"
   id="svg22"
   sodipodi:docname="Canada_Red.svg"
   inkscape:version="0.92.4 (5da689c313, 2019-01-14)">
  <metadata
     id="metadata28">
    <rdf:RDF>
      <cc:Work
         rdf:about="">
        <dc:format>image/svg+xml</dc:format>
        <dc:type
           rdf:resource="http://purl.org/dc/dcmitype/StillImage" />
        <dc:title></dc:title>
      </cc:Work>
    </rdf:RDF>
  </metadata>
  <defs
     id="defs26" />
  <sodipodi:namedview
     pagecolor="#ffffff"
     bordercolor="#666666"
     borderopacity="1"
     objecttolerance="10"
     gridtolerance="10"
     guidetolerance="10"
     inkscape:pageopacity="0"
     inkscape:pageshadow="2"
     inkscape:window-width="1918"
     inkscape:window-height="1008"
     id="namedview24"
     showgrid="false"
     inkscape:pagecheckerboard="false"
     inkscape:zoom="0.944"
     inkscape:cx="526.17633"
     inkscape:cy="492.86027"
     inkscape:window-x="953"
     inkscape:window-y="1080"
     inkscape:window-maximized="0"
     inkscape:current-layer="g20" />
  <g
     fill-rule="evenodd"
     clip-rule="evenodd"
     id="g20">
    <path
       d="M500.002 819.412c-32.437 0-43.994-15.203-43.994-29.431v-7.284c0-4.779 1.311-9.413 3.792-13.403l5.718-9.193-281.452 54.673 51.081-111.804s.23-1.774.264-2.006l.426-2.859L0 529.632l90.4-33.922-50.34-162.509 144.34 33.317c3.982.893 7.25 1.562 9.744 1.994l3.651.634 36.123-82.628 107.743 119.445-59.584-256.243 122.09 66.19 95.84-191.328 95.83 191.326L717.92 149.72l-38.881 167.233 5.152 4.613 5.841 20.69-3.114 5.775c-5.023 9.311-7.201 15.369-8.036 22.354l-1.765 14.763 88.964-98.629 36.122 82.621 3.649-.633c2.532-.439 5.828-1.114 9.8-2.006l144.285-33.298-50.334 162.498 90.397 33.93a2461314.73 2461314.73 0 01-233.826 167.023l-3.172 2.263 52.934 115.856L534.488 760.1l5.715 9.193c2.481 3.99 3.792 8.624 3.792 13.403v7.284c0 14.229-11.557 29.432-43.993 29.432zM60.247 858.006c-15.461 8.701-23.302 20.423-23.302 34.841 0 14.839 8.027 26.675 23.859 35.175 14.482 7.784 34.046 11.732 58.142 11.732 17.799 0 34.952-2.535 50.991-7.54-.01.002 1.786-.496 2.907-.805.452.258 3.459 1.962 3.459 1.962l2.961-.587 13.387-3.826-32.896-35.536-12.449 5.203 1.009 3.208c-4.349 1.537-8.543 2.713-12.517 3.371-4.647.776-10.446 1.166-17.244 1.166-11.366 0-20.275-1.602-26.475-4.762-7.154-3.646-7.154-7.48-7.154-8.925 0-1.469 0-5.375 7.673-9.241 6.577-3.313 15.712-4.992 27.149-4.992 8.321 0 16.01.876 22.856 2.607 1.864.473 3.152.877 4.211 1.248l-2.023 3.374 8.278 2.59 7.174 1.919 26.894-36.249-14.97-4.217-2.934 2.06s-.948.659-1.24.864l-16.251-3.181c-11.806-2.337-23.798-3.522-35.646-3.522-22.829-.002-41.618 4.058-55.849 12.063z"
       fill="#fff"
       id="path2" />
    <path
       d="M265.726 881.258l8.556 14.602h-16.558c3.245-5.924 4.669-8.52 8.002-14.602zm31.131-34.148h-65.004v14.653s.731.074 1 .098c-2.199 4.01-29.652 54.125-29.652 54.125-.116.222-.599 1.107-.599 1.107l-.131.235c-1.786 3.45-3.82 5.572-6.044 6.316l-4.518 1.511v13.432h53.184V924.79s-1.503-.381-2.974-.756l1.187-2.086h46.708c.582 1.051.67 1.206 1.214 2.186-.742.159-1.695.36-1.695.36l-.39 5.43v8.664h56.131v-13.937l-5.139-1.178c-.948-.218-1.211-.553-1.435-.937l-.138-.271-35.878-60.427c.084-.006.524-.052.524-.052l.27-6.012v-8.663h-6.621v-.001zm197.32 0h-46.905v14.026s5.807 1.22 5.839 1.225v22.483l-35.548-25.972.26-3.099v-8.663h-64.548v13.992l5.545 1.201v61.098l-5.154.966-.391 5.555v8.664h52.65v-14.16l-5.548-1.026v-29.437l44.953 32.841-.242 3.118v8.664h55.71v-14.012s-5.803-1.234-5.838-1.243v-60.966c.036-.006 5.443-1.175 5.443-1.175l.395-5.416v-8.663h-6.621v-.001zm87.922 34.148l8.555 14.602h-16.557c3.249-5.924 4.67-8.52 8.002-14.602zm31.133-34.148h-65.006v14.653s.731.074.999.098c-2.195 4.01-29.65 54.125-29.65 54.125-.114.222-.597 1.107-.597 1.107l-.13.235c-1.787 3.45-3.82 5.572-6.043 6.316l-4.52 1.511v13.432h53.184V924.79l-2.974-.756c.544-.96.618-1.088 1.186-2.086h46.708c.584 1.051.67 1.206 1.211 2.186-.741.159-1.692.36-1.692.36l-.39 5.43v8.664h56.133v-13.937l-5.142-1.178c-.947-.218-1.208-.553-1.432-.937l-.139-.271s-33.213-55.935-35.878-60.427c.083-.006.525-.052.525-.052l.271-6.012v-8.663h-6.624v-.001zm123.34 31.048c15.03 0 22.317 2.289 25.78 4.213 3.921 2.181 5.672 5.333 5.672 10.222 0 4.971-1.769 8.178-5.742 10.394-3.481 1.946-10.766 4.257-25.71 4.257h-15.15v-29.086h15.15zm-60.305-31.048h-6.621v13.998l5.547 1.194V923.4l-5.16.962-.387 5.56v8.664h67.146c14.581 0 25.612-.692 33.727-2.12 8.347-1.464 15.807-3.963 22.165-7.426 7.107-3.894 12.665-9.03 16.539-15.273 3.918-6.323 5.907-13.397 5.907-21.027 0-7.495-1.988-14.484-5.917-20.771-3.866-6.193-9.422-11.305-16.514-15.193-6.335-3.525-13.808-6.071-22.18-7.546-8.14-1.427-19.172-2.119-33.727-2.119h-60.525v-.001zm214.026 34.148l8.555 14.602h-16.557l8.002-14.602zm31.132-34.148h-65.007v14.653s.73.074 1.002.098l-29.653 54.125c-.114.222-.597 1.107-.597 1.107l-.13.235c-1.787 3.45-3.82 5.572-6.043 6.316l-4.519 1.511v13.432h53.183V924.79l-2.974-.756c.545-.96.62-1.088 1.187-2.086h46.706c.586 1.051.667 1.206 1.212 2.186-.741.159-1.692.36-1.692.36l-.39 5.43v8.664h56.131v-13.937l-5.141-1.178c-.947-.218-1.208-.553-1.433-.937l-.138-.271-35.88-60.427c.083-.006.525-.052.525-.052l.273-6.012v-8.663h-6.622v-.001z"
       fill="#fff"
       id="path4" />
    <path
       d="M154.778 881.873c.147-.213.27-.428.381-.648.11-.215.163-.428.163-.647 0-2.088-3.699-4.068-11.099-5.938-7.398-1.87-15.554-2.81-24.477-2.81-12.541 0-22.588 1.901-30.129 5.701-7.546 3.804-11.314 8.852-11.314 15.152 0 6.227 3.591 11.167 10.772 14.824 7.178 3.659 17.003 5.484 29.479 5.484 7.179 0 13.286-.416 18.326-1.255 5.043-.836 10.247-2.272 15.614-4.312 1.451-.51 2.39-.96 2.829-1.362.434-.402.652-.889.652-1.474 0-.291-.056-.615-.164-.98-.11-.366-.233-.768-.379-1.205l2.611-1.09 22.438 24.237-3.035.868c-1.018-.649-1.87-1.117-2.559-1.409-.693-.288-1.257-.436-1.688-.436-.658 0-2.399.445-5.232 1.32-15.472 4.828-31.809 7.239-49.02 7.239-23.095 0-41.43-3.644-55.011-10.942-13.583-7.295-20.37-17.071-20.37-29.344 0-11.904 6.64-21.595 19.928-29.069 13.286-7.476 30.82-11.216 52.601-11.216 11.472 0 22.923 1.132 34.36 3.393 11.435 2.263 17.225 3.392 17.369 3.392 1.018 0 1.925-.181 2.724-.544.799-.366 1.743-.987 2.833-1.861l2.719.765-18.492 24.923-2.83-.756zm110.757-14.039l20.297 34.647h-39.287l18.99-34.647zm73.119 64.133v-2.045c-2.547-.581-4.439-1.934-5.675-4.057-.073-.076-.111-.15-.111-.219l-37.319-62.857a35.433 35.433 0 01-1.477-2.847c-.403-.876-.598-1.463-.598-1.754 0-.805.252-1.391.763-1.758.51-.363 1.381-.584 2.622-.656v-2.043h-58.384v2.043c1.23.073 2.101.293 2.614.656.51.366.765.953.765 1.758 0 .292-.182.862-.547 1.703a43.292 43.292 0 01-1.414 2.899l-30.885 56.378c-.147.292-.365.698-.656 1.211-2.618 5.047-5.893 8.232-9.822 9.544v2.045h39.945v-2.045c-1.602-.29-2.784-.73-3.549-1.313-.768-.584-1.145-1.319-1.145-2.199 0-.437.074-.859.219-1.258a9.2 9.2 0 01.652-1.374l4.803-8.453h54.458l4.689 8.453c.505.953.871 1.683 1.089 2.195.221.51.331.953.331 1.317 0 .729-.347 1.301-1.045 1.703-.689.4-1.762.711-3.213.929v2.045h42.89v-.001zm55.099-6.31c0 1.461.345 2.46 1.033 3.005.689.548 2.195.969 4.515 1.26v2.045h-39.408v-2.045c2.318-.29 3.82-.711 4.511-1.26.689-.545 1.034-1.544 1.034-3.005v-65.51c0-1.46-.345-2.458-1.034-3.004-.691-.55-2.193-1.006-4.511-1.371v-2.043h51.311v2.043c-1.46.293-2.568.656-3.33 1.095-.766.438-1.145.91-1.145 1.424 0 .582.836 1.489 2.513 2.731.434.292.799.548 1.091.766l49.399 36.09v-37.732c0-1.46-.369-2.458-1.105-3.004-.734-.55-2.31-1.006-4.735-1.371v-2.043h40.285v2.043c-2.381.364-3.943.821-4.7 1.371-.759.545-1.138 1.544-1.138 3.004v65.51c0 1.387.379 2.353 1.138 2.901.757.547 2.319 1 4.7 1.363v2.045h-42.47v-2.045c1.461-.218 2.559-.547 3.289-.985.729-.436 1.098-.911 1.098-1.422 0-.653-1.026-1.747-3.074-3.278a1.63 1.63 0 00-.438-.329l-58.829-42.976v44.727zm188.155-57.823l20.298 34.647h-39.285l18.987-34.647zm73.118 64.133v-2.045c-2.546-.581-4.437-1.934-5.674-4.057-.071-.076-.108-.15-.108-.219l-37.322-62.857a35.079 35.079 0 01-1.476-2.847c-.403-.876-.599-1.463-.599-1.754 0-.805.252-1.391.762-1.758.511-.363 1.381-.584 2.623-.656v-2.043h-58.385v2.043c1.231.073 2.103.293 2.613.656.511.366.769.953.769 1.758 0 .292-.185.862-.547 1.703a45.95 45.95 0 01-1.415 2.899l-30.886 56.378a26.22 26.22 0 01-.658 1.211c-2.615 5.047-5.891 8.232-9.819 9.544v2.045h39.943v-2.045c-1.6-.29-2.783-.73-3.549-1.313-.765-.584-1.145-1.319-1.145-2.199 0-.437.073-.859.221-1.258a8.91 8.91 0 01.652-1.374l4.803-8.453h54.457l4.688 8.453c.507.953.874 1.683 1.091 2.195.219.51.329.953.329 1.317 0 .729-.347 1.301-1.039 1.703-.693.4-1.768.711-3.217.929v2.045h42.888v-.001zm81.546-60.43c13.273 0 22.935 1.683 28.991 5.046 6.055 3.367 9.082 8.703 9.082 16.01 0 7.384-3.047 12.776-9.136 16.174-6.095 3.404-15.737 5.099-28.938 5.099H714.8v-42.329h21.772zm-60.305-17.807v2.043c2.316.364 3.822.818 4.511 1.36.687.541 1.037 1.537 1.037 2.987v65.541c0 1.46-.35 2.458-1.037 3.006-.689.549-2.195.963-4.511 1.254v2.045h60.525c14.042 0 24.904-.674 32.582-2.023 7.677-1.345 14.39-3.584 20.143-6.719 6.111-3.348 10.804-7.667 14.081-12.95 3.275-5.28 4.912-11.124 4.912-17.536 0-6.264-1.638-12.021-4.912-17.265-3.276-5.246-7.969-9.542-14.081-12.895-5.752-3.202-12.465-5.478-20.143-6.828-7.677-1.346-18.539-2.021-32.582-2.021h-60.525v.001zm213.835 14.104l20.297 34.647h-39.285l18.988-34.647zm73.118 64.133v-2.045c-2.544-.581-4.437-1.934-5.674-4.057-.073-.076-.11-.15-.11-.219l-37.32-62.857a34.146 34.146 0 01-1.476-2.847c-.403-.876-.6-1.463-.6-1.754 0-.805.25-1.391.763-1.758.51-.363 1.381-.584 2.623-.656v-2.043H863.04v2.043c1.233.073 2.103.293 2.612.656.513.366.768.953.768 1.758 0 .292-.182.862-.545 1.703a44.355 44.355 0 01-1.415 2.899l-30.886 56.378c-.145.292-.364.698-.658 1.211-2.615 5.047-5.892 8.232-9.819 9.544v2.045h39.943v-2.045c-1.6-.29-2.781-.73-3.549-1.313-.765-.584-1.145-1.319-1.145-2.199 0-.437.074-.859.221-1.258a8.91 8.91 0 01.652-1.374l4.802-8.453h54.458l4.689 8.453c.507.953.871 1.683 1.091 2.195.219.51.327.953.327 1.317 0 .729-.347 1.301-1.039 1.703-.694.4-1.766.711-3.216.929v2.045h42.889v-.001z"
       fill="#e5232a"
       id="path6" />
    <path
       d="M494.079 72.537l-77.373 154.477c-.456.873-2.85 2.907-7.086 4.2-4.419 1.348-8.838 1.277-11.527-.181l-92.099-49.931 55.584 239.044c.009.043.445 1.74.445 1.74 1.54 5.8 1.983 8.489-3.639 11.469-8.236 4.366-11.956 2.063-14.507-.764L238.7 315.993s-25.03 57.245-25.171 57.574c-6.245 12.519-7.309 14.436-32.768 8.724L63.856 355.309l40.77 131.615c5.807 18.171-2.288 21.472-6.179 23.058l-64.318 24.135 214.44 153.189c7.365 5.301 7.655 8.488 4.769 14.807l-41.471 90.769s285.63-55.484 288.134-55.973c2.5.489 288.135 55.973 288.135 55.973l-41.474-90.769c-1.067-2.339-1.701-4.247-1.701-5.993 0-2.975 1.836-5.481 6.487-8.829.04-.024 214.421-153.174 214.421-153.174l-64.493-24.203c-2.789-1.14-8.045-3.282-8.045-11.944 0-2.872.581-6.47 2.026-10.989l40.785-131.671-116.945 26.989c-25.417 5.705-26.482 3.788-32.727-8.731l-25.169-57.574-105.176 116.597c-2.553 2.829-6.271 5.132-14.509.764-5.622-2.98-5.178-5.669-3.641-11.472l.436-1.694 55.592-239.088-92.096 49.931c-2.691 1.458-7.109 1.529-11.526.183-4.238-1.292-6.63-3.331-7.143-4.308L500 60.72l-5.921 11.817z"
       id="path8"
       fill="#fff" />
    <path
       d="M472.196 782.697l-.001 7.282c0 9.764 14.362 13.243 27.805 13.243 13.44 0 27.804-3.479 27.804-13.243v-7.282c0-9.763-14.364-13.24-27.802-13.24-13.442 0-27.806 3.478-27.806 13.24z"
       fill="#fff"
       id="path10" />
    <path
       d="M747.584 681.918l204.33-145.968-52.864-19.838c-10.468-4.269-15.69-13.356-9.999-31.147l37.362-120.617-105.727 24.402c-28.949 6.498-32.527 3.039-40.21-12.366l-21.133-48.339-98.304 108.98c-4.106 4.552-10.96 8.309-22.523 2.178-11.561-6.131-7.809-15.278-6.542-20.556l8.393-36.097-53.648 44.003 53.654-44.023 43.851-188.595-79.162 42.919c-8.956 4.856-24.167-.148-27.689-6.877L500.001 75.502l-77.375 154.474c-3.519 6.729-18.732 11.733-27.689 6.877l-79.162-42.919 52.25 224.713c1.265 5.278 5.021 14.429-6.543 20.556-11.561 6.131-18.418 2.372-22.523-2.178l-98.306-108.98-21.131 48.339c-7.683 15.405-11.261 18.862-40.213 12.366L73.588 364.348l37.362 120.617c5.687 17.791.467 26.878-10.003 31.147L48.084 535.95l204.334 145.968c5.31 3.823 8.14 7.505 8.956 11.546.696 3.44-.066 7.135-2.015 11.398l-36.125 79.07 276.767-53.763 276.767 53.763-36.126-79.07c-4.239-9.274-2.887-15.87 6.942-22.944z"
       fill="#e5232a"
       id="path12" />
    <path
       d="M611.594 296.237l-3.512-3.373s-8.58-12.913-16.828-21.161l-4.236.728-19.611.661c-3.986-1.374-9.139-1.388-9.139-1.388-11.273 12.876-15.171 27.179-15.171 27.179l-1.191 1.983c-.557 14.366 2.116 27.577 2.116 27.577l-20.337 7.074v2.712s-3.798-.018-8.149.462c-4.354.48-14.043 4.299-14.043 4.299l-31.996 18.451-11.791 16.928-17.684 41.264s-1.395 6.692-1.395 9.19l.136 11.111-4.306-1.388-16.96 15.476-2.716 18.247-18.085 26.451-38.95 64.013v2.907l-11.859 9.724v6.413s-9.29 2.833-21.396 14.349l-15.699 17.588-22.656 32.67-9.076 6.877.529 12.695-1.983 1.984v2.976l-4.176 4.961-16.958 15.408c-2.126 4.42-4.317 17.071-3.711 23.472l-6.808 22.158c6.117-3.804 14.491-6.748 14.491-6.748l5.963-1.06 34.844-38.418 55.246-45.696c7.27-6.165 12.986-21.094 12.986-21.094s4.211-3.024 8.279-4.1c5.178-1.371 18.092-7.276 22.192-11.572l13.249-13.887 12.851-.793s6.473-8.034 11.527-17.261l12.19-7.142 17.158-19.307 12.849-11.443c2.783-2.781 9.342-4.362 9.342-4.362l2.583 14.612c3.285 17.932-.132 22.486-.132 22.486l-5.102 14.347c-1.26 3.287-1.526 7.605-1.526 7.605s-2.343 2.897-4.37 6.747l-17.887 33.989-12.915 32.137-7.75 4.96-3.512 7.671-2.052-1.654-19.079 31.743v5.025l3.642 4.299-5.63 15.143 1.523 2.248 12.518-7.803 7.949 4.297s3.526-2.35 5.498-4.891l10.933-14.086 56.371-57.201s11.647-11.198 20.536-38.949c0 0 8.067-5.982 12.854-13.756l18.685-30.353 18.281-44.172 26.033 20.965 4.106-.664-20.602 177.157.863 7.011 2.915 3.042c11.118-.164 35.176-4.232 35.176-4.232 1.511-.238 8.611-9.035 10.268-15.278l2.65-9.983-3.511-1.522-24.514 8.136-5.957 1.188s-.355-5.45-.136-8.528l18.482-157.253c9.826-3.176 18.289-10.911 20.34-15.279l-3.512-.79 2.121-6.812-4.241-6.48 5.633-7.011-2.718-6.877-7.815-2.909-5.035-.727 4.372-40.604s5.01-6.172 10.863-11.173c5.855-5.001 11.262-8.362 13.781-11.77l15.305-20.7-.732-5.554 2.847-4.893s-4.505-6.981-19.076-14.018l5.628-9.125c.299-14.946-.056-23.701 10.601-43.448l-2.781-9.853-21.863-19.574s-11.032-2.981-18.082-2.448c-7.049.535-15.171 5.292-15.171 5.292l-4.57 2.777 3.444-6.348-2.052-1.387v-12.567h-.004z"
       fill="#fff"
       id="path14" />
    <path
       d="M608.31 451.375l10.13 8.264-3.64 37.229-25.237-17.191c-2.309-1.599-4.176-4.629-4.176-4.629l5.827-7.802 6.428-11.577 4.57-10.709 6.098 6.415z"
       fill="#e5232a"
       id="path16" />
    <path
       d="M521.184 782.697c0-3.654-9.482-6.62-21.182-6.62-11.704 0-21.186 2.965-21.186 6.62l-.001 7.282c0 3.657 9.484 6.622 21.186 6.622 11.701 0 21.183-2.965 21.183-6.622v-7.282z"
       id="path18" />
  </g>
</svg>
