<?xml version="1.0" encoding="UTF-8" standalone="no"?>
<svg
   xmlns:dc="http://purl.org/dc/elements/1.1/"
   xmlns:cc="http://creativecommons.org/ns#"
   xmlns:rdf="http://www.w3.org/1999/02/22-rdf-syntax-ns#"
   xmlns:svg="http://www.w3.org/2000/svg"
   xmlns="http://www.w3.org/2000/svg"
   xmlns:sodipodi="http://sodipodi.sourceforge.net/DTD/sodipodi-0.dtd"
   xmlns:inkscape="http://www.inkscape.org/namespaces/inkscape"
   viewBox="0 0 1000 1000"
   version="1.1"
   id="svg22"
   sodipodi:docname="Canada_White.svg"
   inkscape:version="0.92.4 (5da689c313, 2019-01-14)">
  <metadata
     id="metadata28">
    <rdf:RDF>
      <cc:Work
         rdf:about="">
        <dc:format>image/svg+xml</dc:format>
        <dc:type
           rdf:resource="http://purl.org/dc/dcmitype/StillImage" />
        <dc:title></dc:title>
      </cc:Work>
    </rdf:RDF>
  </metadata>
  <defs
     id="defs26">
    <clipPath
       clipPathUnits="userSpaceOnUse"
       id="clipPath870">
      <rect
         style="opacity:1;fill:#ffffff;fill-opacity:1;stroke:#ff0000;stroke-width:5;stroke-linecap:square;stroke-linejoin:round;stroke-miterlimit:4;stroke-dasharray:none;stroke-dashoffset:99.43000031;stroke-opacity:1;paint-order:markers stroke fill"
         id="rect872"
         width="177.90028"
         height="116.85239"
         x="18.351818"
         y="831.46289"
         clip-path="none" />
    </clipPath>
    <clipPath
       clipPathUnits="userSpaceOnUse"
       id="clipPath874">
      <rect
         style="opacity:1;fill:#ffffff;fill-opacity:1;stroke:#ff0000;stroke-width:5;stroke-linecap:square;stroke-linejoin:round;stroke-miterlimit:4;stroke-dasharray:none;stroke-dashoffset:99.43000031;stroke-opacity:1;paint-order:markers stroke fill"
         id="rect876"
         width="177.90028"
         height="116.85239"
         x="18.351818"
         y="831.46289"
         clip-path="none" />
    </clipPath>
    <clipPath
       clipPathUnits="userSpaceOnUse"
       id="clipPath878">
      <rect
         style="opacity:1;fill:#ffffff;fill-opacity:1;stroke:#ff0000;stroke-width:5;stroke-linecap:square;stroke-linejoin:round;stroke-miterlimit:4;stroke-dasharray:none;stroke-dashoffset:99.43000031;stroke-opacity:1;paint-order:markers stroke fill"
         id="rect880"
         width="177.90028"
         height="116.85239"
         x="18.351818"
         y="831.46289"
         clip-path="none" />
    </clipPath>
    <clipPath
       clipPathUnits="userSpaceOnUse"
       id="clipPath882">
      <rect
         style="opacity:1;fill:#ffffff;fill-opacity:1;stroke:#ff0000;stroke-width:5;stroke-linecap:square;stroke-linejoin:round;stroke-miterlimit:4;stroke-dasharray:none;stroke-dashoffset:99.43000031;stroke-opacity:1;paint-order:markers stroke fill"
         id="rect884"
         width="177.90028"
         height="116.85239"
         x="18.351818"
         y="831.46289"
         clip-path="none" />
    </clipPath>
    <clipPath
       clipPathUnits="userSpaceOnUse"
       id="clipPath886">
      <rect
         style="opacity:1;fill:#ffffff;fill-opacity:1;stroke:#ff0000;stroke-width:5;stroke-linecap:square;stroke-linejoin:round;stroke-miterlimit:4;stroke-dasharray:none;stroke-dashoffset:99.43000031;stroke-opacity:1;paint-order:markers stroke fill"
         id="rect888"
         width="177.90028"
         height="116.85239"
         x="18.351818"
         y="831.46289"
         clip-path="none" />
    </clipPath>
    <clipPath
       clipPathUnits="userSpaceOnUse"
       id="clipPath890">
      <rect
         style="opacity:1;fill:#ffffff;fill-opacity:1;stroke:#ff0000;stroke-width:5;stroke-linecap:square;stroke-linejoin:round;stroke-miterlimit:4;stroke-dasharray:none;stroke-dashoffset:99.43000031;stroke-opacity:1;paint-order:markers stroke fill"
         id="rect892"
         width="177.90028"
         height="116.85239"
         x="18.351818"
         y="831.46289"
         clip-path="none" />
    </clipPath>
    <clipPath
       clipPathUnits="userSpaceOnUse"
       id="clipPath894">
      <rect
         style="opacity:1;fill:#ffffff;fill-opacity:1;stroke:#ff0000;stroke-width:5;stroke-linecap:square;stroke-linejoin:round;stroke-miterlimit:4;stroke-dasharray:none;stroke-dashoffset:99.43000031;stroke-opacity:1;paint-order:markers stroke fill"
         id="rect896"
         width="177.90028"
         height="116.85239"
         x="18.351818"
         y="831.46289"
         clip-path="none" />
    </clipPath>
    <clipPath
       clipPathUnits="userSpaceOnUse"
       id="clipPath898">
      <rect
         style="opacity:1;fill:#ffffff;fill-opacity:1;stroke:#ff0000;stroke-width:5;stroke-linecap:square;stroke-linejoin:round;stroke-miterlimit:4;stroke-dasharray:none;stroke-dashoffset:99.43000031;stroke-opacity:1;paint-order:markers stroke fill"
         id="rect900"
         width="177.90028"
         height="116.85239"
         x="18.351818"
         y="831.46289"
         clip-path="none" />
    </clipPath>
    <clipPath
       clipPathUnits="userSpaceOnUse"
       id="clipPath902">
      <rect
         style="opacity:1;fill:#ffffff;fill-opacity:1;stroke:#ff0000;stroke-width:5;stroke-linecap:square;stroke-linejoin:round;stroke-miterlimit:4;stroke-dasharray:none;stroke-dashoffset:99.43000031;stroke-opacity:1;paint-order:markers stroke fill"
         id="rect904"
         width="177.90028"
         height="116.85239"
         x="18.351818"
         y="831.46289"
         clip-path="none" />
    </clipPath>
  </defs>
  <sodipodi:namedview
     pagecolor="#ffffff"
     bordercolor="#666666"
     borderopacity="1"
     objecttolerance="10"
     gridtolerance="10"
     guidetolerance="10"
     inkscape:pageopacity="0"
     inkscape:pageshadow="2"
     inkscape:window-width="1918"
     inkscape:window-height="1008"
     id="namedview24"
     showgrid="false"
     inkscape:pagecheckerboard="false"
     inkscape:zoom="0.6675088"
     inkscape:cx="358.92884"
     inkscape:cy="251.74439"
     inkscape:window-x="953"
     inkscape:window-y="1080"
     inkscape:window-maximized="0"
     inkscape:current-layer="g20" />
  <g
     fill-rule="evenodd"
     clip-rule="evenodd"
     id="g20">
    <path
       inkscape:connector-curvature="0"
       style="fill:#ffffff;fill-opacity:1"
       d="m 500.002,819.41199 c -32.437,0 -43.994,-15.203 -43.994,-29.431 v -7.284 c 0,-4.779 1.311,-9.413 3.792,-13.403 l 5.718,-9.193 -281.452,54.673 51.081,-111.804 c 0,0 0.23,-1.774 0.264,-2.006 l 0.426,-2.859 L 0,529.632 90.400003,495.71 40.06,333.201 184.4,366.518 c 3.982,0.893 7.25,1.562 9.744,1.994 l 3.651,0.634 36.123,-82.628 107.743,119.445 -59.584,-256.243 122.09,66.19 95.84,-191.328 95.83,191.326 122.083,-66.188 -38.881,167.233 5.152,4.613 5.841,20.69 -3.114,5.775 c -5.023,9.311 -7.201,15.369 -8.036,22.354 l -1.765,14.763 88.964,-98.629 36.122,82.621 3.649,-0.633 c 2.532,-0.439 5.828,-1.114 9.8,-2.006 L 959.937,333.203 909.603,495.701 1000,529.631 A 2461314.7,2461314.7 0 0 1 766.174,696.65399 l -3.172,2.263 52.934,115.856 -281.448,-54.673 5.715,9.193 c 2.481,3.99 3.792,8.624 3.792,13.403 v 7.284 c 0,14.229 -11.557,29.432 -43.993,29.432 z m -439.754997,38.594 c -15.461003,8.701 -23.302003,20.423 -23.302003,34.841 0,14.839 8.027,26.675 23.859003,35.175 14.482,7.784 34.046,11.732 58.141997,11.732 17.799,0 34.952,-2.535 50.991,-7.54 -0.01,0 1.786,-0.496 2.907,-0.805 0.452,0.258 3.459,1.962 3.459,1.962 l 2.961,-0.587 13.387,-3.826 -32.896,-35.536 -12.449,5.203 1.009,3.208 c -4.349,1.537 -8.543,2.713 -12.517,3.371 -4.647,0.776 -10.446,1.166 -17.244,1.166 -11.366,0 -20.274997,-1.602 -26.474997,-4.762 -7.154,-3.646 -7.154,-7.48 -7.154,-8.925 0,-1.469 0,-5.375 7.673,-9.241 6.577,-3.313 15.711997,-4.992 27.148997,-4.992 8.321,0 16.01,0.876 22.856,2.607 1.864,0.473 3.152,0.877 4.211,1.248 l -2.023,3.374 8.278,2.59 7.174,1.919 26.894,-36.249 -14.97,-4.217 -2.934,2.06 c 0,0 -0.948,0.659 -1.24,0.864 l -16.251,-3.181 c -11.806,-2.337 -23.798,-3.522 -35.646,-3.522 -22.828997,0 -41.617997,4.058 -55.848997,12.063 z"
       id="path2-4" />
    <path
       inkscape:connector-curvature="0"
       style="fill:#e5232a;fill-opacity:1"
       d="m 265.726,881.25799 8.556,14.602 h -16.558 c 3.245,-5.924 4.669,-8.52 8.002,-14.602 z m 31.131,-34.148 h -65.004 v 14.653 c 0,0 0.731,0.074 1,0.098 -2.199,4.01 -29.652,54.125 -29.652,54.125 -0.116,0.222 -0.599,1.107 -0.599,1.107 l -0.131,0.235 c -1.786,3.45 -3.82,5.572 -6.044,6.316 l -4.518,1.511 v 13.432 h 53.184 v -13.797 c 0,0 -1.503,-0.381 -2.974,-0.756 l 1.187,-2.086 h 46.708 c 0.582,1.051 0.67,1.206 1.214,2.186 -0.742,0.159 -1.695,0.36 -1.695,0.36 l -0.39,5.43 v 8.664 h 56.131 v -13.937 l -5.139,-1.178 c -0.948,-0.218 -1.211,-0.553 -1.435,-0.937 l -0.138,-0.271 -35.878,-60.427 c 0.084,-0.01 0.524,-0.052 0.524,-0.052 l 0.27,-6.012 v -8.663 h -6.621 z m 197.32,0 h -46.905 v 14.026 c 0,0 5.807,1.22 5.839,1.225 v 22.483 l -35.548,-25.972 0.26,-3.099 v -8.663 h -64.548 v 13.992 l 5.545,1.201 v 61.098 l -5.154,0.966 -0.391,5.555 v 8.664 h 52.65 v -14.16 l -5.548,-1.026 v -29.437 l 44.953,32.841 -0.242,3.118 v 8.664 h 55.71 v -14.012 c 0,0 -5.803,-1.234 -5.838,-1.243 v -60.966 c 0.036,-0.01 5.443,-1.175 5.443,-1.175 l 0.395,-5.416 v -8.663 h -6.621 z m 87.922,34.148 8.555,14.602 h -16.557 c 3.249,-5.924 4.67,-8.52 8.002,-14.602 z m 31.133,-34.148 h -65.006 v 14.653 c 0,0 0.731,0.074 0.999,0.098 -2.195,4.01 -29.65,54.125 -29.65,54.125 -0.114,0.222 -0.597,1.107 -0.597,1.107 l -0.13,0.235 c -1.787,3.45 -3.82,5.572 -6.043,6.316 l -4.52,1.511 v 13.432 h 53.184 v -13.797 l -2.974,-0.756 c 0.544,-0.96 0.618,-1.088 1.186,-2.086 h 46.708 c 0.584,1.051 0.67,1.206 1.211,2.186 -0.741,0.159 -1.692,0.36 -1.692,0.36 l -0.39,5.43 v 8.664 h 56.133 v -13.937 l -5.142,-1.178 c -0.947,-0.218 -1.208,-0.553 -1.432,-0.937 l -0.139,-0.271 c 0,0 -33.213,-55.935 -35.878,-60.427 0.083,-0.01 0.525,-0.052 0.525,-0.052 l 0.271,-6.012 v -8.663 h -6.624 z m 123.34,31.048 c 15.03,0 22.317,2.289 25.78,4.213 3.921,2.181 5.672,5.333 5.672,10.222 0,4.971 -1.769,8.178 -5.742,10.394 -3.481,1.946 -10.766,4.257 -25.71,4.257 h -15.15 v -29.086 z m -60.305,-31.048 h -6.621 v 13.998 l 5.547,1.194 v 61.098 l -5.16,0.962 -0.387,5.56 v 8.664 h 67.146 c 14.581,0 25.612,-0.692 33.727,-2.12 8.347,-1.464 15.807,-3.963 22.165,-7.426 7.107,-3.894 12.665,-9.03 16.539,-15.273 3.918,-6.323 5.907,-13.397 5.907,-21.027 0,-7.495 -1.988,-14.484 -5.917,-20.771 -3.866,-6.193 -9.422,-11.305 -16.514,-15.193 -6.335,-3.525 -13.808,-6.071 -22.18,-7.546 -8.14,-1.427 -19.172,-2.119 -33.727,-2.119 h -60.525 z m 214.026,34.148 8.555,14.602 h -16.557 z m 31.132,-34.148 h -65.007 v 14.653 c 0,0 0.73,0.074 1.002,0.098 l -29.653,54.125 c -0.114,0.222 -0.597,1.107 -0.597,1.107 l -0.13,0.235 c -1.787,3.45 -3.82,5.572 -6.043,6.316 l -4.519,1.511 v 13.432 h 53.183 v -13.797 l -2.974,-0.756 c 0.545,-0.96 0.62,-1.088 1.187,-2.086 h 46.706 c 0.586,1.051 0.667,1.206 1.212,2.186 -0.741,0.159 -1.692,0.36 -1.692,0.36 l -0.39,5.43 v 8.664 h 56.131 v -13.937 l -5.141,-1.178 c -0.947,-0.218 -1.208,-0.553 -1.433,-0.937 l -0.138,-0.271 -35.88,-60.427 c 0.083,-0.01 0.525,-0.052 0.525,-0.052 l 0.273,-6.012 v -8.663 h -6.622 z"
       id="path4" />
    <path
       inkscape:connector-curvature="0"
       d="m 154.778,881.87299 c 0.147,-0.213 0.27,-0.428 0.381,-0.648 0.11,-0.215 0.163,-0.428 0.163,-0.647 0,-2.088 -3.699,-4.068 -11.099,-5.938 -7.398,-1.87 -15.554,-2.81 -24.477,-2.81 -12.541,0 -22.587997,1.901 -30.128997,5.701 -7.546,3.804 -11.314,8.852 -11.314,15.152 0,6.227 3.591,11.167 10.772,14.824 7.178,3.659 17.002997,5.484 29.478997,5.484 7.179,0 13.286,-0.416 18.326,-1.255 5.043,-0.836 10.247,-2.272 15.614,-4.312 1.451,-0.51 2.39,-0.96 2.829,-1.362 0.434,-0.402 0.652,-0.889 0.652,-1.474 0,-0.291 -0.056,-0.615 -0.164,-0.98 -0.11,-0.366 -0.233,-0.768 -0.379,-1.205 l 2.611,-1.09 22.438,24.237 -3.035,0.868 c -1.018,-0.649 -1.87,-1.117 -2.559,-1.409 -0.693,-0.288 -1.257,-0.436 -1.688,-0.436 -0.658,0 -2.399,0.445 -5.232,1.32 -15.472,4.828 -31.809,7.239 -49.02,7.239 -23.094997,0 -41.429997,-3.644 -55.010997,-10.942 C 50.353,914.89499 43.566,905.11899 43.566,892.84599 c 0,-11.904 6.64,-21.595 19.928003,-29.069 13.286,-7.476 30.82,-11.216 52.600997,-11.216 11.472,0 22.923,1.132 34.36,3.393 11.435,2.263 17.225,3.392 17.369,3.392 1.018,0 1.925,-0.181 2.724,-0.544 0.799,-0.366 1.743,-0.987 2.833,-1.861 l 2.719,0.765 -18.492,24.923 z m 110.757,-14.039 20.297,34.647 h -39.287 z m 73.119,64.133 v -2.045 c -2.547,-0.581 -4.439,-1.934 -5.675,-4.057 -0.073,-0.076 -0.111,-0.15 -0.111,-0.219 l -37.319,-62.857 a 35.433,35.433 0 0 1 -1.477,-2.847 c -0.403,-0.876 -0.598,-1.463 -0.598,-1.754 0,-0.805 0.252,-1.391 0.763,-1.758 0.51,-0.363 1.381,-0.584 2.622,-0.656 v -2.043 h -58.384 v 2.043 c 1.23,0.073 2.101,0.293 2.614,0.656 0.51,0.366 0.765,0.953 0.765,1.758 0,0.292 -0.182,0.862 -0.547,1.703 a 43.292,43.292 0 0 1 -1.414,2.899 l -30.885,56.378 c -0.147,0.292 -0.365,0.698 -0.656,1.211 -2.618,5.047 -5.893,8.232 -9.822,9.544 v 2.045 h 39.945 v -2.045 c -1.602,-0.29 -2.784,-0.73 -3.549,-1.313 -0.768,-0.584 -1.145,-1.319 -1.145,-2.199 0,-0.437 0.074,-0.859 0.219,-1.258 a 9.2,9.2 0 0 1 0.652,-1.374 l 4.803,-8.453 h 54.458 l 4.689,8.453 c 0.505,0.953 0.871,1.683 1.089,2.195 0.221,0.51 0.331,0.953 0.331,1.317 0,0.729 -0.347,1.301 -1.045,1.703 -0.689,0.4 -1.762,0.711 -3.213,0.929 v 2.045 h 42.89 z m 55.099,-6.31 c 0,1.461 0.345,2.46 1.033,3.005 0.689,0.548 2.195,0.969 4.515,1.26 v 2.045 h -39.408 v -2.045 c 2.318,-0.29 3.82,-0.711 4.511,-1.26 0.689,-0.545 1.034,-1.544 1.034,-3.005 v -65.51 c 0,-1.46 -0.345,-2.458 -1.034,-3.004 -0.691,-0.55 -2.193,-1.006 -4.511,-1.371 v -2.043 h 51.311 v 2.043 c -1.46,0.293 -2.568,0.656 -3.33,1.095 -0.766,0.438 -1.145,0.91 -1.145,1.424 0,0.582 0.836,1.489 2.513,2.731 0.434,0.292 0.799,0.548 1.091,0.766 l 49.399,36.09 v -37.732 c 0,-1.46 -0.369,-2.458 -1.105,-3.004 -0.734,-0.55 -2.31,-1.006 -4.735,-1.371 v -2.043 h 40.285 v 2.043 c -2.381,0.364 -3.943,0.821 -4.7,1.371 -0.759,0.545 -1.138,1.544 -1.138,3.004 v 65.51 c 0,1.387 0.379,2.353 1.138,2.901 0.757,0.547 2.319,1 4.7,1.363 v 2.045 h -42.47 v -2.045 c 1.461,-0.218 2.559,-0.547 3.289,-0.985 0.729,-0.436 1.098,-0.911 1.098,-1.422 0,-0.653 -1.026,-1.747 -3.074,-3.278 a 1.63,1.63 0 0 0 -0.438,-0.329 l -58.829,-42.976 z m 188.155,-57.823 20.298,34.647 h -39.285 z m 73.118,64.133 v -2.045 c -2.546,-0.581 -4.437,-1.934 -5.674,-4.057 -0.071,-0.076 -0.108,-0.15 -0.108,-0.219 l -37.322,-62.857 a 35.079,35.079 0 0 1 -1.476,-2.847 c -0.403,-0.876 -0.599,-1.463 -0.599,-1.754 0,-0.805 0.252,-1.391 0.762,-1.758 0.511,-0.363 1.381,-0.584 2.623,-0.656 v -2.043 h -58.385 v 2.043 c 1.231,0.073 2.103,0.293 2.613,0.656 0.511,0.366 0.769,0.953 0.769,1.758 0,0.292 -0.185,0.862 -0.547,1.703 a 45.95,45.95 0 0 1 -1.415,2.899 l -30.886,56.378 a 26.22,26.22 0 0 1 -0.658,1.211 c -2.615,5.047 -5.891,8.232 -9.819,9.544 v 2.045 h 39.943 v -2.045 c -1.6,-0.29 -2.783,-0.73 -3.549,-1.313 -0.765,-0.584 -1.145,-1.319 -1.145,-2.199 0,-0.437 0.073,-0.859 0.221,-1.258 a 8.91,8.91 0 0 1 0.652,-1.374 l 4.803,-8.453 h 54.457 l 4.688,8.453 c 0.507,0.953 0.874,1.683 1.091,2.195 0.219,0.51 0.329,0.953 0.329,1.317 0,0.729 -0.347,1.301 -1.039,1.703 -0.693,0.4 -1.768,0.711 -3.217,0.929 v 2.045 h 42.888 z m 81.546,-60.43 c 13.273,0 22.935,1.683 28.991,5.046 6.055,3.367 9.082,8.703 9.082,16.01 0,7.384 -3.047,12.776 -9.136,16.174 -6.095,3.404 -15.737,5.099 -28.938,5.099 H 714.8 v -42.329 z m -60.305,-17.807 v 2.043 c 2.316,0.364 3.822,0.818 4.511,1.36 0.687,0.541 1.037,1.537 1.037,2.987 v 65.541 c 0,1.46 -0.35,2.458 -1.037,3.006 -0.689,0.549 -2.195,0.963 -4.511,1.254 v 2.045 h 60.525 c 14.042,0 24.904,-0.674 32.582,-2.023 7.677,-1.345 14.39,-3.584 20.143,-6.719 6.111,-3.348 10.804,-7.667 14.081,-12.95 3.275,-5.28 4.912,-11.124 4.912,-17.536 0,-6.264 -1.638,-12.021 -4.912,-17.265 -3.276,-5.246 -7.969,-9.542 -14.081,-12.895 -5.752,-3.202 -12.465,-5.478 -20.143,-6.828 -7.677,-1.346 -18.539,-2.021 -32.582,-2.021 h -60.525 z m 213.835,14.104 20.297,34.647 h -39.285 z m 73.118,64.133 v -2.045 c -2.544,-0.581 -4.437,-1.934 -5.674,-4.057 -0.073,-0.076 -0.11,-0.15 -0.11,-0.219 l -37.32,-62.857 a 34.146,34.146 0 0 1 -1.476,-2.847 c -0.403,-0.876 -0.6,-1.463 -0.6,-1.754 0,-0.805 0.25,-1.391 0.763,-1.758 0.51,-0.363 1.381,-0.584 2.623,-0.656 v -2.043 H 863.04 v 2.043 c 1.233,0.073 2.103,0.293 2.612,0.656 0.513,0.366 0.768,0.953 0.768,1.758 0,0.292 -0.182,0.862 -0.545,1.703 a 44.355,44.355 0 0 1 -1.415,2.899 l -30.886,56.378 c -0.145,0.292 -0.364,0.698 -0.658,1.211 -2.615,5.047 -5.892,8.232 -9.819,9.544 v 2.045 h 39.943 v -2.045 c -1.6,-0.29 -2.781,-0.73 -3.549,-1.313 -0.765,-0.584 -1.145,-1.319 -1.145,-2.199 0,-0.437 0.074,-0.859 0.221,-1.258 a 8.91,8.91 0 0 1 0.652,-1.374 l 4.802,-8.453 h 54.458 l 4.689,8.453 c 0.507,0.953 0.871,1.683 1.091,2.195 0.219,0.51 0.327,0.953 0.327,1.317 0,0.729 -0.347,1.301 -1.039,1.703 -0.694,0.4 -1.766,0.711 -3.216,0.929 v 2.045 h 42.889 z"
       id="path6-3"
       style="fill:#ffffff;fill-opacity:1" />
    <path
       inkscape:connector-curvature="0"
       style="fill:#e5232a;fill-opacity:1"
       d="m 500.002,819.412 c -32.437,0 -43.994,-15.203 -43.994,-29.431 v -7.284 c 0,-4.779 1.311,-9.413 3.792,-13.403 l 5.718,-9.193 -281.452,54.673 51.081,-111.804 c 0,0 0.23,-1.774 0.264,-2.006 l 0.426,-2.859 L 0,529.632 90.4,495.71 40.06,333.201 184.4,366.518 c 3.982,0.893 7.25,1.562 9.744,1.994 l 3.651,0.634 36.123,-82.628 107.743,119.445 -59.584,-256.243 122.09,66.19 95.84,-191.328 95.83,191.326 122.083,-66.188 -38.881,167.233 5.152,4.613 5.841,20.69 -3.114,5.775 c -5.023,9.311 -7.201,15.369 -8.036,22.354 l -1.765,14.763 88.964,-98.629 36.122,82.621 3.649,-0.633 c 2.532,-0.439 5.828,-1.114 9.8,-2.006 L 959.937,333.203 909.603,495.701 1000,529.631 A 2461314.7,2461314.7 0 0 1 766.174,696.654 l -3.172,2.263 52.934,115.856 -281.448,-54.673 5.715,9.193 c 2.481,3.99 3.792,8.624 3.792,13.403 v 7.284 c 0,14.229 -11.557,29.432 -43.993,29.432 z M 60.247,858.006 c -15.461,8.701 -23.302,20.423 -23.302,34.841 0,14.839 8.027,26.675 23.859,35.175 14.482,7.784 34.046,11.732 58.142,11.732 17.799,0 34.952,-2.535 50.991,-7.54 -0.01,0.002 1.786,-0.496 2.907,-0.805 0.452,0.258 3.459,1.962 3.459,1.962 l 2.961,-0.587 13.387,-3.826 -32.896,-35.536 -12.449,5.203 1.009,3.208 c -4.349,1.537 -8.543,2.713 -12.517,3.371 -4.647,0.776 -10.446,1.166 -17.244,1.166 -11.366,0 -20.275,-1.602 -26.475,-4.762 -7.154,-3.646 -7.154,-7.48 -7.154,-8.925 0,-1.469 0,-5.375 7.673,-9.241 6.577,-3.313 15.712,-4.992 27.149,-4.992 8.321,0 16.01,0.876 22.856,2.607 1.864,0.473 3.152,0.877 4.211,1.248 l -2.023,3.374 8.278,2.59 7.174,1.919 26.894,-36.249 -14.97,-4.217 -2.934,2.06 c 0,0 -0.948,0.659 -1.24,0.864 l -16.251,-3.181 c -11.806,-2.337 -23.798,-3.522 -35.646,-3.522 -22.829,-0.002 -41.618,4.058 -55.849,12.063 z"
       id="path2"
       clip-path="url(#clipPath902)" />
    <path
       inkscape:connector-curvature="0"
       d="m 154.778,881.873 c 0.147,-0.213 0.27,-0.428 0.381,-0.648 0.11,-0.215 0.163,-0.428 0.163,-0.647 0,-2.088 -3.699,-4.068 -11.099,-5.938 -7.398,-1.87 -15.554,-2.81 -24.477,-2.81 -12.541,0 -22.588,1.901 -30.129,5.701 -7.546,3.804 -11.314,8.852 -11.314,15.152 0,6.227 3.591,11.167 10.772,14.824 7.178,3.659 17.003,5.484 29.479,5.484 7.179,0 13.286,-0.416 18.326,-1.255 5.043,-0.836 10.247,-2.272 15.614,-4.312 1.451,-0.51 2.39,-0.96 2.829,-1.362 0.434,-0.402 0.652,-0.889 0.652,-1.474 0,-0.291 -0.056,-0.615 -0.164,-0.98 -0.11,-0.366 -0.233,-0.768 -0.379,-1.205 l 2.611,-1.09 22.438,24.237 -3.035,0.868 c -1.018,-0.649 -1.87,-1.117 -2.559,-1.409 -0.693,-0.288 -1.257,-0.436 -1.688,-0.436 -0.658,0 -2.399,0.445 -5.232,1.32 -15.472,4.828 -31.809,7.239 -49.02,7.239 -23.095,0 -41.43,-3.644 -55.011,-10.942 -13.583,-7.295 -20.37,-17.071 -20.37,-29.344 0,-11.904 6.64,-21.595 19.928,-29.069 13.286,-7.476 30.82,-11.216 52.601,-11.216 11.472,0 22.923,1.132 34.36,3.393 11.435,2.263 17.225,3.392 17.369,3.392 1.018,0 1.925,-0.181 2.724,-0.544 0.799,-0.366 1.743,-0.987 2.833,-1.861 l 2.719,0.765 -18.492,24.923 z m 110.757,-14.039 20.297,34.647 h -39.287 z m 73.119,64.133 v -2.045 c -2.547,-0.581 -4.439,-1.934 -5.675,-4.057 -0.073,-0.076 -0.111,-0.15 -0.111,-0.219 l -37.319,-62.857 a 35.433,35.433 0 0 1 -1.477,-2.847 c -0.403,-0.876 -0.598,-1.463 -0.598,-1.754 0,-0.805 0.252,-1.391 0.763,-1.758 0.51,-0.363 1.381,-0.584 2.622,-0.656 v -2.043 h -58.384 v 2.043 c 1.23,0.073 2.101,0.293 2.614,0.656 0.51,0.366 0.765,0.953 0.765,1.758 0,0.292 -0.182,0.862 -0.547,1.703 a 43.292,43.292 0 0 1 -1.414,2.899 l -30.885,56.378 c -0.147,0.292 -0.365,0.698 -0.656,1.211 -2.618,5.047 -5.893,8.232 -9.822,9.544 v 2.045 h 39.945 v -2.045 c -1.602,-0.29 -2.784,-0.73 -3.549,-1.313 -0.768,-0.584 -1.145,-1.319 -1.145,-2.199 0,-0.437 0.074,-0.859 0.219,-1.258 a 9.2,9.2 0 0 1 0.652,-1.374 l 4.803,-8.453 h 54.458 l 4.689,8.453 c 0.505,0.953 0.871,1.683 1.089,2.195 0.221,0.51 0.331,0.953 0.331,1.317 0,0.729 -0.347,1.301 -1.045,1.703 -0.689,0.4 -1.762,0.711 -3.213,0.929 v 2.045 h 42.89 z m 55.099,-6.31 c 0,1.461 0.345,2.46 1.033,3.005 0.689,0.548 2.195,0.969 4.515,1.26 v 2.045 h -39.408 v -2.045 c 2.318,-0.29 3.82,-0.711 4.511,-1.26 0.689,-0.545 1.034,-1.544 1.034,-3.005 v -65.51 c 0,-1.46 -0.345,-2.458 -1.034,-3.004 -0.691,-0.55 -2.193,-1.006 -4.511,-1.371 v -2.043 h 51.311 v 2.043 c -1.46,0.293 -2.568,0.656 -3.33,1.095 -0.766,0.438 -1.145,0.91 -1.145,1.424 0,0.582 0.836,1.489 2.513,2.731 0.434,0.292 0.799,0.548 1.091,0.766 l 49.399,36.09 v -37.732 c 0,-1.46 -0.369,-2.458 -1.105,-3.004 -0.734,-0.55 -2.31,-1.006 -4.735,-1.371 v -2.043 h 40.285 v 2.043 c -2.381,0.364 -3.943,0.821 -4.7,1.371 -0.759,0.545 -1.138,1.544 -1.138,3.004 v 65.51 c 0,1.387 0.379,2.353 1.138,2.901 0.757,0.547 2.319,1 4.7,1.363 v 2.045 h -42.47 v -2.045 c 1.461,-0.218 2.559,-0.547 3.289,-0.985 0.729,-0.436 1.098,-0.911 1.098,-1.422 0,-0.653 -1.026,-1.747 -3.074,-3.278 a 1.63,1.63 0 0 0 -0.438,-0.329 L 393.753,880.93 Z m 188.155,-57.823 20.298,34.647 h -39.285 z m 73.118,64.133 v -2.045 c -2.546,-0.581 -4.437,-1.934 -5.674,-4.057 -0.071,-0.076 -0.108,-0.15 -0.108,-0.219 l -37.322,-62.857 a 35.079,35.079 0 0 1 -1.476,-2.847 c -0.403,-0.876 -0.599,-1.463 -0.599,-1.754 0,-0.805 0.252,-1.391 0.762,-1.758 0.511,-0.363 1.381,-0.584 2.623,-0.656 v -2.043 h -58.385 v 2.043 c 1.231,0.073 2.103,0.293 2.613,0.656 0.511,0.366 0.769,0.953 0.769,1.758 0,0.292 -0.185,0.862 -0.547,1.703 a 45.95,45.95 0 0 1 -1.415,2.899 l -30.886,56.378 a 26.22,26.22 0 0 1 -0.658,1.211 c -2.615,5.047 -5.891,8.232 -9.819,9.544 v 2.045 h 39.943 v -2.045 c -1.6,-0.29 -2.783,-0.73 -3.549,-1.313 -0.765,-0.584 -1.145,-1.319 -1.145,-2.199 0,-0.437 0.073,-0.859 0.221,-1.258 a 8.91,8.91 0 0 1 0.652,-1.374 l 4.803,-8.453 h 54.457 l 4.688,8.453 c 0.507,0.953 0.874,1.683 1.091,2.195 0.219,0.51 0.329,0.953 0.329,1.317 0,0.729 -0.347,1.301 -1.039,1.703 -0.693,0.4 -1.768,0.711 -3.217,0.929 v 2.045 h 42.888 z m 81.546,-60.43 c 13.273,0 22.935,1.683 28.991,5.046 6.055,3.367 9.082,8.703 9.082,16.01 0,7.384 -3.047,12.776 -9.136,16.174 -6.095,3.404 -15.737,5.099 -28.938,5.099 H 714.8 V 871.537 Z M 676.267,853.73 v 2.043 c 2.316,0.364 3.822,0.818 4.511,1.36 0.687,0.541 1.037,1.537 1.037,2.987 v 65.541 c 0,1.46 -0.35,2.458 -1.037,3.006 -0.689,0.549 -2.195,0.963 -4.511,1.254 v 2.045 h 60.525 c 14.042,0 24.904,-0.674 32.582,-2.023 7.677,-1.345 14.39,-3.584 20.143,-6.719 6.111,-3.348 10.804,-7.667 14.081,-12.95 3.275,-5.28 4.912,-11.124 4.912,-17.536 0,-6.264 -1.638,-12.021 -4.912,-17.265 -3.276,-5.246 -7.969,-9.542 -14.081,-12.895 -5.752,-3.202 -12.465,-5.478 -20.143,-6.828 -7.677,-1.346 -18.539,-2.021 -32.582,-2.021 h -60.525 z m 213.835,14.104 20.297,34.647 h -39.285 z m 73.118,64.133 v -2.045 c -2.544,-0.581 -4.437,-1.934 -5.674,-4.057 -0.073,-0.076 -0.11,-0.15 -0.11,-0.219 l -37.32,-62.857 a 34.146,34.146 0 0 1 -1.476,-2.847 c -0.403,-0.876 -0.6,-1.463 -0.6,-1.754 0,-0.805 0.25,-1.391 0.763,-1.758 0.51,-0.363 1.381,-0.584 2.623,-0.656 v -2.043 H 863.04 v 2.043 c 1.233,0.073 2.103,0.293 2.612,0.656 0.513,0.366 0.768,0.953 0.768,1.758 0,0.292 -0.182,0.862 -0.545,1.703 a 44.355,44.355 0 0 1 -1.415,2.899 l -30.886,56.378 c -0.145,0.292 -0.364,0.698 -0.658,1.211 -2.615,5.047 -5.892,8.232 -9.819,9.544 v 2.045 h 39.943 v -2.045 c -1.6,-0.29 -2.781,-0.73 -3.549,-1.313 -0.765,-0.584 -1.145,-1.319 -1.145,-2.199 0,-0.437 0.074,-0.859 0.221,-1.258 a 8.91,8.91 0 0 1 0.652,-1.374 l 4.802,-8.453 h 54.458 l 4.689,8.453 c 0.507,0.953 0.871,1.683 1.091,2.195 0.219,0.51 0.327,0.953 0.327,1.317 0,0.729 -0.347,1.301 -1.039,1.703 -0.694,0.4 -1.766,0.711 -3.216,0.929 v 2.045 h 42.889 z"
       id="path6"
       style="fill:#ffffff;fill-opacity:1"
       clip-path="url(#clipPath894)" />
    <path
       d="M494.079 72.537l-77.373 154.477c-.456.873-2.85 2.907-7.086 4.2-4.419 1.348-8.838 1.277-11.527-.181l-92.099-49.931 55.584 239.044c.009.043.445 1.74.445 1.74 1.54 5.8 1.983 8.489-3.639 11.469-8.236 4.366-11.956 2.063-14.507-.764L238.7 315.993s-25.03 57.245-25.171 57.574c-6.245 12.519-7.309 14.436-32.768 8.724L63.856 355.309l40.77 131.615c5.807 18.171-2.288 21.472-6.179 23.058l-64.318 24.135 214.44 153.189c7.365 5.301 7.655 8.488 4.769 14.807l-41.471 90.769s285.63-55.484 288.134-55.973c2.5.489 288.135 55.973 288.135 55.973l-41.474-90.769c-1.067-2.339-1.701-4.247-1.701-5.993 0-2.975 1.836-5.481 6.487-8.829.04-.024 214.421-153.174 214.421-153.174l-64.493-24.203c-2.789-1.14-8.045-3.282-8.045-11.944 0-2.872.581-6.47 2.026-10.989l40.785-131.671-116.945 26.989c-25.417 5.705-26.482 3.788-32.727-8.731l-25.169-57.574-105.176 116.597c-2.553 2.829-6.271 5.132-14.509.764-5.622-2.98-5.178-5.669-3.641-11.472l.436-1.694 55.592-239.088-92.096 49.931c-2.691 1.458-7.109 1.529-11.526.183-4.238-1.292-6.63-3.331-7.143-4.308L500 60.72l-5.921 11.817z"
       id="path8"
       fill="#fff"
       style="fill:#e5232a;fill-opacity:1"
       clip-path="url(#clipPath890)" />
    <path
       d="M472.196 782.697l-.001 7.282c0 9.764 14.362 13.243 27.805 13.243 13.44 0 27.804-3.479 27.804-13.243v-7.282c0-9.763-14.364-13.24-27.802-13.24-13.442 0-27.806 3.478-27.806 13.24z"
       fill="#fff"
       id="path10"
       clip-path="url(#clipPath886)" />
    <path
       d="M747.584 681.918l204.33-145.968-52.864-19.838c-10.468-4.269-15.69-13.356-9.999-31.147l37.362-120.617-105.727 24.402c-28.949 6.498-32.527 3.039-40.21-12.366l-21.133-48.339-98.304 108.98c-4.106 4.552-10.96 8.309-22.523 2.178-11.561-6.131-7.809-15.278-6.542-20.556l8.393-36.097-53.648 44.003 53.654-44.023 43.851-188.595-79.162 42.919c-8.956 4.856-24.167-.148-27.689-6.877L500.001 75.502l-77.375 154.474c-3.519 6.729-18.732 11.733-27.689 6.877l-79.162-42.919 52.25 224.713c1.265 5.278 5.021 14.429-6.543 20.556-11.561 6.131-18.418 2.372-22.523-2.178l-98.306-108.98-21.131 48.339c-7.683 15.405-11.261 18.862-40.213 12.366L73.588 364.348l37.362 120.617c5.687 17.791.467 26.878-10.003 31.147L48.084 535.95l204.334 145.968c5.31 3.823 8.14 7.505 8.956 11.546.696 3.44-.066 7.135-2.015 11.398l-36.125 79.07 276.767-53.763 276.767 53.763-36.126-79.07c-4.239-9.274-2.887-15.87 6.942-22.944z"
       id="path12"
       style="fill:#ffffff;fill-opacity:1"
       fill="#e5232a"
       clip-path="url(#clipPath882)" />
    <path
       d="M611.594 296.237l-3.512-3.373s-8.58-12.913-16.828-21.161l-4.236.728-19.611.661c-3.986-1.374-9.139-1.388-9.139-1.388-11.273 12.876-15.171 27.179-15.171 27.179l-1.191 1.983c-.557 14.366 2.116 27.577 2.116 27.577l-20.337 7.074v2.712s-3.798-.018-8.149.462c-4.354.48-14.043 4.299-14.043 4.299l-31.996 18.451-11.791 16.928-17.684 41.264s-1.395 6.692-1.395 9.19l.136 11.111-4.306-1.388-16.96 15.476-2.716 18.247-18.085 26.451-38.95 64.013v2.907l-11.859 9.724v6.413s-9.29 2.833-21.396 14.349l-15.699 17.588-22.656 32.67-9.076 6.877.529 12.695-1.983 1.984v2.976l-4.176 4.961-16.958 15.408c-2.126 4.42-4.317 17.071-3.711 23.472l-6.808 22.158c6.117-3.804 14.491-6.748 14.491-6.748l5.963-1.06 34.844-38.418 55.246-45.696c7.27-6.165 12.986-21.094 12.986-21.094s4.211-3.024 8.279-4.1c5.178-1.371 18.092-7.276 22.192-11.572l13.249-13.887 12.851-.793s6.473-8.034 11.527-17.261l12.19-7.142 17.158-19.307 12.849-11.443c2.783-2.781 9.342-4.362 9.342-4.362l2.583 14.612c3.285 17.932-.132 22.486-.132 22.486l-5.102 14.347c-1.26 3.287-1.526 7.605-1.526 7.605s-2.343 2.897-4.37 6.747l-17.887 33.989-12.915 32.137-7.75 4.96-3.512 7.671-2.052-1.654-19.079 31.743v5.025l3.642 4.299-5.63 15.143 1.523 2.248 12.518-7.803 7.949 4.297s3.526-2.35 5.498-4.891l10.933-14.086 56.371-57.201s11.647-11.198 20.536-38.949c0 0 8.067-5.982 12.854-13.756l18.685-30.353 18.281-44.172 26.033 20.965 4.106-.664-20.602 177.157.863 7.011 2.915 3.042c11.118-.164 35.176-4.232 35.176-4.232 1.511-.238 8.611-9.035 10.268-15.278l2.65-9.983-3.511-1.522-24.514 8.136-5.957 1.188s-.355-5.45-.136-8.528l18.482-157.253c9.826-3.176 18.289-10.911 20.34-15.279l-3.512-.79 2.121-6.812-4.241-6.48 5.633-7.011-2.718-6.877-7.815-2.909-5.035-.727 4.372-40.604s5.01-6.172 10.863-11.173c5.855-5.001 11.262-8.362 13.781-11.77l15.305-20.7-.732-5.554 2.847-4.893s-4.505-6.981-19.076-14.018l5.628-9.125c.299-14.946-.056-23.701 10.601-43.448l-2.781-9.853-21.863-19.574s-11.032-2.981-18.082-2.448c-7.049.535-15.171 5.292-15.171 5.292l-4.57 2.777 3.444-6.348-2.052-1.387v-12.567h-.004z"
       fill="#fff"
       id="path14"
       style="fill:#e5232a;fill-opacity:1"
       clip-path="url(#clipPath878)" />
    <path
       d="M608.31 451.375l10.13 8.264-3.64 37.229-25.237-17.191c-2.309-1.599-4.176-4.629-4.176-4.629l5.827-7.802 6.428-11.577 4.57-10.709 6.098 6.415z"
       fill="#e5232a"
       id="path16"
       style="fill:#ffffff;fill-opacity:1"
       clip-path="url(#clipPath874)" />
    <path
       d="M521.184 782.697c0-3.654-9.482-6.62-21.182-6.62-11.704 0-21.186 2.965-21.186 6.62l-.001 7.282c0 3.657 9.484 6.622 21.186 6.622 11.701 0 21.183-2.965 21.183-6.622v-7.282z"
       id="path18"
       clip-path="url(#clipPath870)" />
    <path
       inkscape:connector-curvature="0"
       d="m 494.079,72.537 -77.373,154.477 c -0.456,0.873 -2.85,2.907 -7.086,4.2 -4.419,1.348 -8.838,1.277 -11.527,-0.181 l -92.099,-49.931 55.584,239.044 c 0.009,0.043 0.445,1.74 0.445,1.74 1.54,5.8 1.983,8.489 -3.639,11.469 -8.236,4.366 -11.956,2.063 -14.507,-0.764 L 238.7,315.993 c 0,0 -25.03,57.245 -25.171,57.574 -6.245,12.519 -7.309,14.436 -32.768,8.724 L 63.856003,355.309 104.626,486.924 c 5.807,18.171 -2.288,21.472 -6.178997,23.058 L 34.129,534.117 248.569,687.30599 c 7.365,5.301 7.655,8.488 4.769,14.807 l -41.471,90.769 c 0,0 285.63,-55.484 288.134,-55.973 2.5,0.489 288.135,55.973 288.135,55.973 l -41.474,-90.769 c -1.067,-2.339 -1.701,-4.247 -1.701,-5.993 0,-2.975 1.836,-5.481 6.487,-8.829 0.04,-0.024 214.421,-153.17399 214.421,-153.17399 l -64.493,-24.203 c -2.789,-1.14 -8.045,-3.282 -8.045,-11.944 0,-2.872 0.581,-6.47 2.026,-10.989 L 936.142,355.31 819.197,382.299 c -25.417,5.705 -26.482,3.788 -32.727,-8.731 L 761.301,315.994 656.125,432.591 c -2.553,2.829 -6.271,5.132 -14.509,0.764 -5.622,-2.98 -5.178,-5.669 -3.641,-11.472 l 0.436,-1.694 55.592,-239.088 -92.096,49.931 c -2.691,1.458 -7.109,1.529 -11.526,0.183 -4.238,-1.292 -6.63,-3.331 -7.143,-4.308 L 500,60.72 Z"
       id="path8-8"
       style="fill:#e5232a;fill-opacity:1" />
    <path
       inkscape:connector-curvature="0"
       style="fill:#ffffff"
       d="m 472.196,782.69699 -0.001,7.282 c 0,9.764 14.362,13.243 27.805,13.243 13.44,0 27.804,-3.479 27.804,-13.243 v -7.282 c 0,-9.763 -14.364,-13.24 -27.802,-13.24 -13.442,0 -27.806,3.478 -27.806,13.24 z"
       id="path10-8" />
    <path
       inkscape:connector-curvature="0"
       d="M 747.584,681.91799 951.914,535.95 899.05,516.112 c -10.468,-4.269 -15.69,-13.356 -9.999,-31.147 L 926.413,364.348 820.686,388.75 c -28.949,6.498 -32.527,3.039 -40.21,-12.366 l -21.133,-48.339 -98.304,108.98 c -4.106,4.552 -10.96,8.309 -22.523,2.178 -11.561,-6.131 -7.809,-15.278 -6.542,-20.556 l 8.393,-36.097 -53.648,44.003 53.654,-44.023 43.851,-188.595 -79.162,42.919 c -8.956,4.856 -24.167,-0.148 -27.689,-6.877 L 500.001,75.502 422.626,229.976 c -3.519,6.729 -18.732,11.733 -27.689,6.877 l -79.162,-42.919 52.25,224.713 c 1.265,5.278 5.021,14.429 -6.543,20.556 -11.561,6.131 -18.418,2.372 -22.523,-2.178 l -98.306,-108.98 -21.131,48.339 c -7.683,15.405 -11.261,18.862 -40.213,12.366 L 73.588003,364.348 110.95,484.965 c 5.687,17.791 0.467,26.878 -10.003,31.147 L 48.084,535.95 252.418,681.91799 c 5.31,3.823 8.14,7.505 8.956,11.546 0.696,3.44 -0.066,7.135 -2.015,11.398 l -36.125,79.07 276.767,-53.763 276.767,53.763 -36.126,-79.07 c -4.239,-9.274 -2.887,-15.87 6.942,-22.944 z"
       id="path12-0"
       style="fill:#ffffff;fill-opacity:1" />
    <path
       inkscape:connector-curvature="0"
       d="m 611.594,296.237 -3.512,-3.373 c 0,0 -8.58,-12.913 -16.828,-21.161 l -4.236,0.728 -19.611,0.661 c -3.986,-1.374 -9.139,-1.388 -9.139,-1.388 -11.273,12.876 -15.171,27.179 -15.171,27.179 l -1.191,1.983 c -0.557,14.366 2.116,27.577 2.116,27.577 l -20.337,7.074 v 2.712 c 0,0 -3.798,-0.018 -8.149,0.462 -4.354,0.48 -14.043,4.299 -14.043,4.299 l -31.996,18.451 -11.791,16.928 -17.684,41.264 c 0,0 -1.395,6.692 -1.395,9.19 l 0.136,11.111 -4.306,-1.388 -16.96,15.476 -2.716,18.247 -18.085,26.451 -38.95,64.013 v 2.907 l -11.859,9.724 v 6.413 c 0,0 -9.29,2.833 -21.396,14.349 l -15.699,17.588 -22.656,32.67 -9.076,6.877 0.529,12.695 -1.983,1.984 v 2.976 l -4.176,4.96099 -16.958,15.408 c -2.126,4.42 -4.317,17.071 -3.711,23.472 l -6.808,22.158 c 6.117,-3.804 14.491,-6.748 14.491,-6.748 l 5.963,-1.06 34.844,-38.418 55.246,-45.69599 c 7.27,-6.165 12.986,-21.094 12.986,-21.094 0,0 4.211,-3.024 8.279,-4.1 5.178,-1.371 18.092,-7.276 22.192,-11.572 l 13.249,-13.887 12.851,-0.793 c 0,0 6.473,-8.034 11.527,-17.261 l 12.19,-7.142 17.158,-19.307 12.849,-11.443 c 2.783,-2.781 9.342,-4.362 9.342,-4.362 l 2.583,14.612 c 3.285,17.932 -0.132,22.486 -0.132,22.486 l -5.102,14.347 c -1.26,3.287 -1.526,7.605 -1.526,7.605 0,0 -2.343,2.897 -4.37,6.747 l -17.887,33.989 -12.915,32.137 -7.75,4.96 -3.512,7.67099 -2.052,-1.654 -19.079,31.743 v 5.025 l 3.642,4.299 -5.63,15.143 1.523,2.248 12.518,-7.803 7.949,4.297 c 0,0 3.526,-2.35 5.498,-4.891 l 10.933,-14.086 56.371,-57.20099 c 0,0 11.647,-11.198 20.536,-38.949 0,0 8.067,-5.982 12.854,-13.756 l 18.685,-30.353 18.281,-44.172 26.033,20.965 4.106,-0.664 -20.602,177.15699 0.863,7.011 2.915,3.042 c 11.118,-0.164 35.176,-4.232 35.176,-4.232 1.511,-0.238 8.611,-9.035 10.268,-15.278 l 2.65,-9.983 -3.511,-1.522 -24.514,8.136 -5.957,1.188 c 0,0 -0.355,-5.45 -0.136,-8.528 L 624.311,548.515 c 9.826,-3.176 18.289,-10.911 20.34,-15.279 l -3.512,-0.79 2.121,-6.812 -4.241,-6.48 5.633,-7.011 -2.718,-6.877 -7.815,-2.909 -5.035,-0.727 4.372,-40.604 c 0,0 5.01,-6.172 10.863,-11.173 5.855,-5.001 11.262,-8.362 13.781,-11.77 l 15.305,-20.7 -0.732,-5.554 2.847,-4.893 c 0,0 -4.505,-6.981 -19.076,-14.018 l 5.628,-9.125 c 0.299,-14.946 -0.056,-23.701 10.601,-43.448 l -2.781,-9.853 -21.863,-19.574 c 0,0 -11.032,-2.981 -18.082,-2.448 -7.049,0.535 -15.171,5.292 -15.171,5.292 l -4.57,2.777 3.444,-6.348 -2.052,-1.387 v -12.567 z"
       id="path14-9"
       style="fill:#e5232a;fill-opacity:1" />
    <path
       inkscape:connector-curvature="0"
       d="m 608.31,451.375 10.13,8.264 -3.64,37.229 -25.237,-17.191 c -2.309,-1.599 -4.176,-4.629 -4.176,-4.629 l 5.827,-7.802 6.428,-11.577 4.57,-10.709 z"
       id="path16-7"
       style="fill:#ffffff;fill-opacity:1" />
    <path
       inkscape:connector-curvature="0"
       d="m 521.184,782.69699 c 0,-3.654 -9.482,-6.62 -21.182,-6.62 -11.704,0 -21.186,2.965 -21.186,6.62 l -10e-4,7.282 c 0,3.657 9.484,6.622 21.186,6.622 11.701,0 21.183,-2.965 21.183,-6.622 z"
       id="path18-5" />
  </g>
</svg>
