<svg xmlns="http://www.w3.org/2000/svg" viewBox="0 0 200 200"><path d="M22.567 137.573c0-45.328.009-90.657-.041-135.985C22.524.171 22.892-.001 24.182 0c50.212.039 100.424.039 150.636 0 1.291-.001 1.657.172 1.656 1.588-.05 45.328-.041 90.656-.041 135.985-.352 2.296-.16 4.632-.546 6.928-2.301 13.688-9.358 23.912-21.828 30.297-6.884 3.525-14.232 5.693-21.621 7.777-7.17 2.022-14.41 3.847-21.111 7.234-4.23 2.138-7.932 4.914-10.54 8.966-.306.476-.705.855-1.12 1.225h-.334c-.362-.343-.749-.658-1.025-1.088-3.292-5.14-8.194-8.213-13.654-10.523-6.834-2.892-14.036-4.639-21.146-6.67-6.638-1.896-13.202-4.005-19.308-7.311-12.899-6.982-19.856-17.866-21.327-32.392-.15-1.482.09-2.984-.306-4.443z"/><path d="M86.973 71.509c-1.073-.363-1.915-.857-2.789-1.208-3.189-1.281-4.935-4.011-6.891-6.552-2.041-2.651-3.513-5.724-6.238-7.882-.856-.678-1.55-.811-2.4-.554-.75.226-1.129.097-1.648-.539-1.344-1.648-2.955-2.905-5.159-3.386-2.321-.506-5.085.543-6.189 2.643-1.221 2.324-1.611 4.818-1.576 7.42.011.824.335.973 1.069 1.013 3.901.211 5.132 1.438 5.603 5.465.047.399.473.862-.064 1.16-.381.211-.705-.149-1.039-.351-2.365-1.427-4.414-3.245-6.362-5.176-1.879-1.863-3.165-4.203-5.042-6.649.174 2.108.415 3.739.962 5.328.548 1.595 1.517 2.963 2.472 4.409-.811.265-1.203-.456-2.123-.423.903 2.154 2.154 3.931 3.771 5.386 1.529 1.376 3.273 2.472 5.336 2.997 1.026.261.568.882.201 1.511-1.907 3.267-4.732 5.471-8.089 7.047-4.416 2.072-8.505 4.593-11.74 8.322-.665.766-1.54 1.471-1.881 2.37-.634 1.668-1.346 1.179-2.38.473-2.886-1.969-5.512-4.266-8.272-6.393-.552-.426-.609-.984-.608-1.623.012-8.957.025-17.914-.013-26.871-.005-1.121.231-1.474 1.353-1.052 3.527 1.325 6.894.754 10.159-.937 1.476-.765 2.522-1.718 2.157-3.6-1.081-5.564-3.065-10.533-8.58-13.202-1.421-.688-2.637-1.791-4.294-2.011-.614-.082-.789-.589-.787-1.239.021-11.071.022-22.142.001-33.213-.002-.821.166-1.288 1.093-1.16.273.038.555.005.834.005 47.779 0 95.558.009 143.338-.04 1.629-.002 1.992.408 1.98 2.002-.078 10.625-.05 21.252-.026 31.878.002 1.109-.204 1.572-1.469 2.028-6.815 2.455-10.729 7.463-11.869 14.586-.399 2.495 1.228 4.1 4.139 4.997 3.085.95 6.047.714 9.185-.284v1.863c0 8.679-.011 17.358.015 26.036.003 1.049-.202 1.727-1.149 2.463-2.647 2.059-5.237 4.181-8.032 6.052-.715.479-1.048.379-1.399-.202-3.289-5.439-8.389-8.619-13.938-11.259-3.277-1.559-6.032-3.74-7.951-6.879-.438-.717-.718-1.059.495-1.566 3.423-1.432 6.245-3.727 8.15-7.005.164-.283.306-.584.412-.892.049-.141-.013-.321-.028-.54-.701-.305-1.119.622-1.978.367 2.084-2.875 3.465-5.963 3.372-9.983-3.344 5.303-7.057 9.746-12.642 12.639.206-1.673.319-3.131.968-4.425.85-1.694 2.207-2.65 4.235-2.429.765.083 1.697.281 1.683-1.061-.033-3.243-.209-6.457-2.875-8.792-2.366-2.072-5.188-1.761-7.033-.588-1.006.64-2.036 1.346-2.801 2.354-.508.67-1.039 1.295-2.192.823-.797-.326-1.804-.026-2.422.823-.393.54-.798 1.072-1.328 1.783-2.109-4.717-4.068-8.976-5.901-13.288-.455-1.071-.633-1.111-1.189-.145-.188.327-.519.576-.802.842-1.978 1.855-2.019 2.025-.475 4.326.865 1.288 1.408 2.697 1.866 4.163.153.49.432 1.019-.036 1.347-.466.327-1.027-.112-1.345-.395-1.359-1.208-2.957-2.186-3.997-3.707-.408-.597-.599-.491-.959-.088a.608.608 0 00-.097.135c-.534 1.08-1.979 1.753-1.941 2.945.039 1.214 1.617 1.438 2.416 2.214.399.387.802.772 1.178 1.181.502.545 1.198 1.041.719 1.944-.472.891-1.309 1.002-2.187.938-1.778-.128-3.393-.775-4.943-1.615-.558-.303-.936-.492-1.376.341-.581 1.098-1.473 2.033-2.239 3.032-.471.613-.553.884.391 1.239 3.872 1.457 7.685 3.069 11.53 4.6.277.11.478.247.707.536-1.496 1.641-3.563 2.224-5.68 3.131 2.183 1.401 4.539 1.429 6.864.955 1.153-.235 1.237.005 1.4 1.032.951 5.98 2.42 11.852 4.203 17.628.811 2.627 2.949 4.128 5.713 4.395 1.235.12 2.21.427 2.513 1.666.296 1.209-.266 2.115-1.391 2.681-.287.144-.478.47-.754.647-2.19 1.403-2.229 1.418-1.011 3.645 1.146 2.095 1.742 4.458 3.185 6.409.271.367.323.55-.398.896-2.519 1.208-5.182 1.854-7.819 2.65-.596.18-1.049 1.093-1.408 1.756-3.205 5.908-6.365 11.841-9.563 17.753-.452.836-.597 1.574-.111 2.464 4.92 9.018 9.808 18.054 14.721 27.076 2.429 4.462 4.895 8.904 7.331 13.362.233.426.868 1.176.153 1.315-.766.149-1.787 1.278-2.567-.19-1.999-3.764-4.062-7.494-6.101-11.237-4.809-8.83-9.621-17.658-14.427-26.49-.339-.624-.643-1.267-1.048-2.071-1.567 1.747-2.154 3.959-3.429 5.739-1.345 1.878-1.224 3.505-.011 5.616 4.138 7.202 7.972 14.579 11.914 21.893 1.503 2.79 2.985 5.591 4.478 8.386.251.47 1.182 1.106.315 1.403-.668.228-1.784 1.289-2.547-.195-.873-1.699-1.893-3.322-2.8-5.004-3.138-5.82-6.245-11.657-9.383-17.477-1.401-2.599-2.911-5.141-4.248-7.771-.596-1.174-.943-.759-1.356.002-1.28 2.352-2.494 4.74-3.818 7.066-.347.61.001.969.205 1.345 3.915 7.201 7.859 14.386 11.792 21.577.656 1.199 1.863 2.468 1.752 3.601-.095.978-2.035 1.172-3.154 1.709-4.501 2.158-8.665 4.765-11.987 8.729-3.982-4.7-9.066-7.553-14.554-9.808-1.125-.462-.204-1.107.037-1.56 1.909-3.59 3.867-7.154 5.81-10.726 6.774-12.452 13.549-24.903 20.321-37.355 3.597-6.615 7.294-13.178 10.747-19.867 2.163-4.19 3.142-8.647 1.294-13.301-.403-1.015.295-.924.934-.958 3.288-.174 4.931-.91 7.25-3.265-4.58-.325-7.25-3.659-10.334-6.315-2.914-2.509-5.694-5.17-9.284-6.773-2.464-1.101-5.012-1.439-7.66-1.3-.194.01-.38.188-.672.342 3.515 2.476 2.729 5.682 1.794 9.012-.678 2.415-2.336 4.148-3.758 6.243 2.576 1.9 5.478 1.828 8.456 1.288.32-.058.63-.17.945-.257 1.763-.486 1.68-.486 1.689 1.465.038 8.899-6.754 14.21-14.087 15.446-8.065 1.359-15.873-.059-23.571-2.457-2.959-.922-5.93-1.798-8.995-3.034 1.766-2.596 2.591-5.705 4.263-8.393.551-.885.38-1.361-.451-1.769-.842-.414-1.555-1.017-2.332-1.52-.941-.61-1.221-1.443-1.004-2.394.241-1.058 1.004-1.712 2.156-1.646 2.185.125 3.628-1.366 5.206-2.46.512-.355.63-1.336.844-2.055 1.732-5.803 3.263-11.661 4.238-17.641.179-1.097.321-1.132 1.328-.958 2.264.39 4.558.432 6.855-.898z" fill="#e91212"/><path d="M42.843 168.933c1.299-2.324 2.546-4.497 3.738-6.7 4.605-8.509 9.19-17.028 13.788-25.541 1.41-2.61 2.874-5.191 4.238-7.823.542-1.046 1.28-.958 2.111-.607 1.031.435.909 1.09.429 1.972a11179.3 11179.3 0 00-21.212 39.125c-.636 1.178-1.248 1.342-2.357.611-1.966-1.298-3.91-2.642-5.626-4.235-1.292-1.199-1.286-3.105-1.645-4.721-.274-1.233-.518-2.497-.956-3.655-.52-1.377-.339-2.885-1.017-4.203-.235-.457.019-.815.369-1.163 3.634-3.617 6.753-7.674 10.027-11.606 2.853-3.426 5.339-7.116 8.003-10.673.949-1.267 2.076-2.516 2.667-4.076.218-.576.578-1.272 1.438-.786.961.544.079 1.046-.137 1.444-5.767 10.622-11.568 21.225-17.347 31.84-.246.452-.511.869-.229 1.533 1.27 2.997 2.434 6.037 3.718 9.264zm113.926.055c.276-2.29 1.36-4.342 2.27-6.371 1.084-2.418 1.341-4.27-.204-6.713-2.708-4.282-4.891-8.896-7.298-13.369-2.95-5.48-5.898-10.961-8.87-16.429-.258-.474-.788-.877-.011-1.291.656-.35.916.356 1.089.655 1.249 2.161 2.752 4.144 4.211 6.155 2.719 3.747 5.462 7.468 8.445 11.026 2.161 2.577 4.316 5.157 6.549 7.673.105.118.107.373.222.427 2.492 1.189 1.725 3.401 1.178 5.066-.766 2.335-1.314 4.727-1.807 7.092-.429 2.054-1.707 3.084-3.119 4.183-.857.667-1.78 1.25-2.674 1.87-.002-.001.019.026.019.026zm-53.025-37.802c-2.059 3.872-4.094 7.757-6.184 11.613-2.462 4.54-4.987 9.045-7.456 13.581-4.384 8.055-8.765 16.111-13.09 24.197-.48.898-1.045 1.025-1.786.673-.47-.223-.953-.229-1.525-.391 1.781-3.365 3.518-6.715 5.319-10.031 2.49-4.584 5.047-9.131 7.54-13.714 4.38-8.051 8.763-16.102 13.075-24.189.893-1.676 2.57-1.332 4.107-1.739zM52.545 69.033c2.577 1.034 4.864 1.884 7.283 2.23 1.855.265 2.12-.02 2.118-1.895-.002-2.645-.459-5.097-2.582-6.995-.943-.843-2.142-.959-3.177-1.039-1.063-.082-.926-.522-.921-1.142.021-2.76.545-5.363 2.948-7.074 1.89-1.345 4.576-.829 6.391.773 1.53 1.35 2.476 2.458 1.462 4.791-1.212 2.787-.903 5.969-1.062 8.988-.105 1.982-.301 3.929-.68 5.873-.156.802-.596.986-1.288.934-3.466-.264-8.151-2.198-10.492-5.444zm93.671.568c-2.665 2.822-5.949 4.424-9.796 4.866-.724.083-1.251-.056-1.399-.986-.275-1.729-.669-3.428-.66-5.204.017-3.272-.231-6.527-.979-9.727-.025-.106-.003-.223-.019-.332-.106-.731-1.129-1.448-.675-2.007 1.169-1.439 2.47-2.795 4.27-3.555 1.908-.806 4.413-.072 5.697 2.159 1.187 2.062 1.468 4.154 1.375 6.41-3.915-.14-5.792 1.776-6.627 6.262a6.209 6.209 0 00-.053 1.896c.245 1.986.452 2.231 2.4 1.885 2.182-.388 4.285-1.094 6.466-1.667zM62.831 177.817c1.318-2.517 2.555-4.951 3.857-7.35 3.193-5.885 6.421-11.751 9.626-17.629 3.495-6.411 6.993-12.821 10.461-19.247.826-1.531 2.17-.883 3.677-1.046-1.015 1.964-1.895 3.739-2.84 5.48-3.379 6.224-6.788 12.431-10.171 18.653-3.616 6.651-7.237 13.299-10.801 19.977-.705 1.32-1.401 2.225-3.005 1.319-.175-.098-.413-.085-.804-.157z" fill="#e91212"/><path d="M156.748 168.961c-2.251 1.658-2.326 1.703-3.674-.538-1.52-2.526-2.911-5.132-4.317-7.725a17634.543 17634.543 0 01-15.361-28.404c-.389-.721-.67-1.504-1.089-2.206-.332-.555-1.011-.99.03-1.536.799-.419 1.52-.883 2.133.219.983 1.765 1.991 3.515 2.954 5.29 3.83 7.062 7.634 14.138 11.471 21.196 2.373 4.365 4.79 8.705 7.18 13.061.167.304.363.548.693.67a.468.468 0 00-.02-.027zm-78.189-37.53c-2.563 4.789-5.107 9.589-7.695 14.365-2.382 4.395-4.825 8.757-7.218 13.146-2.814 5.159-5.634 10.315-8.382 15.509-.74 1.398-1.48.181-2.097.06-.893-.174-.255-.852-.029-1.272 3.841-7.164 7.67-14.334 11.555-21.474 3.596-6.609 7.343-13.137 10.826-19.803.904-1.733 1.977-.25 3.04-.531zm42.299-.02c1.852-.861 2.656.012 3.512 1.641 3.986 7.588 8.134 15.092 12.231 22.622 3.156 5.801 6.329 11.594 9.475 17.402.221.408 1.051.984.005 1.33-.675.223-1.407 1.098-2.125-.28-2.902-5.569-5.919-11.079-8.929-16.591-4.528-8.291-9.089-16.565-13.627-24.851-.235-.428-.386-.901-.542-1.273z" fill="#e91212"/><path d="M125.143 56.486c.805 1.01.824 1.8-.028 2.822-1.862 2.231-3.229 4.837-5.131 7.053-1.2 1.399-1.537 1.46-3.237.324l8.396-10.199z" fill="#fed700"/><path d="M68.192 61.922c1.063-.419 1.914-1.269 2.572.109.319.668.259 1.005-.4 1.255-.203.077-.415.129-.621.198-2.458.816-3.28.139-2.735-2.371.128-.59.249-1.159.276-1.76.023-.498.231-.957.671-1.2.199-.11.585-.113.665.26.111.516 1.05.752.424 1.547-.369.466-.5 1.12-.852 1.962z" fill="#fec609"/><path d="M130.989 61.697c.139-1.094-1.558-1.743-.409-3.078.785-.913 1.09-.528 1.265.169.344 1.371.82 2.842.409 4.198-.448 1.477-1.76.661-2.666.447-1.438-.339-1.601-1.106-.534-2.058.741-.662 1.138.627 1.935.322z" fill="#fefefe"/><path d="M50.703 62.615c1.892 1.752 3.627 3.677 5.749 5.2.534.383 1.049.763 1.639 1.05.227.11.528.274.35.608-.16.301-.4.148-.682.098-1.768-.313-3.146-1.186-4.265-2.589-1.073-1.347-2.12-2.698-2.791-4.367z" fill="#e91212"/><path d="M115.713 66.445c-.049-.026-.305-.112-.298-.168.023-.198.094-.421.22-.572 2.414-2.879 4.842-5.747 7.259-8.623.418-.497.786-1.036 1.211-1.526.141-.162.277-.515.632-.231.321.257.133.427-.047.646-2.039 2.473-4.069 4.953-6.107 7.427-.727.883-1.5 1.732-2.182 2.649-.176.24-.268.44-.688.398z" fill="#fed700"/><path d="M140.604 69.454c3.05-1.836 5.443-4.069 7.624-6.627-.073 2.792-4.39 6.653-7.624 6.627z" fill="#e91212"/><path d="M123.698 55.04c-1.646 1.988-3.015 3.646-4.39 5.299-1.428 1.718-2.864 3.429-4.286 5.152-.188.228-.25.678-.669.445-.483-.269-.098-.502.096-.741 2.405-2.954 4.789-5.925 7.223-8.855.399-.479.762-1.1 2.026-1.3z" fill="#fed700"/><path d="M26.038 115.588c-.363-2.221-.139-4.032 1.004-5.636.251-.352.498-1.015 1.148-.615.528.325.422.791.17 1.305-.756 1.541-1.463 3.105-2.322 4.946z" fill="#e91212"/><path d="M116.365 61.982c-.843.381-.798 1.683-1.773 1.753-.568.041-1.185-.41-1.76-.683-.448-.213-.399-.451-.085-.852 1.354-1.73 1.467-1.757 3.618-.218z" fill="#fed700"/><path d="M172.939 114.624c-.771-1.335-1.003-2.905-2.014-4.115-.326-.39-.232-.875.222-1.146.569-.339.688.2.967.528 1.191 1.398 1.023 3.049.825 4.733z" fill="#e91212"/><path d="M112.945 60.906c-.713 1.039-1.35 2.153-2.839.93-.309-.254-.521-.334-.265-.699.936-1.341 2.021-.698 3.104-.231zm8.04-5.19c.393-1.619-.935-2.886.193-4.167 1.598 1.975 1.634 2.749-.193 4.167zm-10.008 8.837c.711-.899 2.136-1.058 2.822-.403.282.269.288.573.112.87-.254.429-.635.568-1.11.354l-1.824-.821zm8.637-6.652c-.531 1.072-1.263 1.014-1.99.275-.297-.302-1.104-.494-.616-1.188.275-.391.623-.817 1.187-.222.405.428.923.746 1.419 1.135zm-.679-12.072c.53.804 1.294 1.552.32 2.569-.385.402-.567.194-.866-.134-.977-1.068-.587-1.802.546-2.435zm-7.909 17.386c-.353.338-.286 1.065-1.018.913-.689-.143-1.486-.236-1.597-1.078-.04-.302.433-.912.876-.747.593.221 1.44.099 1.739.912zm-2.601-4.197c.409.651 1.53.201 1.38.973-.074.381-.288 1.406-1.098 1.256-.474-.088-1.344-.2-1.283-.901.039-.455.629-.863 1.001-1.328zm11.733-7.231c-.281-1.15-1.904-2.142.009-3.205.632 1.003 1.255 1.997-.009 3.205zm-3.344 9.32c-.69.031-.89-.205-1.051-.497.767-.387.6-1.613 1.535-1.788.467-.088.671.48.989.759l-1.473 1.526zm1.754-5.919c.601.529 1.41.478 2.093.763.442.184.204.491-.04.751-.283.302-.65.596-1 .377a7.147 7.147 0 01-1.547-1.336c-.133-.151.251-.425.494-.555zm-11.408 7.907c-.174-.549-1.22.059-1.136-.831.057-.6.497-1.101 1.021-1.062.408.03 1.205.199 1.138.836-.043.422-.241 1.115-1.023 1.057zm8.061-8.563l1.701 1.456c-.241.271-.459.794-.818.647-.601-.246-1.395-.468-1.335-1.366.016-.251.289-.484.452-.737zm7.307-4.425c.365.835.68 1.626 1.057 2.388.206.416-.003.649-.289.794-.325.165-.506-.185-.542-.39-.157-.9-1.322-1.73-.226-2.792zm-1.018-.108c.141-.94-1.401-1.649-.472-2.819 1.107 1.646 1.107 1.646.472 2.819zm-7.249 1.231c.306.974 1.475 1.066 1.097 1.993-.211.516-.62.002-.944-.097-1.178-.357-.501-1.011-.153-1.896zm-1.409 1.863c.699.275 1.461.447 1.694 1.272.039.137-.356.532-.628.372-.584-.345-1.612-.456-1.066-1.644zm4.131 2.007c-.447-.238-.93-.632-1.166-1.228-.04-.102.365-.548.599-.378.468.337.923.754 1.223 1.238.178.284-.222.389-.656.368zm3.357-8.348c-.112-.583-.943-.977-.424-1.681.063-.086.339-.141.351-.12.307.562.658 1.128.073 1.801zm3.047 7.54l.51-.408c.124.156.377.353.343.46-.054.172-.278.346-.465.405-.225.071-.406-.067-.388-.457z" fill="#fed700"/><path d="M87.102 99.29c-1.273 7.619 3.378 13.252 8.625 15.683-2.238.699-3.779.589-6.422.316-2.016-.208-4.041-.289-6.026-.746-2.007-.462-4.022-.893-6.023-1.378-.608-.147-1.075-.574-1.228-1.198-.822-3.361-1.314-6.729.087-10.07.34-.811.247-1.019-.738-.974-2.753.126-5.003-1.224-7.132-2.778-.416-.304-.486-.919.151-.918 3.889.008 6.311-2.669 8.811-4.963 3.37-3.093 6.679-6.193 10.92-8.078 1.507-.67 3.094-.969 4.729-1.099 3.587-.286 6.862.939 10.039 2.296 1.44.615 1.468 2.326 1.292 3.775-.539 4.455-2.68 7.884-6.664 10.053-3.411 1.856-6.868 1.607-10.421.079z"/><path d="M104.34 19.776c0 1.278.076 2.562-.023 3.833-.088 1.131.205 1.537 1.424 1.493 2.719-.1 5.444 0 8.166-.049.853-.016 1.158.194 1.134 1.099-.063 2.388-.059 4.78-.001 7.168.021.878-.234 1.136-1.115 1.119-2.777-.055-5.557.033-8.333-.047-1.056-.031-1.302.293-1.276 1.303.07 2.721-.005 5.446.041 8.168.015.865-.105 1.297-1.14 1.263-2.387-.078-4.779-.07-7.166-.003-.938.026-1.086-.343-1.073-1.159.043-2.667-.046-5.337.044-8.001.04-1.195-.202-1.638-1.513-1.58-2.662.119-5.333-.001-7.999.055-.92.02-1.247-.216-1.219-1.184.069-2.332.065-4.669.001-7.001-.026-.942.255-1.224 1.2-1.203 2.777.06 5.557-.019 8.333.043.962.022 1.208-.288 1.189-1.215-.057-2.722.013-5.446-.038-8.168-.017-.929.093-1.399 1.225-1.351 2.329.099 4.667.081 6.999.006 1.006-.032 1.199.355 1.157 1.245-.065 1.385-.017 2.777-.017 4.166zm33.565-8.967c-.554.286-1.107.591-1.676.863-1.26.601-1.884 1.553-1.862 2.985.04 2.611.011 5.223.011 7.899 1.219-.156 2.065-1.005 2.892-1.66 1.05-.832 1.249-.233 1.632.515.248.485.139.976.141 1.461.015 3.779.004 7.557.014 11.336.001.477-.134.981.333 1.384.862.743.846.762-.661 2.414-.465.51-.479.523-1.395-.474-.399-.434-.728-.931-1.203-1.547-.276.346-.459.786-.775.928-.694.31-.574 1.852-1.518 1.345-1.018-.546-1.836-1.501-1.816-2.924.054-3.778.018-7.557.018-11.336 0-1.723.186-3.47-.043-5.162-.36-2.658 1.081-4.576 2.365-6.549.784-1.203 1.972-1.931 3.543-1.478zM69.026 36.185c-.324.214-.713.369-.96.65-1.711 1.948-1.707 1.955-2.985-.462l-.305-.571c-.352.961-1.326 1.362-1.68 2.274-.164.421-.547.415-.94.068-.947-.834-1.55-1.799-1.544-3.107.015-3.282-.066-6.567.03-9.846.061-2.089 1.974-2.947 3.308-4.045.726-.598 1.072-1.029 1.018-1.914-.055-.887.125-1.806-.038-2.665-.474-2.492 1.092-3.9 2.674-5.299.808-.714 1.829-.617 3.25-.449-1.43.277-2.455.619-3.017 1.562-.54.906-.562 1.955-.558 3.01.027 6.231.026 12.462.001 18.693-.004 1.089.071 1.969 1.634 1.611l.112.49zm12.493-.534c-.737.788-1.159 1.157-1.482 1.599-1.02 1.392-1.406 1.368-2.262-.2-.153-.28-.309-.559-.523-.945-.293.371-.547.662-.766.977-.948 1.364-1.94 1.354-2.438-.235-.853-2.722-.485-5.572-.21-8.345.05-.503.203-1.089.068-1.563-.764-2.688.062-4.511 2.584-5.483.25-.096.529-.116.785-.201.648-.215 1.406-1.091 1.832-.708.627.564.824 1.579.878 2.531.211 3.706-.48 7.378-.369 11.082.034 1.117.196 1.872 1.903 1.491zm43.274-8.015c-.161-1.067-.515-2.035-.461-3.091.031-.59-.458-1.099-1.035-1.067-.609.033-.606.654-.605 1.168.007 2.948.007 5.897.001 8.845-.002.819.199 1.614 1.006 1.882.992.33 1.538-.508 1.949-1.198.708-1.188.716-2.521.474-3.874.977 1.154.781 2.614.473 3.759-.411 1.527-1.233 2.994-2.206 4.32-.19.258-.254.363-.6.291-2.006-.421-3.428-2.129-3.43-4.184-.002-2.948.009-5.897-.007-8.845-.004-.75.092-1.246.889-1.718 1.3-.77 2.398-1.878 3.597-2.822.685-.539 1.348-1.131 1.588.421.349 2.251 1.075 4.539-1.633 6.113z" fill="#fefefe"/><path d="M121.352 63.296c-.175.163-.337.43-.492.427-.157-.003-.307-.276-.461-.43.155-.153.307-.424.464-.427.156-.002.316.266.489.43z"/><path d="M136.381 29.847c0 1.555.033 3.111-.021 4.665-.015.439.418 1.226-.572 1.231-.843.004-1.36-.446-1.397-1.292-.046-1.053-.013-2.11-.013-3.165 0-2.166.047-4.334-.026-6.497-.025-.754.274-1.306.881-1.261.575.042 1.274.289 1.185 1.325-.141 1.653-.037 3.328-.037 4.994zm-71.429-8.62c0 4.368-.005 8.487.008 12.607.001.384-.166.673-.444.823-.461.247-.699-.195-.934-.467-.479-.555-.655-1.204-.643-1.957.037-2.435-.033-4.872.032-7.305.037-1.396.321-2.753 1.981-3.701zm12.352 4.797c0 3.114.006 5.988-.009 8.863-.002.333.19.841-.453.855-.444.01-.85-.235-.828-.636.156-2.866-.669-5.818.721-8.575.064-.127.225-.206.569-.507zm-.053-2.295c.3 2.243-2.125 2.21-2.797 4.032-.269-2.949-.192-3.047 2.797-4.032z" fill="#e91212"/></svg>