<svg baseProfile="tiny" xmlns="http://www.w3.org/2000/svg" viewBox="0 0 200 200" overflow="visible"><path fill="#1D1D1B" d="M100 184.8l99.5-172.3H.5z"/><path fill="#E34131" d="M8.5 17.1h183L100 175.6z"/><path fill="#1D1D1B" d="M12.5 19.4h175L100 170.9z"/><path fill="#3E4A51" d="M21.7 24.7h156.6L100 160.3z"/><path fill="#3D4A50" d="M27.6 28.7h144.8L100 155.1z"/><path fill="#1D1E1B" d="M30.8 30h138.4L100 149.8z"/><path fill="#1D1D1B" d="M100 155.1L27.2 27.3 24.6 26 100 157.7 175.4 26l-2.6 1.3z"/><path fill="#1D1D1B" d="M171.9 27.3H28.1l1.4 1.4h141z"/><path fill="#1D1D1B" d="M109.9 111.6V95.5h2.3L108 79.1l-13.7-8.7-6.6 25.4h2.2v15.8H66.5l-5.3-16H50.4V80.3h2V49.5h-2V33.4h15.7L84 44.7l2.6-14V13.1h26.7V31l8.4 37.6 9.2 5.8V49.5h-2.7V33.4h21.2v16.1h-2.7v30.8h2.7v15.3H139l-6 16h-23.1zM71.4 80.3v13.2l8.4-32.3L69 54.4v25.9h2.4zM102 56l-2-7.7-1.4 5.5L102 56z"/><path fill="#E84131" d="M145.6 45.5v-8.2h-13.3v8.2h2.7v36.1l-16.7-10.5L107 25.7h2.4v-8.6H90.6v9H93L86.5 51l-2.8-1.8L65 37.3H54.4v8.2h2.1v38.8h-2.1v7.3h13v-7.3H65V47.2l16.5 10.5 2.8 1.8-10.5 40.4-3.3-.1v7.8h15.3v-7.8h-3.4l9.3-35.6 15.7 9.9-3.1-11.9L94 55.7l6-23.2 17.2 66.9h-3.4v8.2h15.4v-8.2h-3.8l-4.1-16.5 13.7 8.7h10.6v-7.3h-2.8V45.5z"/><text transform="matrix(1.3541 0 0 1 92.387 95.167)" fill="#404E56" font-family="'Century'" font-size="15.926">X</text><text transform="matrix(1.3541 0 0 1 92.387 111.033)" fill="#404E56" font-family="'Century'" font-size="15.926">X</text><text transform="matrix(.7815 0 0 1 92.387 126.9)" fill="#404E56" font-family="'Century'" font-size="15.926">III</text></svg>