<?xml version="1.0" encoding="UTF-8" standalone="no"?>
<svg
   xml:space="preserve"
   viewBox="0 0 200 200"
   role="img"
   class="relative top-[5%] h-[90%] sm:top-[2.5%]"
   version="1.1"
   id="svg9"
   sodipodi:docname="SHL.svg"
   inkscape:version="1.3.2 (091e20e, 2023-11-25, custom)"
   xmlns:inkscape="http://www.inkscape.org/namespaces/inkscape"
   xmlns:sodipodi="http://sodipodi.sourceforge.net/DTD/sodipodi-0.dtd"
   xmlns="http://www.w3.org/2000/svg"
   xmlns:svg="http://www.w3.org/2000/svg"><defs
     id="defs9" /><sodipodi:namedview
     id="namedview9"
     pagecolor="#505050"
     bordercolor="#eeeeee"
     borderopacity="1"
     inkscape:showpageshadow="0"
     inkscape:pageopacity="0"
     inkscape:pagecheckerboard="0"
     inkscape:deskcolor="#d1d1d1"
     inkscape:zoom="3.775"
     inkscape:cx="176.29139"
     inkscape:cy="83.178808"
     inkscape:window-width="2559"
     inkscape:window-height="1000"
     inkscape:window-x="1272"
     inkscape:window-y="955"
     inkscape:window-maximized="0"
     inkscape:current-layer="svg9" /><path
     d="M157.685 133.461c-5.2-.061-11.606-.792-17.807-2.859-1.799-.6-3.468-1.483-5.02-2.58-2.023-1.43-3.12-3.388-3.321-5.85-.477-5.832-.993-11.661-1.816-17.456-.374-2.634.459-4.707 2.493-6.409 3.275-2.74 7.092-4.356 11.113-5.597 10.344-3.194 20.891-4.948 31.75-4.466 4.463.198 8.882.762 13.239 1.758 1.696.387 3.305 1.049 4.869 1.794 2.327 1.109 3.565 3.052 3.805 5.559.599 6.259 1.549 12.471 2.389 18.698.068.505.394.866.431 1.375.078 1.074-.198 1.943-.895 2.8-3.067 3.772-7.066 6.14-11.519 7.866-8.68 3.363-19.231 5.36-29.711 5.367z"
     style="fill:#f9f9f9"
     id="path1" /><path
     d="M63.692 54.013c0 3.178.01 6.242-.007 9.306-.004.792-.6 1.08-1.253 1.297a3192.14 3192.14 0 0 0-10.039 3.357 5120.12 5120.12 0 0 0-11.437 3.862c-.41.139-.819.288-1.208.475-1.866.898-2.604 3.376-1.523 5.153.549.902 1.41.642 2.169.427 1.219-.346 2.409-.792 3.612-1.193 4.581-1.523 9.16-3.051 13.745-4.564 1.268-.419 2.562-.711 3.915-.679 2.806.066 4.714 1.72 5.201 4.489.299 1.701.091 3.398.038 5.097-.118 3.776-.243 7.551-.365 11.326-.076 2.36-1.385 3.75-3.529 4.479-3.545 1.206-7.09 2.412-10.638 3.61-6.862 2.317-13.725 4.63-20.588 6.942-1.391.469-1.798.138-1.667-1.334.173-1.947.199-3.895.011-5.844-.138-1.426.461-2.342 1.974-2.855 2.843-.965 5.702-1.883 8.55-2.83 3.936-1.308 7.876-2.604 11.801-3.946 2.903-.993 3.931-2.522 3.862-5.574-.032-1.422-.637-1.9-2.041-1.478-1.955.588-3.887 1.251-5.825 1.894-4.376 1.453-8.743 2.932-13.127 4.359-1.317.429-2.681.383-4.039.09-1.956-.422-3.13-1.625-3.672-3.524-.508-1.779-.603-3.598-.588-5.429.029-3.376.121-6.75.054-10.129-.061-3.047 1.265-4.819 4.11-5.787 10.578-3.599 21.159-7.187 31.74-10.778.203-.065.411-.117.764-.219zM101.643 67.123c-.473-.07-.803.13-1.148.244-5.551 1.848-11.1 3.701-16.649 5.554-1.288.43-1.516.719-1.523 2.077-.024 4.337-.037 8.675-.049 13.012-.006 2.178-.333 2.605-2.388 3.26a459.204 459.204 0 0 0-7.5 2.459c-.656.222-.953.293-.906-.623.345-6.745.286-13.499.43-20.249.132-6.163.184-12.327.189-18.491.002-2.801.808-3.789 3.494-4.416 1.994-.466 3.893-1.231 5.828-1.88 1.276-.428 1.274-.434 1.274.959V60.74c0 .279-.005.558.004.836.043 1.435.259 1.603 1.606 1.156a6398.706 6398.706 0 0 0 15.854-5.281c1.455-.487 1.88-1.097 1.896-2.698.041-4.088.071-8.177.105-12.265.011-1.357.123-1.501 1.397-1.922 2.704-.894 5.413-1.773 8.101-2.712.775-.271.984-.169.973.693-.079 6.472-.161 12.943-.374 19.414-.137 4.147-.026 8.302-.09 12.453-.047 3.065-.204 6.127-.292 9.192-.019.674-.368.983-.964 1.18-2.908.961-5.809 1.945-8.714 2.916-.953.319-.957.314-.898-.71.282-4.918.405-9.839.342-14.765-.002-.368.002-.737.002-1.104z"
     style="fill:#f9f9f9"
     id="path2" /><path
     d="M61.294 180.548c2.982-1.177 5.921-2.328 8.85-3.5.698-.279 1.247-.063 1.811.338 6.298 4.484 13.005 8.266 19.916 11.719 2.233 1.116 4.198 1.075 6.433-.005 13.823-6.683 26.248-15.307 36.986-26.313 4.661-4.777 8.9-9.905 12.691-15.399.53-.769 1.175-1.307 2.06-1.639 3.884-1.457 7.752-2.959 11.631-4.429.254-.096.565-.447.821-.099.235.319-.023.654-.194.941-5.014 8.398-10.674 16.323-17.25 23.58-13.183 14.549-28.908 25.521-46.827 33.452-2.163.957-3.918.993-6.144-.046-7.531-3.516-14.97-7.163-21.868-11.834-2.873-1.945-5.708-3.942-8.401-6.133-.183-.15-.418-.265-.515-.633zM177.846 37.923a21.634 21.634 0 0 0-3.434.034c-1.587.148-2.269-.453-2.064-2.026.263-2.018-.616-3.142-2.339-4.034-11.519-5.969-23.623-10.365-36.162-13.614-8.158-2.114-16.421-3.696-24.762-4.887-1.411-.202-1.676-.513-1.632-1.954.063-2.076.041-4.15 0-6.226-.026-1.309.348-1.629 1.638-1.381 12.733 2.445 25.502 4.72 37.882 8.716 10.517 3.395 20.669 7.62 30.396 12.884 3.061 1.656 4.374 4.126 4.332 7.485-.015 1.208.01 2.416.008 3.625-.002 1.142-.29 1.404-1.449 1.383-.805-.016-1.61-.005-2.414-.005zM83.035 8.52v3.067c-.001 1.304-.213 1.567-1.491 1.778-3.236.533-6.483 1.004-9.709 1.595-17.847 3.267-35.043 8.507-51.218 16.869-1.829.945-2.77 2.108-2.47 4.238.196 1.393-.488 2.016-1.925 1.897-2.013-.168-4.021-.114-6.034-.044-1.113.039-1.371-.227-1.37-1.34.001-1.332.012-2.664.008-3.996-.01-3.154 1.261-5.502 4.115-7.033 4.887-2.621 9.851-5.075 14.959-7.236 12.91-5.462 26.321-9.239 40.063-11.898 4.344-.84 8.69-1.669 13.034-2.507 1.797-.347 2.052-.132 2.038 1.73-.007.96-.001 1.92 0 2.88z"
     style="fill:#ffffff"
     id="path3" /><path
     d="M119.825 56.827c0-6.445-.002-12.891.001-19.336.001-2.166.422-2.7 2.504-3.266 2.153-.586 4.251-1.334 6.344-2.102 1.345-.493 1.819-.173 1.736 1.255-.309 5.295-.1 10.594-.186 15.891-.073 4.461-.122 8.921-.177 13.382-.019 1.539.195 1.709 1.673 1.213 6.897-2.314 13.788-4.646 20.684-6.965a23.868 23.868 0 0 1 1.959-.575c.744-.181 1.228.146 1.334.896.343 2.408.253 4.818-.085 7.218-.15 1.066-.959 1.55-1.869 1.866a900.19 900.19 0 0 1-7.823 2.668c-8.334 2.803-16.669 5.6-25.006 8.395-1.052.352-1.059.338-1.059-.737V56.829c-.011-.002-.02-.002-.03-.002z"
     style="fill:#f9f9f9"
     id="path4" /><path
     d="M8.848 75.793c0-3.377-.002-6.753.001-10.13.001-1.327.285-1.63 1.57-1.562 1.95.102 3.897.101 5.846-.003 1.461-.078 1.925.367 1.894 1.829-.101 4.707-.035 9.415-.114 14.123-.114 6.847.942 13.571 2.623 20.202 1.968 7.763 4.765 15.237 7.81 22.627.212.515.413 1.035.61 1.556.321.848.08 1.446-.795 1.759-1.077.386-2.156.77-3.228 1.17a64.47 64.47 0 0 0-2.243.887c-1.34.559-1.922.383-2.503-.966a153.811 153.811 0 0 1-2.592-6.363 168.671 168.671 0 0 1-8.369-30.196c-.502-2.811-.498-5.671-.482-8.522.012-2.137.002-4.275.002-6.412l-.03.001z"
     style="fill:#f9f9f9"
     id="path5" /><path
     d="M128.906 95.787c-.593.522-1.118.981-1.64 1.446-1.26 1.122-2.106 2.396-1.84 4.217.179 1.231-.725 1.748-1.702 2.115-2.667 1.001-5.338 1.99-8.008 2.981-16.659 6.186-33.32 12.368-49.977 18.558-8.096 3.009-16.187 6.033-24.282 9.045-1.507.561-1.836.432-2.605-.963-.299-.542-.606-1.082-.868-1.642-.696-1.487-.515-2.063 1.002-2.671 2.212-.886 4.456-1.693 6.69-2.524 17.7-6.584 35.404-13.156 53.1-19.753 9.633-3.591 19.25-7.222 28.874-10.838.382-.143.753-.193 1.256.029zM159.19 136.786c-.126.488-.416.559-.669.653-21.726 8.077-43.454 16.146-65.18 24.224a6348.452 6348.452 0 0 0-20.696 7.736c-2.454.922-3.837.518-5.112-1.325-.547-.791-1.392-1.375-2.209-2.155 1.851-.693 3.608-1.353 5.366-2.01 21.48-8.027 42.959-16.059 64.444-24.074 2.546-.95 4.968-2.224 7.66-2.803 2.779-.598 5.566-.891 8.382-.464 2.373.36 4.745.339 7.127.22.269-.013.539-.002.887-.002zM45.174 141.941c-.74-.019-1.188-.344-1.528-.808-.585-.8-1.13-1.632-1.545-2.534-.429-.932-.296-1.342.634-1.791 1.871-.904 3.857-1.526 5.8-2.25 22.165-8.256 44.335-16.496 66.501-24.75 2.901-1.08 5.779-2.223 8.676-3.315 1.425-.537 1.754-.289 1.846 1.232.064 1.05.074 2.117.286 3.139.188.91-.235 1.254-.939 1.517-2.146.8-4.292 1.601-6.439 2.399-17.295 6.428-34.591 12.854-51.885 19.284-6.761 2.514-13.519 5.038-20.28 7.552-.404.149-.83.24-1.127.325zM126.555 118.671c.026 2.473-.239 2.895-2.575 3.763-12.531 4.66-25.066 9.308-37.599 13.963-11.575 4.299-23.148 8.603-34.723 12.902-1.446.537-1.931.346-2.795-.923a32.44 32.44 0 0 0-2.005-2.673c-.493-.583-.292-.746.31-.968a4912.777 4912.777 0 0 0 17.063-6.328c16.675-6.211 33.35-12.425 50.024-18.64 3.45-1.286 6.895-2.586 10.345-3.872 1.423-.53 1.68-.378 1.854 1.107.065.554.069 1.113.101 1.669zM139.303 135.311l-13.012 4.832c-15.985 5.937-31.97 11.873-47.954 17.814-4.64 1.724-9.279 3.451-13.908 5.203-1.182.447-2.113.284-3.005-.674-.839-.901-1.826-1.667-2.758-2.48-.726-.633-.728-.675.165-1.007 8.267-3.072 16.54-6.127 24.801-9.215 14.782-5.524 29.565-11.047 44.326-16.626 2.213-.836 4.221-1.049 6.388.178 1.458.826 3.134 1.267 4.957 1.975zM56.324 156.634c-.746.028-1.3-.418-1.663-1.063a5.53 5.53 0 0 0-1.383-1.604c-.436-.353-.909-.719-.797-1.364.121-.7.676-1.044 1.293-1.195 2.958-.726 5.736-1.964 8.575-3.02 15.262-5.675 30.512-11.38 45.766-17.074 5.422-2.024 10.842-4.055 16.268-6.07 2.157-.801 2.489-.631 3.05 1.561.21.82.514 1.593.93 2.319.391.681.121 1.019-.523 1.254-5.815 2.123-11.636 4.228-17.439 6.383-17.295 6.424-34.583 12.869-51.874 19.304-.692.257-1.372.578-2.203.569z"
     style="fill:#f9f9f9"
     id="path6" /><path
     d="M181.245 73.441c0 2.602.007 5.204-.003 7.806-.004 1.223-.191 1.398-1.409 1.396-2.137-.003-4.273-.018-6.409.109-1.11.066-1.466-.276-1.468-1.398-.009-5.297-.006-10.594.01-15.891.003-1.086.306-1.342 1.419-1.344 2.199-.005 4.398-.009 6.596-.007 1.057.001 1.248.183 1.251 1.245.008 2.695.003 5.39.003 8.085l.01-.001z"
     style="fill:#f9f9f9"
     id="path7" /><path
     d="M95.295-.081c.915 1.838 1.746 3.453 2.521 5.096.267.565.59.823 1.241.893 1.597.171 3.182.456 4.771.698.205.031.485-.044.569.208.081.241-.16.381-.309.526-1.198 1.165-2.392 2.336-3.61 3.481-.349.328-.465.635-.373 1.126.35 1.877.642 3.765.982 5.808-1.778-.925-3.431-1.757-5.052-2.646-.52-.285-.918-.308-1.45-.014-1.621.894-3.277 1.724-5.007 2.625-.033-1.143.33-2.112.438-3.113.07-.644.125-1.31.335-1.914.399-1.143-.108-1.838-.926-2.542-1.031-.887-1.97-1.88-2.942-2.834-.144-.141-.383-.275-.264-.533.092-.199.32-.147.497-.174 1.651-.246 3.299-.517 4.955-.717.534-.065.816-.278 1.042-.749.8-1.674 1.64-3.329 2.582-5.225zM182.431 59.504c-1.761-.918-3.321-1.673-4.818-2.537-.71-.41-1.264-.413-1.968-.015-1.527.864-3.101 1.645-4.827 2.549.337-2.015.595-3.839.967-5.64.135-.655-.063-1.013-.49-1.448-1.253-1.279-2.452-2.61-3.685-3.934.466-.302 1.196-.238 1.864-.361 1.123-.206 2.263-.321 3.399-.452.569-.065.932-.301 1.191-.853.786-1.675 1.638-3.32 2.553-5.153.843 1.698 1.659 3.212 2.347 4.781.373.851.897 1.188 1.805 1.28 1.676.169 3.339.475 5.143.744-.929.941-1.645 1.908-2.58 2.563-1.853 1.299-2.172 2.906-1.539 4.954.329 1.076.412 2.228.638 3.522zM7.801 59.707c.304-1.785.565-3.58.933-5.353.135-.648-.048-1.028-.482-1.457-1.312-1.297-2.584-2.634-3.916-4.001 1.811-.27 3.593-.584 5.387-.777.722-.078 1.087-.37 1.38-.996.754-1.616 1.57-3.203 2.466-5.014.885 1.779 1.713 3.354 2.452 4.969.304.665.662.971 1.424 1.05 1.767.182 3.52.504 5.251.765-1.252 1.323-2.433 2.658-3.715 3.888-.54.518-.718.957-.558 1.689.329 1.507.557 3.036.808 4.56.036.221.176.521-.088.674-.205.119-.407-.087-.593-.183-1.401-.725-2.817-1.425-4.187-2.206-.592-.337-1.049-.299-1.619.02-1.322.74-2.676 1.424-4.024 2.116-.261.132-.498.38-.919.256z"
     style="fill:#ffffff"
     id="path8" /><path
     d="M65.543 172.606c-1.328.536-2.521 1.026-3.72 1.501-1.637.648-3.281 1.278-4.915 1.931-.594.237-1.153.266-1.642-.192-1.484-1.393-2.956-2.798-4.442-4.206.325-.373.745-.412 1.108-.554 2.359-.921 4.73-1.812 7.081-2.755.754-.302 1.316-.213 1.931.341 1.465 1.315 2.989 2.564 4.599 3.934zM52.726 161.456c.722-.033 1.145.215 1.507.572a257.014 257.014 0 0 1 3.223 3.214c.665.679.608.991-.277 1.334-2.395.929-4.801 1.827-7.203 2.736-.745.282-1.383.153-1.934-.452a215.421 215.421 0 0 0-3.412-3.673c-.395-.413-.383-.587.183-.797 2.437-.902 4.859-1.847 7.29-2.768.256-.097.533-.142.623-.166zM43.044 162.199c-.662-.03-1.224-.263-1.683-.713-1.001-.982-1.739-2.167-2.518-3.318-.303-.448-.198-.829.331-1.03 2.369-.897 4.735-1.805 7.115-2.673.63-.23 1.23-.052 1.678.476 1.02 1.202 2.028 2.414 3.049 3.616.364.428.365.826-.181 1.027-2.462.908-4.858 2.009-7.438 2.577-.121.026-.246.027-.353.038zM35.452 136.296c-.021.638-.358 1.062-.947 1.233-2.23.645-4.4 1.452-6.542 2.34-.508.211-.891.059-1.18-.409-.699-1.131-1.416-2.246-2.224-3.308-.645-.848-.492-1.547.467-1.951 2.078-.877 4.183-1.69 6.239-2.624.575-.261 1.172-.152 1.577.409a176.748 176.748 0 0 1 2.247 3.18c.227.33.376.71.363 1.13zM36.243 139.297c.569-.021.908.236 1.162.611.659.972 1.329 1.938 1.951 2.935.916 1.468.617 2.332-1.035 2.744-1.987.495-3.91 1.166-5.807 1.916-.706.279-1.167.165-1.534-.513a31.185 31.185 0 0 0-2.026-3.217c-.605-.852-.47-1.524.433-1.9 2.139-.891 4.316-1.69 6.481-2.519.14-.055.304-.048.375-.057zM41.01 147.475c.813-.014 1.369.427 1.855.968.912 1.015 1.686 2.137 2.479 3.245.259.361.277.554-.199.731-2.377.887-4.737 1.817-7.117 2.694-.644.237-1.312.158-1.789-.408-.837-.994-1.636-2.021-2.249-3.174-.31-.584-.347-1.202.277-1.556 2.111-1.197 4.392-1.953 6.743-2.5z"
     style="fill:#f9f9f9"
     id="path9" /></svg>
