<svg xmlns="http://www.w3.org/2000/svg" viewBox="0 0 200 200"><path d="M2.822 77.256c.317-1.559.66-3.123 1.148-4.618.628-1.921.952-3.941 1.87-5.783.213-.429.432-.985.458-1.551.024-.533.497-.89.693-1.401.84-2.193 1.716-4.376 2.785-6.479 1.279-2.515 2.493-5.063 3.934-7.49 1.656-2.789 3.315-5.586 5.267-8.177 1.29-1.713 2.532-3.469 3.91-5.112 1.259-1.502 2.606-2.933 3.955-4.357 1.042-1.1 1.924-2.357 3.1-3.319 2.154-1.764 4.048-3.811 6.229-5.554 1.041-.832 2.194-1.552 3.116-2.53.577-.613 1.414-.804 2.01-1.388 1.942-1.902 4.435-2.999 6.661-4.488 1.861-1.245 3.787-2.355 5.85-3.243.996-.429 1.859-1.167 2.854-1.601 1.977-.864 3.85-1.992 5.974-2.501 1.266-.303 2.359-1.023 3.56-1.44.821-.285 1.624-.655 2.501-.841 1.297-.275 2.553-.752 3.816-1.175 1.1-.369 2.287-.459 3.35-.855 1.433-.536 3.037-.181 4.387-.993.151-.091.386-.05.583-.054.986-.018 1.868-.439 2.785-.718.25-.076.492-.097.743-.111 1.275-.075 2.549-.13 3.766-.606.298-.116.67-.079 1.005-.057C91.11.939 93.098.786 95.018.45c3.11-.544 6.229-.414 9.299-.188 2.442.18 4.91.297 7.336.626 1.651.224 3.302.448 4.952.676.636.088 1.507.027 2.036.685.049.061.215.032.327.04 1.631.112 3.197.496 4.74 1.033.541.188 1.149.123 1.727.292 1.763.515 3.559.916 5.325 1.421 1.133.324 2.391.567 3.317 1.166.923.598 1.942.862 2.886 1.25.833.343 1.717.703 2.591 1.004 1.229.424 2.421 1.009 3.588 1.643 1.646.893 3.304 1.801 5.066 2.475a.467.467 0 01.199.152c.739 1.015 1.945 1.253 2.993 1.716.342.151.553.392.826.578 1.259.856 2.599 1.579 3.882 2.393 1.098.697 2.115 1.523 3.161 2.301 1.157.861 2.305 1.733 3.458 2.599.021.016.068.006.079.024 1.254 2.072 3.741 2.743 5.211 4.559 1 1.236 2.277 2.163 3.412 3.243 1.197 1.138 2.071 2.62 3.355 3.68 1.768 1.46 2.694 3.571 4.247 5.195 1.741 1.821 2.98 4.023 4.405 6.085.649.938 1.357 1.851 1.951 2.823.795 1.301 1.348 2.76 2.217 4.004.901 1.289 1.532 2.697 2.219 4.082.48.968.965 1.935 1.215 3.02.174.755.543 1.535 1.038 2.127.532.637.767 1.403.974 2.095.351 1.171 1.035 2.206 1.271 3.399.214 1.078.689 2.072.983 3.125.308 1.103.68 2.229 1.097 3.322.498 1.304.655 2.731 1.051 4.069.365 1.232.365 2.543.923 3.73.167.355.101.828.111 1.247.024 1.029.182 2.019.576 2.986.16.393.089.886.097 1.334.028 1.478.09 2.949.589 4.365.054.154.051.332.054.5.072 3.337.271 6.679.17 10.011-.08 2.663-.001 5.332-.209 7.986-.063.807-.306 1.619-.429 2.44-.104.697-.095 1.393-.179 2.083-.23 1.882-.53 3.752-1.022 5.589-.157.585-.218 1.219-.261 1.812-.095 1.311-.785 2.484-.769 3.804.002.124-.068.307-.164.366-.823.506-.509 1.36-.678 2.071a34.474 34.474 0 01-.808 2.855c-.349 1.053-.64 2.154-1.179 3.11-.782 1.388-.662 3.084-1.475 4.361-.657 1.033-.862 2.277-1.737 3.195-.518.543-.31 1.427-.684 2.113-.729 1.337-1.341 2.737-2.002 4.11-.06.124-.093.306-.193.36-1.089.579-1.23 1.724-1.647 2.705-.043.101-.045.245-.119.302-1.28 1.001-1.274 2.793-2.35 3.873-.876.879-1.398 1.95-2.059 2.949-.44.665-.856 1.348-1.32 1.997-.32.448-.627.904-1.242 1.063-.341.088-.562.408-.631.821-.107.646-.428 1.195-.895 1.669-1.014 1.029-1.898 2.171-2.938 3.19-1.233 1.209-2.245 2.645-3.467 3.88-1.44 1.457-2.78 3.072-4.577 4.076-1.15.642-1.925 1.554-2.725 2.499a9.438 9.438 0 01-1.788 1.627c-.807.569-1.546 1.232-2.325 1.841-.499.39-.969.851-1.679.828-.288-.009-.432.232-.624.39-.484.398-.823 1.016-1.584 1.003-.124-.002-.307.175-.369.312-.683 1.522-2.303 1.823-3.496 2.669-1.189.843-2.449 1.596-3.92 1.878-.292.813-1.043 1.057-1.725 1.384-1.192.573-2.436 1.021-3.657 1.517-.727.295-1.487.626-2.211.983-1.372.676-2.502 1.796-4.127 2.055-.718.115-1.494.246-2.174.491-.596.215-1.244.447-1.782.757-1.165.673-2.491.824-3.674 1.374-1.158.539-2.449.623-3.603 1.148-.471.214-.982.112-1.477.242-1.303.342-2.65.546-3.957.851-1.556.363-3.148.494-4.698.917-1.221.333-2.566.181-3.838.367-4.983.727-9.995.749-15.008.623-1.82-.046-3.67-.019-5.455-.292-1.905-.292-3.83-.344-5.71-.666-1.395-.239-2.811-.368-4.183-.662-1.88-.403-3.821-.675-5.605-1.36-.917-.352-1.79-.492-2.717-.589-.193-.02-.342-.038-.454-.275-.147-.31-.485-.434-.831-.481-1.753-.241-3.434-.757-5.063-1.422-1.461-.596-2.973-1.034-4.386-1.802-.93-.505-1.864-1.022-2.793-1.54a.535.535 0 00-.235-.082c-1.349-.012-2.469-.671-3.632-1.237-1.777-.864-3.59-1.723-5.142-2.909-1.037-.792-2.289-.99-3.305-1.776a66.681 66.681 0 00-5.706-3.94c-1.423-.881-2.581-2.058-3.886-3.066-.367-.283-.818-.609-.952-1.008-.215-.641-.601-.777-1.173-.811-.381-.023-.709-.277-.909-.562-1.073-1.528-2.791-2.348-4.014-3.709-2.223-2.473-4.568-4.83-6.729-7.37-1.385-1.627-2.517-3.436-3.938-5.01-1.402-1.552-2.36-3.387-3.549-5.071-1.538-2.181-2.966-4.46-4.011-6.915-.333-.782-.812-1.534-.991-2.424-.115-.57-.698-1.017-.971-1.629-.659-1.481-1.799-2.758-1.83-4.497a.553.553 0 00-.196-.446c-.866-.719-1.055-1.738-1.132-2.764-.044-.581-.593-.841-.702-1.213-.259-.877-.8-1.612-1.035-2.503-.256-.972-.45-1.985-.931-2.895-.227-.43-.131-.926-.236-1.39-.212-.937-.678-1.815-.64-2.816.022-.577-.011-1.128-.478-1.631-.335-.361-.139-.972-.185-1.47-.044-.481-.063-.962-.579-1.199-.211-.097-.161-.267-.177-.426-.234-2.463-.785-4.879-1.077-7.34-.251-2.115-.632-4.209-.626-6.35.001-.198.136-.571-.336-.446V95.758c.544-.557.222-1.272.324-1.906.106-.659-.003-1.35.059-2.019.222-2.394.551-4.773.911-7.151.153-1.012.411-2.014.486-3.051m196.32 18.579c.033-3.657-.062-7.295-.506-10.946-.275-2.257-.772-4.497-.846-6.781-.005-.139.019-.313-.053-.411-.573-.788-.643-1.708-.779-2.626-.121-.813-.413-1.601-.531-2.414-.148-1.017-.623-1.95-.758-2.947-.154-1.136-.573-2.189-.894-3.258-.456-1.515-.769-3.102-1.64-4.483-.466-.738-.556-1.643-.897-2.451-.247-.586-.746-1.056-.806-1.735-.179-2.015-1.417-3.642-2.246-5.374-.55-1.15-1.345-2.288-1.943-3.46-.967-1.896-1.995-3.763-3.142-5.539-1.186-1.836-2.344-3.696-3.699-5.437-1.832-2.354-3.665-4.703-5.582-6.99-1.035-1.235-2.293-2.259-3.326-3.473-1.476-1.735-3.264-3.127-4.846-4.74-1.585-1.616-3.488-2.871-5.218-4.325-2.165-1.821-4.645-3.24-6.935-4.899-1.784-1.293-3.845-2.079-5.586-3.417-1.137-.875-2.605-1.076-3.837-1.903-1.518-1.019-3.41-1.475-5.045-2.389-1.317-.736-2.798-1.073-4.184-1.65-1.281-.534-2.651-.855-3.935-1.38-1.047-.429-2.164-.582-3.212-1.075-1.195-.562-2.571-.759-3.883-1.049-2.182-.482-4.365-.975-6.567-1.348a121.71 121.71 0 00-7.181-.973c-2.386-.259-4.806-.192-7.212-.381-3.419-.267-6.836.142-10.252.292-1 .044-1.991.084-2.996.232-1.925.283-3.883.388-5.786.803-1.019.222-2.071.154-3.055.415-1.679.447-3.412.613-5.071 1.201-1.391.493-2.887.658-4.272 1.259-1.099.477-2.309.69-3.446 1.088a114.3 114.3 0 00-5.293 1.971c-.71.288-1.535.419-2.116.848-.844.624-1.828.859-2.727 1.299-1.217.595-2.445 1.17-3.647 1.798-1.008.527-1.955 1.157-2.933 1.733a48.389 48.389 0 01-2.87 1.591c-1.537.772-2.87 1.902-4.28 2.886-1.73 1.207-3.491 2.378-5.052 3.838-1.641 1.535-3.586 2.735-5.121 4.402-.828.899-1.817 1.622-2.666 2.491-1.444 1.478-2.918 2.936-4.251 4.51-1.84 2.174-3.716 4.322-5.426 6.604-.974 1.299-1.82 2.683-2.834 3.962a17.308 17.308 0 00-2.169 3.54c-.723 1.582-2.084 2.767-2.687 4.44-.428 1.187-.991 2.339-1.619 3.436-.398.696-.47 1.502-.978 2.163-.675.88-1.337 1.813-1.36 3.01-.001.073-.081.143-.122.215-.76 1.366-1.201 2.857-1.743 4.312-.422 1.132-.687 2.314-1.173 3.419-.732 1.664-1.183 3.417-1.596 5.174-.297 1.26-.521 2.556-.848 3.791-.51 1.929-.736 3.9-1.111 5.84-.344 1.784-.667 3.637-.674 5.442-.011 3.007-.666 5.954-.602 8.954.019.899.119 1.82-.036 2.692-.134.752-.105 1.547.137 2.126.615 1.47.325 2.956.37 4.423.044 1.43.325 2.823.466 4.234.196 1.95.657 3.873.908 5.82.177 1.375.47 2.746.832 4.05.401 1.447.746 2.929 1.093 4.376.458 1.912 1.341 3.641 1.874 5.505.421 1.471.979 2.904 1.514 4.34.382 1.026.672 2.136 1.283 3.013.737 1.059 1.094 2.277 1.752 3.364.781 1.288 1.187 2.808 1.994 4.076.984 1.546 1.715 3.232 2.825 4.716.686.918 1.195 2 1.839 2.973.338.511.842.918 1.156 1.441.539.899 1.084 1.781 1.722 2.621.764 1.006 1.658 1.907 2.4 2.914 1.49 2.02 3.189 3.849 4.918 5.648 1.769 1.842 3.557 3.668 5.5 5.341.915.788 1.906 1.464 2.75 2.388 1.435 1.571 3.397 2.587 5.027 3.989 1.886 1.623 4.109 2.788 6.18 4.151 2.5 1.645 5.218 2.967 7.879 4.356 1.441.752 2.971 1.332 4.445 2.023 1.797.843 3.723 1.356 5.517 2.21 1.011.481 2.124.721 3.178 1.092 2.128.749 4.322 1.247 6.484 1.86 1.791.508 3.669.681 5.452 1.261 1.555.506 3.201.629 4.796.869 2.276.343 4.598.635 6.896.689 6.02.141 12.041.356 18.059-.46 2.17-.294 4.353-.618 6.538-.864 1.325-.149 2.605-.682 3.95-.934a51.037 51.037 0 004.887-1.186c1.13-.33 2.272-.623 3.392-.984 1.06-.342 2.099-.837 3.146-1.107 1.208-.312 2.316-.848 3.437-1.29 2.756-1.086 5.565-2.105 8.076-3.734.63-.409 1.41-.504 2.008-.906 1.802-1.212 3.95-1.821 5.599-3.304.722-.649 1.673-1.003 2.478-1.536 1.781-1.18 3.499-2.463 5.184-3.779 1.512-1.18 3.058-2.31 4.449-3.66 1.329-1.29 2.852-2.382 4.127-3.75 1.16-1.245 2.476-2.356 3.554-3.665 1.398-1.696 2.851-3.343 4.262-5.027 1.165-1.391 2.341-2.782 3.43-4.223 1.071-1.416 2.116-2.882 2.901-4.507.515-1.065 1.507-1.876 1.992-2.915.843-1.806 1.996-3.439 2.763-5.28.66-1.584 1.652-3 2.299-4.605a444.928 444.928 0 002.346-5.95c.383-.991.828-1.963 1.139-2.976.547-1.783.976-3.604 1.504-5.389.65-2.196 1.099-4.427 1.525-6.664.089-.47.514-.684.521-1.157.022-1.394.506-2.739.603-4.1.181-2.558.644-5.086.736-7.646.067-2.019.009-4.044.009-6.068z" fill="#056ca4"/><path d="M198.097 100.21c0 2.024.058 4.05-.015 6.071-.092 2.559-.554 5.088-.736 7.646-.097 1.361-.581 2.707-.603 4.1-.007.473-.432.687-.521 1.157-.426 2.237-.875 4.468-1.525 6.664-.528 1.784-.956 3.606-1.504 5.389-.311 1.013-.756 1.985-1.139 2.976a453.262 453.262 0 01-2.346 5.95c-.647 1.605-1.639 3.021-2.299 4.605-.766 1.841-1.92 3.474-2.763 5.28-.485 1.038-1.477 1.85-1.992 2.915-.785 1.625-1.83 3.091-2.901 4.507-1.09 1.441-2.265 2.833-3.43 4.223-1.411 1.684-2.863 3.331-4.262 5.027-1.079 1.309-2.394 2.42-3.554 3.665-1.275 1.368-2.798 2.46-4.127 3.75-1.391 1.35-2.937 2.48-4.449 3.66-1.685 1.316-3.403 2.599-5.184 3.779-.805.533-1.757.887-2.478 1.536-1.648 1.483-3.797 2.092-5.599 3.304-.597.402-1.377.497-2.008.906-2.511 1.628-5.32 2.648-8.076 3.734-1.121.442-2.229.978-3.437 1.29-1.047.27-2.086.765-3.146 1.107-1.12.361-2.262.654-3.392.984-1.611.47-3.251.88-4.887 1.186-1.345.252-2.625.785-3.95.934-2.185.246-4.368.57-6.538.864-6.017.816-12.039.601-18.059.46-2.297-.054-4.619-.346-6.896-.689-1.595-.24-3.241-.363-4.796-.869-1.783-.58-3.661-.753-5.452-1.261-2.162-.613-4.356-1.111-6.484-1.86-1.054-.371-2.168-.611-3.178-1.092-1.794-.854-3.72-1.368-5.517-2.21-1.474-.691-3.004-1.272-4.445-2.023-2.662-1.389-5.38-2.711-7.879-4.356-2.071-1.362-4.293-2.528-6.18-4.151-1.63-1.402-3.592-2.419-5.027-3.989-.844-.924-1.835-1.6-2.75-2.388-1.943-1.673-3.73-3.499-5.5-5.341-1.729-1.8-3.428-3.628-4.918-5.648-.742-1.007-1.636-1.908-2.4-2.914-.638-.839-1.183-1.722-1.722-2.621-.313-.523-.817-.929-1.156-1.441-.644-.973-1.153-2.056-1.839-2.973-1.11-1.484-1.841-3.17-2.825-4.716-.807-1.268-1.213-2.787-1.994-4.076-.659-1.087-1.015-2.304-1.752-3.364-.611-.878-.901-1.988-1.283-3.013-.535-1.436-1.093-2.869-1.514-4.34-.533-1.865-1.416-3.593-1.874-5.505-.346-1.447-.692-2.929-1.093-4.376a29.477 29.477 0 01-.832-4.05c-.251-1.947-.712-3.869-.908-5.82-.142-1.411-.422-2.803-.466-4.234-.045-1.467.245-2.953-.37-4.423-.242-.579-.271-1.374-.137-2.126.155-.872.055-1.793.036-2.692-.064-3 .591-5.947.602-8.954.007-1.805.33-3.658.674-5.442.375-1.94.601-3.911 1.111-5.84.327-1.235.551-2.532.848-3.791.413-1.757.864-3.51 1.596-5.174.486-1.105.752-2.287 1.173-3.419.542-1.455.983-2.946 1.743-4.312.041-.073.12-.143.122-.215.023-1.197.685-2.13 1.36-3.01.507-.662.58-1.468.978-2.163.627-1.097 1.191-2.249 1.619-3.436.603-1.674 1.964-2.859 2.687-4.44a17.308 17.308 0 012.169-3.54c1.014-1.279 1.861-2.663 2.834-3.962 1.71-2.282 3.586-4.431 5.426-6.604 1.333-1.575 2.807-3.032 4.251-4.51.849-.869 1.839-1.592 2.666-2.491 1.535-1.667 3.48-2.868 5.121-4.402 1.561-1.46 3.323-2.63 5.052-3.838 1.41-.984 2.743-2.114 4.28-2.886a48.707 48.707 0 002.87-1.591c.977-.576 1.924-1.206 2.933-1.733 1.202-.628 2.429-1.204 3.647-1.798.9-.439 1.883-.675 2.727-1.299.58-.429 1.406-.56 2.116-.848a116.648 116.648 0 015.293-1.971c1.137-.397 2.347-.611 3.446-1.088 1.386-.601 2.882-.766 4.272-1.259 1.659-.588 3.392-.754 5.071-1.201.984-.262 2.036-.193 3.055-.415 1.903-.415 3.861-.52 5.786-.803 1.005-.148 1.997-.188 2.996-.232 3.417-.15 6.834-.559 10.252-.292 2.405.188 4.826.122 7.212.381 2.397.26 4.8.57 7.181.973 2.202.372 4.385.866 6.567 1.348 1.312.29 2.689.486 3.883 1.049 1.048.493 2.165.646 3.212 1.075 1.285.526 2.654.847 3.935 1.38 1.385.577 2.867.914 4.184 1.65 1.635.914 3.527 1.37 5.045 2.389 1.232.827 2.699 1.028 3.837 1.903 1.741 1.339 3.802 2.125 5.586 3.417 2.29 1.659 4.77 3.078 6.935 4.899 1.73 1.455 3.633 2.709 5.218 4.325 1.582 1.613 3.37 3.005 4.846 4.74 1.033 1.214 2.291 2.238 3.326 3.473 1.916 2.287 3.75 4.636 5.582 6.99 1.355 1.741 2.513 3.601 3.699 5.437 1.147 1.776 2.175 3.643 3.142 5.539.598 1.172 1.393 2.31 1.943 3.46.829 1.733 2.067 3.36 2.246 5.374.06.679.56 1.15.806 1.735.341.809.431 1.713.897 2.451.871 1.381 1.184 2.967 1.64 4.483.322 1.069.74 2.122.894 3.258.135.997.61 1.93.758 2.947.118.813.41 1.601.531 2.414.137.919.207 1.839.779 2.626.072.098.048.272.053.411.074 2.284.571 4.523.846 6.781.45 3.647.545 7.286.512 10.943zm-2.159.526c.045-3.902.022-7.289-.389-10.661-.017-.139-.015-.282-.041-.419-.38-1.985-.617-3.997-.852-5.995-.182-1.552-.544-3.069-.87-4.565-.442-2.026-.824-4.091-1.66-6.044-.667-1.559-.948-3.277-1.5-4.891-.574-1.677-1.142-3.376-1.945-4.948-.71-1.39-1.22-2.857-1.919-4.24-.479-.948-.712-2.132-1.386-2.828-.963-.994-.796-2.452-1.864-3.405-.458-.409-.773-1.344-1.191-1.998-1.028-1.609-2.023-3.236-3.152-4.792-1.516-2.089-2.959-4.224-4.589-6.239a86.18 86.18 0 00-4.696-5.311c-1.116-1.168-2.142-2.429-3.421-3.44-.539-.426-1.158-.823-1.53-1.374-.934-1.38-2.454-2.07-3.597-3.211-.955-.953-2.107-1.769-3.225-2.585-1.581-1.154-3.131-2.348-4.8-3.376-.327-.201-.671-.383-.972-.619-1.239-.971-2.565-1.786-3.973-2.503-1.36-.692-2.797-1.31-4.037-2.141-1.184-.794-2.432-1.379-3.695-1.939-2.571-1.14-5.195-2.165-7.811-3.201-1.045-.414-2.105-.836-3.198-1.072-1.906-.411-3.742-1.067-5.639-1.519-1.513-.36-3.056-.72-4.558-1.228-1.314-.445-2.813-.573-4.234-.764a204.99 204.99 0 00-5.462-.67 65.548 65.548 0 00-5.187-.328c-4.959-.134-9.92-.172-14.857.511-1.549.214-3.117.286-4.672.469-.712.084-1.416.256-2.114.43-1.258.314-2.49.787-3.765.963-2.197.304-4.35.868-6.423 1.534-2.443.784-5.034 1.195-7.305 2.535-.926.547-2.017.811-3.019 1.237-1.854.786-3.764 1.475-5.525 2.435-1.403.765-2.762 1.631-4.196 2.345-1.914.952-3.63 2.209-5.416 3.357-1.92 1.234-3.85 2.469-5.566 3.988-.536.474-1.144.825-1.716 1.236-1.657 1.188-2.943 2.797-4.552 4.042-.843.652-1.464 1.502-2.101 2.335-.722.943-1.824 1.443-2.623 2.29-.63.667-1.343 1.28-1.853 2.03-.654.96-1.627 1.586-2.338 2.495-.635.813-1.153 1.706-1.823 2.492-.997 1.171-2.018 2.319-2.844 3.634-1.11 1.767-2.33 3.463-3.494 5.197-1.374 2.048-2.256 4.366-3.61 6.439-.912 1.396-1.468 3.035-2.103 4.597-.635 1.562-1.303 3.109-1.858 4.711-.416 1.201-1.127 2.349-1.508 3.612-.356 1.179-.874 2.322-1.101 3.523-.388 2.059-.976 4.076-1.518 6.081-.504 1.865-.947 3.754-1.259 5.633-.349 2.101-.509 4.25-.774 6.376-.207 1.658-.197 3.344-.267 5.008-.136 3.208-.202 6.426.111 9.653.244 2.519.399 5.047.671 7.57.206 1.91.716 3.763.858 5.68.041.548.106 1.206.364 1.681.642 1.182.656 2.509 1.024 3.748.318 1.073.621 2.167.851 3.277.253 1.22.874 2.361 1.176 3.575.608 2.445 1.719 4.688 2.622 7.016.566 1.459 1.411 2.775 1.911 4.283.458 1.38 1.474 2.552 2.172 3.868 1.036 1.955 2.105 3.91 3.464 5.685.566.74.905 1.652 1.448 2.414.847 1.188 1.704 2.368 2.624 3.51 1.496 1.856 2.831 3.855 4.567 5.499 1.423 1.348 2.598 2.914 4.03 4.257 1.209 1.133 2.497 2.182 3.628 3.414 1.023 1.114 2.365 1.919 3.441 3.011 1.332 1.352 2.838 2.512 4.419 3.542 1.099.716 2.102 1.548 3.169 2.299.791.557 1.65.993 2.458 1.517 1.128.732 2.288 1.418 3.435 2.111 1.682 1.016 3.5 1.811 5.272 2.675 1.821.887 3.579 1.922 5.509 2.559 2.153.711 4.213 1.675 6.446 2.18 1.538.348 2.956 1.11 4.505 1.517 1.568.413 3.141.836 4.718 1.19 2.507.562 5.044 1.093 7.597 1.32 2.806.249 5.593.749 8.419.753 3.884.005 7.77.023 11.653-.051 1.303-.025 2.611-.23 3.91-.388 2.006-.244 4.012-.5 6.009-.838 1.419-.24 2.81-.617 4.236-.839 1.258-.196 2.529-.534 3.778-.875.983-.268 2-.448 2.942-.818 1.656-.651 3.309-1.297 5.035-1.74.162-.042.358-.002.496-.078 2.033-1.104 4.325-1.572 6.354-2.74 2.624-1.511 5.556-2.427 8.091-4.173 1.093-.753 2.34-1.337 3.492-2.046 1.797-1.104 3.633-2.144 5.272-3.488 1.301-1.066 2.817-1.853 4.007-3.067 1.22-1.243 2.655-2.227 4.037-3.271.334-.252.345-.651.674-.897.728-.545 1.398-1.168 2.085-1.766 1.752-1.525 3.208-3.342 4.716-5.079 1.734-1.998 3.42-4.06 5.001-6.199a105.274 105.274 0 005.05-7.472c.873-1.42 1.933-2.754 2.602-4.262.988-2.226 2.157-4.362 3.097-6.619a263.774 263.774 0 002.742-6.866c.697-1.815 1.142-3.704 1.909-5.507.754-1.773 1.03-3.76 1.426-5.672.398-1.918.711-3.854 1.014-5.79.256-1.641.521-3.287.641-4.941.152-2.089.519-4.162.427-6.271-.057-1.26-.012-2.527-.012-3.28z" fill="#fccb04"/><path d="M195.938 100.736c0 .753-.045 2.02.01 3.282.093 2.109-.275 4.183-.427 6.271-.12 1.654-.385 3.3-.641 4.941-.302 1.936-.616 3.872-1.014 5.79-.396 1.912-.672 3.898-1.426 5.672-.767 1.803-1.212 3.692-1.909 5.507a265.197 265.197 0 01-2.742 6.866c-.939 2.257-2.109 4.393-3.097 6.619-.669 1.508-1.73 2.842-2.602 4.262a105.504 105.504 0 01-5.05 7.472 101.511 101.511 0 01-5.001 6.199c-1.508 1.737-2.964 3.555-4.716 5.079-.687.598-1.357 1.221-2.085 1.766-.329.246-.34.644-.674.897-1.381 1.044-2.817 2.028-4.037 3.271-1.191 1.214-2.707 2-4.007 3.067-1.64 1.344-3.476 2.383-5.272 3.488-1.152.708-2.4 1.293-3.492 2.046-2.535 1.746-5.467 2.662-8.091 4.173-2.028 1.168-4.321 1.635-6.354 2.74-.138.075-.334.036-.496.078-1.726.443-3.379 1.089-5.035 1.74-.942.37-1.959.55-2.942.818-1.249.341-2.52.679-3.778.875-1.426.222-2.817.598-4.236.839-1.997.338-4.004.594-6.009.838-1.298.158-2.607.363-3.91.388-3.883.075-7.769.056-11.653.051-2.826-.004-5.613-.504-8.419-.753-2.553-.227-5.09-.758-7.597-1.32-1.577-.354-3.151-.777-4.718-1.19-1.549-.408-2.967-1.169-4.505-1.517-2.233-.505-4.293-1.47-6.446-2.18-1.929-.637-3.688-1.672-5.509-2.559-1.772-.864-3.59-1.658-5.272-2.675-1.147-.693-2.307-1.38-3.435-2.111-.807-.524-1.667-.96-2.458-1.517-1.067-.751-2.069-1.583-3.169-2.299-1.581-1.03-3.087-2.19-4.419-3.542-1.076-1.092-2.418-1.897-3.441-3.011-1.132-1.232-2.419-2.28-3.628-3.414-1.432-1.343-2.607-2.909-4.03-4.257-1.735-1.644-3.07-3.643-4.567-5.499-.92-1.142-1.777-2.321-2.624-3.51-.543-.762-.881-1.673-1.448-2.414-1.359-1.776-2.428-3.731-3.464-5.685-.697-1.316-1.714-2.488-2.172-3.868-.5-1.508-1.345-2.824-1.911-4.283-.903-2.328-2.014-4.571-2.622-7.016-.302-1.215-.923-2.355-1.176-3.575a40.052 40.052 0 00-.851-3.277c-.368-1.239-.383-2.566-1.024-3.748-.258-.475-.323-1.133-.364-1.681-.143-1.917-.652-3.769-.858-5.68-.272-2.523-.426-5.05-.671-7.57-.313-3.226-.246-6.445-.111-9.653.07-1.664.061-3.35.267-5.008.265-2.126.425-4.275.774-6.376.312-1.879.754-3.768 1.259-5.633.542-2.005 1.13-4.022 1.518-6.081.226-1.201.745-2.344 1.101-3.523.382-1.264 1.092-2.412 1.508-3.612.555-1.602 1.223-3.149 1.858-4.711.635-1.563 1.191-3.201 2.103-4.597 1.354-2.073 2.236-4.392 3.61-6.439 1.163-1.733 2.384-3.43 3.494-5.197.827-1.316 1.847-2.464 2.844-3.634.67-.786 1.187-1.679 1.823-2.492.711-.909 1.684-1.535 2.338-2.495.511-.749 1.224-1.362 1.853-2.03.8-.847 1.901-1.347 2.623-2.29.637-.833 1.258-1.683 2.101-2.335 1.609-1.245 2.895-2.854 4.552-4.042.573-.411 1.18-.762 1.716-1.236 1.716-1.518 3.646-2.754 5.566-3.988 1.786-1.147 3.502-2.405 5.416-3.357 1.434-.713 2.793-1.579 4.196-2.345 1.761-.96 3.671-1.649 5.525-2.435 1.002-.425 2.092-.69 3.019-1.237 2.271-1.34 4.861-1.751 7.305-2.535 2.073-.665 4.226-1.229 6.423-1.534 1.275-.177 2.507-.65 3.765-.963.697-.174 1.402-.346 2.114-.429 1.554-.183 3.123-.254 4.672-.469 4.936-.683 9.898-.645 14.857-.511 1.728.047 3.47.144 5.187.328 1.822.195 3.645.425 5.462.67 1.421.191 2.919.32 4.234.764 1.502.508 3.045.868 4.558 1.228 1.897.451 3.733 1.107 5.639 1.519 1.093.236 2.153.658 3.198 1.072 2.616 1.036 5.239 2.061 7.811 3.201 1.263.56 2.511 1.145 3.695 1.939 1.239.831 2.677 1.448 4.037 2.141 1.408.717 2.733 1.532 3.973 2.503.301.236.645.417.972.619 1.669 1.028 3.219 2.222 4.8 3.376 1.118.816 2.27 1.632 3.225 2.585 1.143 1.141 2.664 1.831 3.597 3.211.373.551.991.948 1.53 1.374 1.279 1.01 2.305 2.272 3.421 3.44a85.888 85.888 0 014.696 5.311c1.63 2.014 3.073 4.149 4.589 6.239 1.129 1.556 2.124 3.183 3.152 4.792.418.654.733 1.589 1.191 1.998 1.068.953.901 2.41 1.864 3.405.674.696.907 1.88 1.386 2.828.699 1.383 1.209 2.85 1.919 4.24.803 1.572 1.371 3.271 1.945 4.948.552 1.614.834 3.332 1.5 4.891.835 1.953 1.217 4.018 1.66 6.044.327 1.497.688 3.013.87 4.565.235 1.999.472 4.011.852 5.995.026.137.024.28.041.419.413 3.369.436 6.756.391 10.658zm-95.839 69.709c2.969.085 5.941.132 8.87-.463 1.055-.215 2.138-.068 3.182-.276 1.945-.386 3.881-.819 5.811-1.273a45.636 45.636 0 003.158-.884c1.036-.323 2.026-.856 3.023-1.171 1.974-.624 3.808-1.558 5.728-2.283a18.81 18.81 0 003.879-1.986c1.26-.85 2.638-1.529 3.983-2.249 1.664-.89 2.99-2.247 4.577-3.25 1.308-.826 2.422-1.932 3.63-2.894 1.531-1.218 2.948-2.561 4.334-3.907 1.202-1.167 2.291-2.494 3.423-3.751 1.899-2.107 3.469-4.446 5.171-6.694.881-1.162 1.477-2.471 2.248-3.684.607-.954 1.173-1.936 1.768-2.895.784-1.262 1.014-2.836 1.959-4.054.064-.082.069-.207.107-.311.536-1.489.975-3.023 1.634-4.456.892-1.94 1.387-3.993 1.937-6.027a58.85 58.85 0 001.324-6.215c.344-2.194.648-4.415.696-6.629.089-4.142.357-8.301-.275-12.424-.239-1.558-.31-3.131-.607-4.688-.42-2.194-.833-4.387-1.411-6.545-.432-1.612-.834-3.233-1.555-4.756-.64-1.353-1.02-2.809-1.61-4.188-.4-.935-.971-1.8-1.299-2.732-.625-1.776-1.727-3.287-2.561-4.936-.841-1.661-1.793-3.325-3.014-4.791-.675-.81-1.18-1.775-1.816-2.589-.811-1.037-1.504-2.203-2.614-3.032-.775-.579-1.259-1.494-1.866-2.265-.751-.954-1.711-1.728-2.654-2.502-.711-.584-1.245-1.339-1.916-1.972-1.102-1.04-2.46-1.734-3.529-2.823-1.219-1.241-2.776-2.063-4.208-3.04a28.913 28.913 0 00-2.309-1.447c-.61-.337-1.109-.93-1.756-1.263-1.515-.779-3.089-1.454-4.562-2.304a28.228 28.228 0 00-3.864-1.872c-1.397-.544-2.873-.937-4.243-1.517-2.145-.908-4.451-1.182-6.625-1.984-1.76-.649-3.717-.825-5.605-1.059-2.88-.358-5.77-.662-8.678-.708a86.68 86.68 0 00-8.986.306c-1.197.105-2.387.285-3.563.47-.793.125-1.618.094-2.387.335-1.164.364-2.362.605-3.533.941-1.707.489-3.431.95-5.152 1.41-3.042.812-5.919 2.03-8.715 3.429-2.247 1.124-4.51 2.22-6.596 3.666-1.981 1.373-4.032 2.636-5.89 4.186-1.907 1.591-3.902 3.079-5.782 4.7-2.686 2.317-4.957 5.037-7.209 7.761-1.603 1.94-2.637 4.271-4.164 6.268-.751.982-1.115 2.175-1.805 3.184-.97 1.42-1.513 3.058-2.42 4.531-.957 1.556-1.348 3.458-1.989 5.208-.443 1.211-.659 2.517-1.138 3.678-.501 1.215-.384 2.58-1.112 3.696-.358.549-.163 1.218-.353 1.784-.71 2.112-.883 4.329-1.166 6.501-.223 1.708-.415 3.457-.401 5.197.023 2.907-.071 5.806.186 8.724.261 2.967.595 5.915 1.193 8.821.186.904.099 1.871.548 2.744.176.344.547.548.554 1.05.014 1.164.385 2.311.802 3.357.662 1.66.923 3.448 1.83 5.039.609 1.068.871 2.316 1.548 3.398.658 1.05 1.054 2.26 1.624 3.37.779 1.517 1.687 2.961 2.608 4.398 1.779 2.778 3.755 5.407 5.817 7.981 1.305 1.629 2.959 2.925 4.258 4.55 1.013 1.267 2.463 2.022 3.597 3.147.355.352.617.77 1.054 1.086.841.609 1.645 1.28 2.521 1.839 1.347.86 2.504 1.966 3.86 2.823 1.876 1.186 3.819 2.251 5.733 3.366 1.14.664 2.39 1.145 3.609 1.665 1.107.472 2.224.921 3.363 1.321.739.26 1.632.51 2.278 1.14.542.528 1.354.385 2.032.591 1.418.43 2.8.974 4.292 1.198 1.165.175 2.295.576 3.479.756.566.086 1.148.176 1.721.262 2.135.319 4.267.712 6.415.884 1.85.145 3.717.028 5.574.028zm-32.211 9.27c.281-1.619.535-3.088.792-4.557.278-1.586.56-3.172.834-4.759.028-.164.039-.383-.123-.463a53.533 53.533 0 00-2.321-1.073c-.168-.073-.307.114-.419.233-1.343 1.43-2.406 3.083-3.657 4.585-.764.918-1.403 1.949-2.469 2.673.391-.96.142-1.99.447-2.932.281-.868.322-1.777.584-2.662.338-1.135.464-2.382.618-3.591.017-.135.078-.212-.04-.353-.635-.756-1.643-.741-2.428-1.186-.23-.13-.256.21-.317.382-.384 1.079-.419 2.231-.548 3.341-.205 1.765-.607 3.493-.816 5.257-.203 1.709-.615 3.397-.659 5.13-.007.26-.088.543.277.705.555.246 1.075.552 1.674.719.375.105.582-.016.769-.241 1.319-1.592 2.612-3.207 3.941-4.79.785-.935 1.317-2.102 2.43-2.768.323.709-.212 1.272-.202 1.912.022 1.369-.518 2.685-.43 4.066a.447.447 0 01-.04.245c-.707 1.182-.699 2.508-.774 3.816-.014.245-.002.507.351.566.516.086.955.368 1.419.591.503.242.941.215 1.366-.271.533-.61.789-1.405 1.415-1.949.483-.419.868-.939 1.287-1.421.658-.755 1.172-1.605 1.797-2.375 1.289-1.588 2.743-3.041 3.84-4.789.27-.431.309-.582-.195-.762a10.181 10.181 0 01-1.63-.729c-.411-.237-.576-.141-.888.2-1.637 1.785-2.737 3.997-4.522 5.65-.483.446-.589 1.182-1.363 1.6zm43.155-154.353c-.791-2.14-1.796-4.143-2.767-6.16-.154-.319-.152-.411.17-.538 1.512-.598 2.288-1.785 2.591-3.323.256-1.303-.275-3.589-1.76-4.309-.829-.402-1.618-.69-2.53-.863-2.074-.395-4.197-.063-6.255-.543-.433-.101-.775.101-.813.6-.112 1.47-.196 2.932-.407 4.405-.302 2.109-.564 4.27-.481 6.432.014.36-.054.708-.154 1.069-.58 2.094-.248 2.536 1.867 2.603.141.004.283-.006.421.016.567.088.709-.183.738-.711.071-1.306-.111-2.63.288-3.916.144-.464-.207-1.148.239-1.401.383-.217.986-.052 1.492-.05.225.001.45.014.674.032.163.013.352 0 .437.182a855.298 855.298 0 012.111 4.562c.352.769.539 1.729 1.544 1.886.845.134 1.722.15 2.595.027zm7.484 158.238c.086-1.331-.368-2.539-.616-3.788-.475-2.394-2.937-4.216-5.291-4.279-1.392-.037-2.739.223-4.062.487-.948.189-1.937.102-2.871.483-.42.171-.518.331-.474.693.146 1.187.264 2.379.462 3.557.265 1.581.676 3.141.874 4.729.196 1.571.568 3.11.74 4.681.047.428.355.551.698.492 2.073-.36 4.16-.667 6.204-1.153 1.04-.247 2.159-.658 2.838-1.528.988-1.264 1.661-2.713 1.498-4.374zm19.342-164.467c-.589.04-1.213-.032-1.759.14-2.258.71-4.154 1.879-5.053 4.242-.656 1.723-1.018 3.484-.366 5.252.659 1.787 1.684 3.317 3.478 4.252 1.67.87 3.392 1.287 5.262 1.101.443-.044.714-.281.975-.664.342-.501.421-1.107.786-1.588.807-1.062 1.359-2.277 1.978-3.448.134-.254.138-.524-.173-.862-.637-.691-1.514-.779-2.257-1.179-1.823-.982-1.846-.986-2.64.79-.146.327-.332.795.201 1.095 1.047.59 1.039.603.612 1.729-.029.077-.036.163-.07.237-.235.512-.565.807-1.203.786-.766-.025-1.417-.339-2.019-.705-1.426-.87-2.438-2.008-2.19-3.869.17-1.276.742-2.314 1.553-3.293.874-1.055 2.041-1.307 3.246-1.189 1.782.175 2.982 1.336 3.94 2.767.204.304.497.475.863.352.649-.218 1.286-.472 1.93-.706.257-.094.253-.281.163-.476-.173-.373-.333-.757-.554-1.1-1.568-2.433-3.893-3.483-6.703-3.664zm12.112 20.882c.801-.52 1.217-1.352 1.858-1.981.238-.233.545-.493.767-.222.757.925 1.931 1.352 2.645 2.318 1.013 1.372 1.683 1.276 2.705-.044.628-.812.282-1.154-.292-1.627-.951-.783-1.89-1.583-2.813-2.399-.313-.277-.871-.652-.446-1.066.477-.465.903-.956 1.315-1.469.318-.395.559-.416.985-.033 1.56 1.407 3.2 2.725 4.759 4.132.486.438.814.393 1.288.049 1.244-.903 1.333-2.159.123-2.719-.536-.248-.941-.618-1.367-.987a3253.142 3253.142 0 00-5.28-4.561c-.358-.308-.637-.311-.986.099-.705.827-1.529 1.547-2.162 2.445-1.114 1.582-2.571 2.875-3.748 4.412-.886 1.157-1.886 2.23-2.879 3.3-.397.428-.413.792.053 1.058.985.562 1.519 1.581 2.529 2.187 1.37.822 2.433 2.139 3.69 3.169 1.783 1.462 1.138 1.703 2.978-.278.018-.019.061-.017.074-.037.185-.29.227-.601-.052-.832-.431-.357-.766-.855-1.201-1.145-1.644-1.092-2.969-2.543-4.543-3.769zm.341 124.702c.299-.179.523-.134.74-.115 2.311.201 4.621.412 6.932.607 1.002.085 2.014-.035 3.009.256.445.13.95.05 1.427.074.385.02.623-.236.816-.49.265-.348-.128-.629-.292-.757-.998-.78-1.594-1.88-2.389-2.818-.919-1.085-1.997-2.065-2.84-3.181-.99-1.311-2.161-2.46-3.118-3.787-.238-.331-.523-.498-.881-.219-.499.39-.965.822-1.456 1.221-.24.195-.278.367-.074.619.632.783 1.174 1.655 1.889 2.351 1.145 1.113 2.1 2.385 3.181 3.549.13.14.36.259.13.464-.117.105-.177.283-.472.197-1.205-.349-2.551.2-3.703-.558-2.665.041-5.304-.389-7.964-.449-.368-.008-.636.118-.806.453-.19.374.145.538.31.747.512.653 1.116 1.223 1.688 1.823 1.487 1.561 2.567 3.461 4.205 4.918.919.817 1.474 1.996 2.356 2.889.381.385.584.615 1.172.187 1.737-1.264 2.045-1.236.323-2.971-1.53-1.539-2.773-3.297-4.183-5.01zM82.589 17.68c-1.816.093-1.622.171-1.707-1.221-.017-.274-.053-.536-.177-.807-.231-.505.118-1.121.684-1.113 2.056.03 4.001-.735 6.041-.792.409-.011.939.051.918-.581-.027-.791.096-1.638-.554-2.277-.049-.048-.212.011-.32.03-1.605.276-3.2.649-4.817.805-1.695.164-3.344.595-5.037.739-.321.027-.544.139-.45.531.595 2.49.665 5.066 1.344 7.555.522 1.914.602 3.937.989 5.897.122.615.36.802.86.641 1.229-.396 2.522-.313 3.775-.591 1.759-.389 3.572-.529 5.36-.791.418-.061.925-.172.798-.736-.14-.622-.26-1.238-.332-1.873-.03-.26-.31-.3-.637-.29-1.287.042-2.54.305-3.736.698-.89.292-1.824.113-2.695.501-.524.234-.99-.015-.988-.731a4.118 4.118 0 00-.253-1.472c-.31-.836-.014-1.235.875-1.247 1.097-.014 2.146-.332 3.226-.457 1.699-.197 1.688-.293 1.549-1.93-.091-1.075-.503-1.383-1.521-1.077-1.15.347-2.352.368-3.195.589zm50.277 166.979c.27-.072.489-.053.703-.167 2.181-1.167 4.365-2.327 6.654-3.277.612-.254 1.396-.412 1.757-.88.491-.637-.677-1.007-.635-1.691a.358.358 0 00-.091-.231c-.236-.268-.331-.57-.896-.29-1.897.94-3.766 1.942-5.719 2.781-.558.24-.681-.056-.796-.282-.273-.534-.518-1.075-.832-1.593-.184-.304-.506-.88.145-1.113 1.393-.498 2.618-1.376 4.012-1.827.942-.305.68-.862.406-1.302-.255-.409-.558-.8-.782-1.235-.135-.262-.391-.198-.501-.109-.502.405-1.137.511-1.685.805-.785.42-1.561.859-2.367 1.236-.321.15-.777.372-.977-.193-.172-.487-.406-.939-.62-1.403-.236-.511-.282-.986.448-1.34 1.497-.728 3.083-1.245 4.537-2.089 1.522-.884 1.579-.791.764-2.366-.051-.099-.165-.173-.193-.274-.116-.432-.446-.421-.721-.283-2.775 1.396-5.673 2.536-8.4 4.034-.477.262-.473.581-.3.949 1.089 2.31 2.157 4.63 3.322 6.905a43.766 43.766 0 011.914 4.251c.139.361.154 1.084.853.984zm-49.068 2.352c-.091 2.32-.068 2.209 1.74 2.592 1.209.256 2.435.209 3.645.499 1.375.329 2.83.322 4.25.464.29.029.475-.026.499-.378.031-.442.241-.845.292-1.299.065-.587-.214-.857-.684-.929-.96-.148-1.925-.095-2.876-.497-.658-.278-1.474-.176-2.221-.33-1.524-.315-1.537-.257-1.454-1.833.012-.223.014-.454.073-.666.129-.46.355-.838.935-.659 1.265.391 2.614.189 3.887.561.314.092.834.311.978-.281.144-.596.222-1.208.314-1.815.054-.354-.051-.611-.471-.629-.952-.041-1.866-.33-2.829-.363-2.46-.083-2.43-.123-2.007-2.559.116-.667.374-.749.927-.672 1.655.23 3.309.493 4.972.637 1.712.149 1.95.536 2.045-1.76.022-.538-.153-.737-.594-.772-1.335-.104-2.67-.142-3.994-.413-1.631-.334-3.317-.293-4.95-.652-.833-.183-1.049-.005-1.094.884-.071 1.396-.276 2.786-.472 4.158-.342 2.396-.602 4.803-.911 6.712zM43.628 45.374h-.03c0 .169.02.34-.004.505-.105.729.163 1.068.926.915.679-.136 1.408-.159 2.028-.43 1.696-.742 3.274-1.669 4.178-3.408.594-1.142 1.177-2.364.822-3.621-.794-2.816-3.376-3.88-6.025-2.702-.867.386-1.68.894-2.548 1.276-.464.204-.946.598-1.51.283-.699-.391-.928-1.369-.461-2.104.714-1.125 1.645-1.963 3.086-1.919.526.016.689-.197.682-.684-.006-.446-.041-.923.097-1.333.232-.69-.021-.828-.65-.859-1.985-.097-3.389 1.094-4.823 2.167-.853.638-1.225 1.621-1.572 2.627-.455 1.318-.042 3.518.982 4.451 1.152 1.05 2.744 1.218 4.282.583 1.152-.476 2.078-1.305 3.181-1.856.715-.357 1.353-.17 1.737.282.386.454.711 1.092.285 1.829-.852 1.472-2.103 2.262-3.771 2.391-.629.049-.914.317-.894.935.008.223.002.447.002.672zm20.028-16.565c-.063.111.174.408-.138.501-.215.064-.37-.089-.553-.25-1.495-1.323-3.019-2.614-4.536-3.912-1.011-.865-2.161-1.565-3.04-2.584-.227-.263-.53-.489-.854-.294-.673.407-1.46.618-2.047 1.171-.271.255-.379.504.004.764.474.321.939.657 1.411.981 1.277.878 2.29 2.061 3.525 3 1.728 1.313 3.363 2.753 4.999 4.182 1.85 1.615 1.831 1.635 4.034.502.049-.025.115-.025.157-.057.248-.189.441-.311.356-.759-.195-1.03-.229-2.094-.338-3.139-.224-2.16-.521-4.314-.696-6.474-.135-1.671-.823-3.256-.661-4.955a.472.472 0 00-.04-.247c-.194-.38-.331-.774-.885-.294-.4.347-.944.526-1.417.792-.381.215-.663.483-.532.992.258 1.005.241 2.044.36 3.066.269 2.315.585 4.625.891 7.014zM43.528 169.155c.448-.033.935.038 1.336-.115 2.658-1.016 3.224-3.572 2.089-5.835-.567-1.131-1.456-2.021-2.009-3.145-.244-.496-.232-.882.123-1.268.388-.422.886-.64 1.409-.351 1.168.645 2.323 1.331 2.583 2.82.05.287.231.441.528.438a57.05 57.05 0 001.013-.022c1.096-.033 1.375-.356 1.005-1.367-.615-1.682-1.435-3.237-3.175-4.055-1.538-.723-3.119-1.223-4.771-.433-1.273.609-2.617 2.528-1.824 4.288a14.715 14.715 0 002.406 3.727c.398.452.607.861.433 1.403-.146.455-1.319 1.061-1.79 1.019-.872-.078-3.041-2.228-3.196-3.024-.226-1.161-.242-1.157-1.472-1.119-1.2.038-1.534.583-1.079 1.697.37.906.864 1.716 1.407 2.54 1.215 1.844 2.932 2.552 4.984 2.802zM10.817 98.561c-.186.017-.429-.046-.472.223-.038.238.072.377.322.502 1.075.541 1.994 1.321 2.957 2.03.193.142.466.334.328.695-.391 1.018-.76 2.044-1.151 3.062-.074.192-.186.417.005.526.099.056.368-.08.496-.198.817-.757 1.904-1.089 2.765-1.784.326-.264.767-.281 1.171.005.831.588 1.689 1.138 2.511 1.739.153.112.267.209.414.105.116-.082.116-.251.049-.383-.487-.959-.425-2.112-1.139-3.012-.268-.337-.311-.795.363-1.101.882-.4 1.649-1.052 2.474-1.583.182-.117.332-.219.245-.457-.076-.207-.277-.185-.429-.173-1.153.09-2.269-.339-3.422-.238-.465.04-.68-.136-.752-.652-.138-.98-.671-1.866-.778-2.864-.02-.191-.12-.322-.309-.341-.136-.014-.154.11-.189.222-.241.761-.513 1.513-.739 2.278-.422 1.433-.769 1.809-1.783 1.6-.981-.203-1.971.027-2.937-.201zm169.196.234v-.017c-.422 0-.844-.011-1.265.004-.322.012-.807-.154-.906.198-.092.326.373.549.619.79.091.089.268.086.374.166.757.578 1.67.927 2.357 1.601.142.139.194.219.065.511-.426.961-.697 1.992-1.011 3.002-.044.141-.117.35.084.443.076.035.222-.012.304-.068.993-.671 2.05-1.272 2.938-2.061.443-.394.474-.29.833.029.835.741 1.759 1.381 2.656 2.051.073.054.243.07.305.022.061-.047.079-.209.051-.302-.277-.92-.56-1.839-.857-2.752-.219-.674-.346-1.261.496-1.659.756-.358 1.469-.818 2.164-1.287.156-.105.556-.161.411-.521-.107-.268-.387-.177-.593-.183-.983-.028-1.967-.034-2.95-.052-.604-.011-1.038-.162-1.171-.888-.137-.75-.473-1.462-.657-2.206-.065-.264-.105-.521-.373-.567-.33-.057-.499.228-.598.485-.248.642-.493 1.287-.683 1.948-.349 1.212-.493 1.338-1.751 1.316-.28-.007-.561-.003-.842-.003zm-55.56-84.931c.065-.524-.07-.692-.466-.77-.555-.11-1.094-.312-1.627-.51-.293-.109-.442-.078-.582.229-.589 1.3-.793 2.719-1.273 4.06-.443 1.238-.667 2.601-1.028 3.883-.51 1.809-.889 3.658-1.524 5.435-.202.564.244.798.708.875.392.066.724.219 1.074.395.428.215.867.433 1.144-.338.155-.431.145-.87.298-1.281.71-1.907 1.095-3.903 1.628-5.859.28-1.028.574-2.053.851-3.082.286-1.06.559-2.125.797-3.037zM21.653 70.36c-.691.967-.962 1.944-1.209 2.917-.122.48-.281.73-.835.693-.756-.051-1.517-.013-2.277-.012-.161 0-.358-.069-.447.122-.116.25.126.357.264.459.652.484 1.287 1.006 1.996 1.389.353.191.426.432.285.642-.598.891-.613 1.972-1.185 3.085 1.173-.47 2.085-.953 2.824-1.711.404-.415.7-.412 1.166-.036.808.651 1.698 1.201 2.762 1.938-.27-.809-.411-1.402-.664-1.942-.29-.618-.433-1.264-.374-1.914.044-.481.625-.537.954-.798.427-.338.881-.62 1.352-.884.207-.116.361-.305.287-.55-.073-.241-.318-.187-.506-.189-.956-.01-1.912-.006-2.868-.019-.302-.004-.635.023-.701-.415-.135-.904-.508-1.739-.824-2.775zm3.174 51.894l-.159-.141c-.728.495-1.476.964-2.177 1.495-.501.38-.866.462-1.483.093-.744-.444-1.385-1.037-2.168-1.415-.156-.076-.308-.202-.447-.076-.154.141.027.295.064.448.133.553.543.952.774 1.449.405.872.294 1.35-.484 1.919-.611.448-1.227.89-1.843 1.331-.142.102-.301.217-.277.393.04.295.308.183.475.183.872.001 1.745-.027 2.617-.029.266-.001.633-.068.685.305.119.859.578 1.606.753 2.441.067.319.197.538.52.648.267-.851.605-1.647.749-2.476.119-.689.433-.883 1.062-.868 1.002.024 2.004.006 3.188.006-.683-.828-1.452-1.204-2.156-1.64-.501-.31-.709-.645-.538-1.211.286-.951.564-1.904.845-2.855zm153.677-51.999c-.412 1.161-.805 2.159-1.113 3.184-.134.445-.345.556-.766.538-.786-.032-1.575-.025-2.362-.024-.154 0-.359-.052-.418.171-.054.205.164.179.252.265.413.401.845.745 1.399.972.971.399 1.203 1.077.727 2.081-.21.443-.224.913-.364 1.362-.116.374.197.597.464.395.515-.39 1.126-.635 1.602-1.052.725-.633 1.016-.682 1.703-.101.542.457 1.117.875 1.655 1.336.155.133.303.162.452.101.167-.068.114-.234.054-.36-.385-.8-.434-1.705-.824-2.511-.171-.353-.209-.753.336-1.024.674-.335 1.259-.843 1.904-1.243.217-.134.355-.249.313-.516-.053-.338-.318-.262-.525-.265a92.867 92.867 0 00-2.531-.012c-.648.008-1.021-.186-1.112-.927-.093-.776-.354-1.539-.846-2.37zm5.317 57.565c-.886-.569-1.744-1.117-2.598-1.672-.388-.252-.418-.583-.241-.997.366-.856.391-1.823.84-2.657.037-.069-.013-.256-.075-.289-.072-.038-.223.003-.305.061-.461.325-.897.684-1.367.993-.529.348-1.051.865-1.754.57-.622-.261-1.19-.65-1.792-.964-.189-.099-.256-.541-.566-.278-.234.199-.198.567-.05.774.432.606.091 1.452.691 2.009.19.176-.149.196-.245.295-.651.675-1.586.958-2.238 1.642-.13.137-.324.197-.289.42.047.299.3.196.473.196.816.002 1.632-.006 2.447-.023.378-.008.566.093.691.52.287.986.689 1.938 1.089 3.026.549-.841.729-1.67.819-2.467.093-.818.455-1.025 1.189-1.028 1.083-.007 2.174.102 3.281-.131zm-10.4-73.863c-1.05 0-1.892-.014-2.734.006-.39.009-.598-.104-.68-.516-.119-.595-.313-1.174-.46-1.764-.049-.195-.055-.423-.321-.405-.193.013-.255.187-.269.369-.04.502-.336.924-.417 1.429-.102.631-.469 1.055-1.257.961-.679-.081-1.375-.017-2.148-.017.507.784 1.21 1.156 1.881 1.533.554.311.626.595.399 1.193-.185.487-.488.897-.664 1.372-.066.18-.364.375-.079.579.235.168.455.06.68-.113.468-.36.957-.692 1.452-1.015.405-.265.782-.299 1.207.058.449.378.993.641 1.473.986.128.092.22.164.36.093.246-.125.071-.281.014-.418-.267-.64-.253-1.383-.798-1.935-.148-.15-.294-.513.227-.77.725-.356 1.497-.75 2.134-1.626zm-138.368.007c-.534 0-.897.002-1.26 0-.393-.002-.787-.012-1.18-.01-.652.002-1.078-.265-1.063-.965.011-.499-.335-.885-.366-1.364-.014-.21-.236-.268-.368-.289-.239-.037-.198.204-.225.355-.086.488-.339.916-.419 1.421-.099.63-.493 1.064-1.278.914-.435-.084-.897-.055-1.346-.038-.255.01-.643-.16-.725.195-.06.258.278.352.507.468.364.183.704.414 1.046.637.916.597 1.058 1.064.542 2.043-.233.442-.629 1.093-.352 1.315.294.235.771-.38 1.162-.639.673-.447 1.343-.964 2.177-.255.373.318.83.537 1.201.857.161.139.269.184.422.078.165-.114.027-.248-.013-.37-.223-.677-.328-1.389-.657-2.036-.142-.28-.095-.5.243-.747.625-.457 1.418-.715 1.952-1.57zm138.368 93.752c-.679-.804-1.402-1.165-2.06-1.558-.682-.408-.458-.792-.159-1.173.32-.407.473-.842.563-1.332.107-.581-.245-.571-.564-.386-.383.222-.792.416-1.102.767-.406.46-.809.679-1.381.105-.438-.439-1.049-.704-1.57-1.065-.154-.107-.297-.191-.442-.051-.121.117-.126.262-.065.452.18.56.533 1.019.801 1.527.266.504.255.869-.397 1.171-.689.32-1.363.75-1.892 1.445.223.029.359.059.494.062.813.014 1.762-.235 2.404.102.706.371.591 1.477.885 2.244.072.187.09.413.351.38.192-.024.269-.206.255-.381-.048-.582.362-1.046.39-1.616.024-.487.334-.713.844-.699.814.022 1.626.006 2.645.006zm-138.302.007c-.625-.712-1.275-.957-1.811-1.356-.229-.17-.629-.292-.49-.647.188-.479.175-1.005.375-1.456.163-.366.439-.807.139-1.046-.312-.249-.571.292-.878.442-.02.01-.02.056-.04.072-.995.793-1.336.816-2.429.144a7.477 7.477 0 01-.801-.551c-.168-.136-.363-.224-.531-.136-.22.114-.11.369-.055.532.129.386.321.751.473 1.13.201.499.306.874-.293 1.316-.637.47-1.428.77-2.07 1.504.951 0 1.735.002 2.518-.001.347-.002.583.017.737.463.224.646.512 1.268.629 1.949.042.242.11.438.426.38.286-.052.339-.157.253-.461-.147-.524-.032-1.027.528-1.257.297-.122.27-.332.252-.534-.04-.445.195-.502.561-.492.758.019 1.515.005 2.507.005z" fill="#056ca4"/><path d="M100.099 170.445c-1.857 0-3.724.117-5.57-.031-2.148-.172-4.28-.565-6.415-.884-.573-.086-1.155-.175-1.721-.262-1.184-.18-2.314-.581-3.479-.756-1.492-.224-2.874-.768-4.292-1.198-.678-.206-1.491-.063-2.032-.591-.646-.63-1.539-.88-2.278-1.14a55.298 55.298 0 01-3.363-1.321c-1.219-.52-2.47-1.001-3.609-1.665-1.914-1.115-3.857-2.18-5.733-3.366-1.356-.857-2.512-1.963-3.86-2.823-.876-.559-1.68-1.23-2.521-1.839-.437-.316-.699-.734-1.054-1.086-1.134-1.125-2.584-1.879-3.597-3.147-1.299-1.625-2.953-2.921-4.258-4.55-2.061-2.573-4.037-5.202-5.817-7.981-.921-1.438-1.829-2.881-2.608-4.398-.57-1.11-.966-2.319-1.624-3.37-.677-1.082-.94-2.33-1.548-3.398-.906-1.59-1.168-3.379-1.83-5.039-.417-1.046-.788-2.193-.802-3.357-.006-.503-.377-.707-.554-1.05-.449-.874-.362-1.84-.548-2.744-.598-2.905-.933-5.853-1.193-8.821-.256-2.918-.162-5.817-.186-8.724-.014-1.74.178-3.489.401-5.197.283-2.172.456-4.389 1.166-6.501.191-.567-.005-1.235.353-1.784.728-1.116.61-2.481 1.112-3.696.479-1.161.695-2.468 1.138-3.678.641-1.75 1.032-3.652 1.989-5.208.906-1.473 1.45-3.111 2.42-4.531.689-1.009 1.054-2.202 1.805-3.184 1.527-1.997 2.561-4.328 4.164-6.268 2.252-2.724 4.523-5.444 7.209-7.761 1.88-1.622 3.874-3.11 5.782-4.7 1.858-1.549 3.91-2.813 5.89-4.186 2.087-1.446 4.35-2.542 6.596-3.666 2.796-1.399 5.673-2.617 8.715-3.429 1.721-.459 3.445-.92 5.152-1.41 1.171-.336 2.369-.576 3.533-.941.769-.241 1.593-.21 2.387-.335 1.175-.186 2.366-.365 3.563-.47a86.68 86.68 0 018.986-.306c2.908.046 5.798.35 8.678.708 1.888.235 3.844.41 5.605 1.059 2.174.802 4.479 1.076 6.625 1.984 1.37.58 2.845.973 4.243 1.517a28.112 28.112 0 013.864 1.872c1.473.851 3.046 1.525 4.562 2.304.647.332 1.146.925 1.756 1.263.802.444 1.554.932 2.309 1.447 1.432.977 2.988 1.799 4.208 3.04 1.07 1.089 2.428 1.783 3.529 2.823.67.633 1.205 1.388 1.916 1.972.943.775 1.903 1.548 2.654 2.502.607.771 1.091 1.686 1.866 2.265 1.11.829 1.803 1.996 2.614 3.032.636.813 1.142 1.779 1.816 2.589 1.221 1.466 2.174 3.13 3.014 4.791.834 1.649 1.936 3.16 2.561 4.936.328.932.899 1.797 1.299 2.732.589 1.379.97 2.835 1.61 4.188.72 1.523 1.123 3.144 1.555 4.756.578 2.158.991 4.351 1.411 6.545.298 1.557.368 3.13.607 4.688.632 4.123.364 8.282.275 12.424-.048 2.215-.352 4.436-.696 6.629a58.85 58.85 0 01-1.324 6.215c-.55 2.033-1.046 4.087-1.937 6.027-.659 1.433-1.098 2.967-1.634 4.456-.037.104-.043.229-.107.311-.945 1.219-1.175 2.793-1.959 4.054-.595.959-1.162 1.941-1.768 2.895-.772 1.214-1.368 2.522-2.248 3.684-1.702 2.248-3.272 4.587-5.171 6.694-1.132 1.257-2.222 2.584-3.423 3.751-1.386 1.346-2.803 2.689-4.334 3.907-1.208.961-2.323 2.067-3.63 2.894-1.587 1.003-2.912 2.36-4.577 3.25-1.345.719-2.724 1.398-3.983 2.249a18.835 18.835 0 01-3.879 1.986c-1.92.725-3.754 1.659-5.728 2.283-.997.315-1.988.848-3.023 1.171a45.48 45.48 0 01-3.158.884c-1.93.454-3.866.887-5.811 1.273-1.044.207-2.127.061-3.182.276-2.933.598-5.905.551-8.874.466zm.204-2.005c2.45.25 4.861-.286 7.295-.368.084-.003.171-.002.252-.02 1.809-.398 3.659-.524 5.481-.865 1.433-.268 2.747-.878 4.205-1.108 1.344-.213 2.717-.637 4.032-1.13 1.481-.555 3.006-.996 4.476-1.577a41.196 41.196 0 004.298-1.994c1.077-.576 2.206-1.058 3.261-1.668 1.148-.664 2.257-1.406 3.373-2.115 2.118-1.345 4.218-2.686 6.106-4.342 1.566-1.374 3.224-2.634 4.656-4.171 1.908-2.048 4.069-3.865 5.667-6.196.368-.537.935-.916 1.26-1.446 1.062-1.737 2.368-3.305 3.386-5.076.722-1.256 1.502-2.479 2.223-3.739 1.021-1.784 1.785-3.672 2.692-5.497.924-1.858 1.502-3.862 2.14-5.839a52.26 52.26 0 001.563-5.961c.114-.58.579-.988.553-1.581-.044-.988.299-1.921.453-2.877.444-2.748.751-5.509.854-8.282.133-3.603-.071-7.192-.553-10.779-.292-2.173-.55-4.322-1.177-6.44-.621-2.099-.972-4.271-1.71-6.351-.805-2.27-1.402-4.607-2.587-6.74-.737-1.327-1.282-2.759-1.965-4.118-.809-1.611-1.631-3.226-2.72-4.667-.885-1.171-1.593-2.451-2.419-3.656-.689-1.005-1.658-1.771-2.306-2.763-1.223-1.875-2.843-3.376-4.355-4.977-1.098-1.162-2.349-2.175-3.536-3.249a49.077 49.077 0 00-3.926-3.216c-1.867-1.368-3.715-2.756-5.764-3.859-.789-.425-1.604-.821-2.361-1.274-.772-.463-1.526-.976-2.323-1.406-1.785-.96-3.681-1.678-5.577-2.368-1.073-.39-2.094-.9-3.184-1.257-.808-.264-1.636-.466-2.428-.746-1.017-.36-2.06-.588-3.095-.844-1.287-.318-2.609-.491-3.906-.771-2.035-.44-4.106-.711-6.165-.864-2.773-.206-5.57-.109-8.356-.113-2.407-.003-4.827-.047-7.194.448-.913.191-1.842.144-2.727.354-.831.197-1.67.53-2.497.527-.882-.004-1.475.736-2.349.646a3.01 3.01 0 00-1.329.158c-1.731.656-3.562.999-5.258 1.782-1.657.765-3.448 1.222-5.085 2.049-1.515.765-3.123 1.356-4.535 2.314-.661.449-1.406.725-2.081 1.129-1.613.965-3.221 1.943-4.722 3.082-1.307.991-2.66 1.927-3.92 2.974-1.022.849-1.951 1.812-2.89 2.755-.367.369-1.062.321-1.235.724-.37.858-1.109 1.383-1.646 2.076-.883 1.139-2.084 2.004-2.981 3.152a2643.039 2643.039 0 00-3.361 4.312c-1.693 2.176-2.879 4.703-4.277 7.078-1.209 2.054-2.264 4.222-3.041 6.507-.481 1.415-1.187 2.752-1.684 4.163-.465 1.319-.88 2.669-1.145 4.039-.261 1.354-.575 2.708-.869 4.044-.542 2.469-.965 4.954-1.129 7.449-.214 3.248-.104 6.518-.106 9.778-.001 1.377-.13 2.796.152 4.12.472 2.213.625 4.472 1.153 6.681.305 1.277.517 2.614.865 3.874.602 2.182 1.233 4.377 2.154 6.457 1.308 2.954 2.512 5.945 4.125 8.774a73.614 73.614 0 005.403 8.143c.943 1.238 2.012 2.385 3.015 3.57 1.468 1.735 3.047 3.343 4.702 4.873 2.256 2.086 4.593 4.087 7.159 5.803 1.203.804 2.403 1.626 3.63 2.378 1.833 1.124 3.762 2.107 5.658 3.129 2.461 1.326 5.062 2.2 7.655 3.134 1.233.444 2.49.827 3.782 1.114 1.553.346 3.034 1.03 4.592 1.338 2.28.451 4.591.811 6.905.995 1.864.148 3.72.512 5.606.394.564-.037 1.129-.007 1.692-.007z" fill="#fccb04"/><path d="M67.888 179.715c.774-.418.88-1.154 1.363-1.601 1.786-1.653 2.886-3.865 4.522-5.65.312-.34.477-.436.888-.2.514.296 1.07.529 1.63.729.504.181.465.331.195.762-1.097 1.747-2.551 3.2-3.84 4.789-.625.771-1.139 1.62-1.797 2.375-.42.482-.804 1.002-1.287 1.421-.626.543-.882 1.338-1.415 1.949-.425.487-.862.513-1.366.271-.464-.223-.903-.505-1.419-.591-.353-.059-.365-.321-.351-.566.074-1.308.067-2.634.774-3.816a.447.447 0 00.04-.245c-.088-1.381.452-2.698.43-4.066-.01-.641.525-1.203.202-1.912-1.113.666-1.645 1.833-2.43 2.768-1.329 1.584-2.622 3.198-3.941 4.79-.187.225-.393.346-.769.241-.6-.167-1.119-.473-1.674-.719-.365-.161-.283-.445-.277-.705.043-1.734.456-3.421.659-5.13.209-1.764.611-3.492.816-5.257.129-1.11.164-2.262.548-3.341.061-.173.087-.512.317-.382.786.445 1.793.43 2.428 1.186.119.141.058.218.04.353-.154 1.208-.28 2.455-.618 3.591-.263.884-.304 1.793-.584 2.662-.305.942-.056 1.972-.447 2.932 1.066-.723 1.705-1.755 2.469-2.673 1.251-1.503 2.314-3.156 3.657-4.585.113-.12.251-.306.419-.233.782.338 1.556.698 2.321 1.073.162.08.151.299.123.463-.274 1.587-.556 3.173-.834 4.759-.257 1.47-.511 2.939-.792 4.558zm43.155-154.353a8.814 8.814 0 01-2.596-.026c-1.005-.158-1.191-1.117-1.544-1.886a820.316 820.316 0 00-2.111-4.562c-.085-.183-.274-.169-.437-.182a8.916 8.916 0 00-.674-.032c-.506-.003-1.108-.168-1.492.05-.446.253-.095.937-.239 1.401-.4 1.286-.217 2.61-.288 3.916-.029.528-.171.799-.738.711-.138-.021-.281-.011-.421-.016-2.115-.067-2.446-.509-1.867-2.603.1-.36.168-.708.154-1.069-.083-2.162.179-4.323.481-6.432.211-1.473.294-2.935.407-4.405.038-.499.38-.701.813-.6 2.058.48 4.18.148 6.255.543.912.173 1.701.462 2.53.863 1.485.72 2.016 3.006 1.76 4.309-.303 1.539-1.079 2.726-2.591 3.323-.322.127-.324.218-.17.538.973 2.016 1.977 4.02 2.768 6.159zm-6.9-12.594c-.309 0-.624.036-.927-.007-.661-.095-.911.156-.869.823.037.586-.004 1.179-.039 1.767-.028.47.151.638.63.63.814-.013 1.661-.089 2.436.101.798.195 1.486.22 2.242-.114.569-.252.757-.679.797-1.207.042-.546.058-1.077-.626-1.357-1.176-.482-2.405-.559-3.644-.636zM118.527 183.6c.163 1.661-.51 3.111-1.497 4.375-.679.87-1.798 1.28-2.838 1.528-2.044.486-4.131.793-6.204 1.153-.343.06-.651-.064-.698-.492-.172-1.572-.544-3.11-.74-4.681-.198-1.588-.609-3.148-.874-4.729-.198-1.178-.316-2.37-.462-3.557-.044-.362.054-.522.474-.693.933-.381 1.922-.294 2.871-.483 1.323-.264 2.669-.524 4.062-.487 2.355.063 4.816 1.885 5.291 4.279.247 1.248.701 2.456.615 3.787zm-6.81-5.32c-.524-.145-1.03.27-1.617.306-1.794.11-1.793.131-1.386 1.839.006.027.009.055.012.083.222 2.119.65 4.204 1.012 6.301.09.521.384.665.728.494.899-.446 1.89-.26 2.829-.543 1.83-.551 2.595-2.666 2.29-4.093-.138-.644-.175-1.333-.505-1.981-.831-1.63-1.582-2.371-3.363-2.406zm26.152-159.147c2.81.181 5.135 1.231 6.7 3.663.221.344.381.728.554 1.1.09.195.094.382-.163.476-.644.235-1.281.488-1.93.706-.366.123-.659-.048-.863-.352-.958-1.431-2.158-2.592-3.94-2.767-1.205-.118-2.372.134-3.246 1.189-.811.979-1.383 2.017-1.553 3.293-.247 1.861.764 3 2.19 3.869.602.367 1.253.681 2.019.705.638.02.968-.274 1.203-.786.034-.074.041-.16.07-.237.427-1.126.435-1.139-.612-1.729-.533-.301-.347-.769-.201-1.095.794-1.776.817-1.772 2.64-.79.743.4 1.621.488 2.257 1.179.311.338.307.608.173.862-.619 1.171-1.171 2.386-1.978 3.448-.365.481-.444 1.087-.786 1.588-.261.383-.532.62-.975.664-1.869.186-3.592-.231-5.262-1.101-1.794-.935-2.819-2.464-3.478-4.252-.652-1.769-.29-3.529.366-5.252.899-2.363 2.795-3.531 5.053-4.242.55-.171 1.174-.099 1.762-.139zm12.112 20.882c1.575 1.225 2.9 2.677 4.541 3.769.435.289.77.788 1.201 1.145.279.231.238.542.052.832-.013.02-.056.018-.074.037-1.84 1.982-1.195 1.74-2.978.278-1.256-1.03-2.32-2.347-3.69-3.169-1.01-.606-1.544-1.625-2.529-2.187-.466-.266-.449-.631-.053-1.058.993-1.07 1.993-2.143 2.879-3.3 1.177-1.537 2.634-2.829 3.748-4.412.632-.898 1.456-1.618 2.162-2.445.349-.409.628-.407.986-.099 1.762 1.518 3.521 3.039 5.28 4.561.427.369.831.739 1.367.987 1.211.56 1.121 1.816-.123 2.719-.474.344-.802.389-1.288-.049-1.56-1.407-3.199-2.725-4.759-4.132-.425-.383-.667-.363-.985.033a16.272 16.272 0 01-1.315 1.469c-.425.414.133.789.446 1.066.923.816 1.862 1.616 2.813 2.399.574.473.92.815.292 1.627-1.021 1.321-1.691 1.416-2.705.044-.714-.967-1.888-1.394-2.645-2.318-.222-.271-.529-.012-.767.222-.639.63-1.055 1.461-1.856 1.981zm.341 124.702c1.409 1.713 2.653 3.47 4.183 5.013 1.721 1.735 1.414 1.707-.323 2.971-.588.428-.791.198-1.172-.187-.882-.893-1.437-2.072-2.356-2.889-1.638-1.457-2.718-3.357-4.205-4.918-.572-.6-1.176-1.17-1.688-1.823-.164-.209-.5-.373-.31-.747.171-.335.438-.461.806-.453 2.66.06 5.299.49 7.964.449 1.152.758 2.498.209 3.703.558.295.086.355-.092.472-.197.229-.205 0-.324-.13-.464-1.081-1.163-2.036-2.435-3.181-3.549-.715-.695-1.257-1.568-1.889-2.351-.204-.252-.165-.424.074-.619.492-.4.957-.832 1.456-1.221.358-.279.643-.112.881.219.957 1.327 2.128 2.475 3.118 3.787.843 1.116 1.921 2.096 2.84 3.181.794.939 1.39 2.039 2.389 2.818.164.128.557.408.292.757-.193.254-.431.509-.816.49-.477-.025-.982.056-1.427-.074-.995-.291-2.007-.171-3.009-.256-2.311-.195-4.621-.406-6.932-.607-.217-.022-.441-.067-.74.112zM82.589 17.68c.843-.221 2.046-.242 3.196-.589 1.018-.307 1.43.001 1.521 1.077.139 1.637.15 1.733-1.549 1.93-1.081.125-2.129.443-3.226.457-.89.012-1.185.41-.875 1.247.182.492.254.971.253 1.472-.002.716.463.965.988.731.871-.389 1.805-.209 2.695-.501 1.196-.393 2.449-.656 3.736-.698.328-.011.608.029.637.29.072.634.192 1.25.332 1.873.127.564-.38.675-.798.736-1.788.262-3.601.402-5.36.791-1.253.277-2.546.194-3.775.591-.5.161-.738-.026-.86-.641-.387-1.96-.467-3.982-.989-5.897-.679-2.489-.749-5.065-1.344-7.555-.094-.392.129-.504.45-.531 1.693-.144 3.341-.575 5.037-.739 1.616-.156 3.212-.529 4.817-.805.108-.019.27-.078.32-.03.65.64.527 1.487.554 2.277.022.632-.509.57-.918.581-2.04.057-3.984.822-6.041.792-.566-.008-.915.608-.684 1.113.124.271.16.533.177.807.084 1.392-.111 1.314 1.706 1.221zm50.277 166.979c-.699.1-.714-.624-.853-.985a43.874 43.874 0 00-1.914-4.251c-1.166-2.275-2.234-4.595-3.322-6.905-.173-.368-.177-.687.3-.949 2.727-1.499 5.625-2.638 8.4-4.034.276-.139.605-.149.721.283.027.101.141.175.193.274.815 1.575.758 1.483-.764 2.366-1.454.845-3.04 1.362-4.537 2.089-.73.355-.684.829-.448 1.34.215.465.449.917.62 1.403.199.565.655.343.977.193.806-.376 1.582-.815 2.367-1.236.548-.294 1.183-.4 1.685-.805.11-.089.366-.152.501.109.224.435.527.826.782 1.235.275.44.536.997-.406 1.302-1.394.451-2.618 1.329-4.012 1.827-.651.233-.329.809-.145 1.113.314.519.559 1.059.832 1.593.115.226.238.521.796.282 1.952-.838 3.821-1.84 5.719-2.781.565-.28.66.022.896.29a.358.358 0 01.091.231c-.041.684 1.127 1.054.635 1.691-.36.467-1.144.625-1.757.88-2.289.95-4.473 2.11-6.654 3.277-.214.115-.433.096-.703.168zm-49.068 2.352c.309-1.909.569-4.316.913-6.713.197-1.371.401-2.762.472-4.158.045-.888.262-1.067 1.094-.884 1.633.359 3.32.318 4.95.652 1.324.271 2.659.309 3.994.413.441.034.616.233.594.772-.095 2.296-.333 1.908-2.045 1.76-1.663-.144-3.317-.407-4.972-.637-.554-.077-.811.005-.927.672-.423 2.435-.453 2.476 2.007 2.559.963.032 1.877.322 2.829.363.42.018.525.275.471.629-.092.607-.17 1.219-.314 1.815-.144.593-.664.373-.978.281-1.273-.372-2.622-.17-3.887-.561-.58-.179-.806.199-.935.659-.06.212-.061.443-.073.666-.084 1.576-.07 1.518 1.454 1.833.747.154 1.563.052 2.221.33.951.402 1.916.349 2.876.497.469.072.749.342.684.929-.05.454-.261.857-.292 1.299-.025.352-.209.407-.499.378-1.42-.142-2.875-.135-4.25-.464-1.21-.289-2.436-.242-3.645-.499-1.81-.383-1.834-.271-1.742-2.591zM43.628 45.374c0-.225.006-.45-.001-.674-.02-.618.265-.886.894-.935 1.668-.129 2.92-.919 3.771-2.391.426-.737.101-1.375-.285-1.829-.385-.452-1.022-.639-1.737-.282-1.104.551-2.029 1.38-3.181 1.856-1.538.635-3.13.467-4.282-.583-1.024-.933-1.437-3.132-.982-4.451.347-1.005.72-1.989 1.572-2.627 1.434-1.073 2.838-2.264 4.823-2.167.629.031.882.169.65.859-.138.41-.103.887-.097 1.333.007.488-.156.7-.682.684-1.441-.044-2.372.794-3.086 1.919-.467.735-.238 1.714.461 2.104.563.315 1.045-.079 1.51-.283.868-.382 1.681-.891 2.548-1.276 2.649-1.178 5.231-.114 6.025 2.702.355 1.258-.228 2.479-.822 3.621-.904 1.74-2.482 2.667-4.178 3.408-.62.271-1.349.294-2.028.43-.763.153-1.031-.186-.926-.915.024-.165.004-.337.004-.505a.137.137 0 00.029.002zm20.028-16.565c-.307-2.389-.623-4.698-.891-7.013-.119-1.022-.101-2.061-.36-3.066-.131-.509.151-.777.532-.992.473-.266 1.017-.445 1.417-.792.554-.479.691-.086.885.294a.472.472 0 01.04.247c-.162 1.699.526 3.284.661 4.955.175 2.16.472 4.314.696 6.474.108 1.045.142 2.108.338 3.139.085.448-.108.57-.356.759-.042.032-.108.032-.157.057-2.203 1.133-2.184 1.112-4.034-.502-1.637-1.429-3.271-2.869-4.999-4.182-1.235-.938-2.248-2.122-3.525-3-.472-.324-.936-.66-1.411-.981-.383-.259-.274-.509-.004-.764.587-.553 1.374-.764 2.047-1.171.324-.196.626.031.854.294.88 1.019 2.03 1.719 3.04 2.584 1.517 1.298 3.041 2.589 4.536 3.912.183.162.338.314.553.25.312-.094.075-.391.138-.502zM43.528 169.155c-2.052-.25-3.769-.958-4.984-2.802-.543-.824-1.037-1.635-1.407-2.54-.455-1.114-.121-1.659 1.079-1.697 1.229-.039 1.246-.042 1.472 1.119.155.796 2.325 2.947 3.196 3.024.471.042 1.644-.564 1.79-1.019.174-.542-.034-.951-.433-1.403a14.76 14.76 0 01-2.406-3.727c-.793-1.76.551-3.679 1.824-4.288 1.652-.79 3.233-.29 4.771.433 1.739.818 2.559 2.373 3.175 4.055.37 1.011.091 1.334-1.005 1.367-.338.01-.675.018-1.013.022-.297.003-.478-.151-.528-.438-.26-1.489-1.415-2.175-2.583-2.82-.523-.289-1.021-.071-1.409.351-.355.386-.367.772-.123 1.268.553 1.125 1.442 2.014 2.009 3.145 1.135 2.263.569 4.819-2.089 5.835-.401.153-.888.082-1.336.115zm-32.71-70.593c.966.227 1.956-.003 2.933.198 1.014.209 1.361-.167 1.783-1.6.225-.765.497-1.517.739-2.278.036-.112.054-.236.189-.222.189.019.289.151.309.341.107.998.64 1.884.778 2.864.073.516.287.692.752.652 1.153-.1 2.269.329 3.422.238.153-.012.354-.034.429.173.087.238-.063.341-.245.457-.825.531-1.592 1.183-2.474 1.583-.674.306-.631.763-.363 1.101.714.899.652 2.052 1.139 3.012.067.132.067.301-.049.383-.148.104-.261.007-.414-.105-.822-.601-1.68-1.151-2.511-1.739-.404-.286-.844-.269-1.171-.005-.86.695-1.948 1.028-2.765 1.784-.128.118-.397.254-.496.198-.191-.109-.079-.333-.005-.526.391-1.018.761-2.044 1.151-3.062.138-.361-.135-.552-.328-.695-.963-.709-1.883-1.489-2.957-2.03-.25-.126-.36-.264-.322-.502.046-.267.289-.204.476-.22zm169.195.233c.281 0 .562-.004.843.001 1.259.022 1.403-.104 1.751-1.316.19-.66.435-1.306.683-1.948.099-.257.268-.543.598-.485.268.046.308.303.373.567.184.744.52 1.456.657 2.206.133.726.567.877 1.171.888.983.018 1.967.024 2.95.052.206.006.485-.085.593.183.144.36-.255.416-.411.521-.695.469-1.408.929-2.164 1.287-.842.398-.715.986-.496 1.659.297.914.58 1.832.857 2.752.028.092.01.254-.051.302-.062.048-.232.033-.305-.022-.896-.67-1.821-1.31-2.656-2.051-.358-.318-.389-.423-.833-.029-.888.789-1.945 1.39-2.938 2.061-.083.056-.228.103-.304.068-.201-.093-.128-.302-.084-.443.314-1.009.585-2.04 1.011-3.002.129-.291.077-.371-.065-.511-.688-.675-1.601-1.023-2.357-1.601-.106-.081-.282-.077-.374-.166-.247-.241-.711-.464-.619-.79.099-.351.584-.186.906-.198.421-.015.843-.004 1.265-.004l-.001.019zm-55.56-84.931c-.238.912-.511 1.977-.796 3.038-.277 1.029-.571 2.054-.851 3.082-.532 1.956-.918 3.952-1.628 5.859-.153.411-.143.85-.298 1.281-.278.771-.716.553-1.144.338-.35-.175-.682-.329-1.074-.395-.464-.078-.91-.311-.708-.875.635-1.777 1.015-3.626 1.524-5.435.361-1.282.585-2.645 1.028-3.883.48-1.341.684-2.76 1.273-4.06.139-.308.289-.338.582-.229.533.197 1.072.4 1.627.51.395.077.53.246.465.769zM21.653 70.36c.316 1.036.689 1.871.826 2.775.066.438.399.411.701.415.956.013 1.912.009 2.868.019.188.002.433-.052.506.189.074.245-.08.434-.287.55-.472.264-.925.546-1.352.884-.329.261-.91.317-.954.798-.059.65.084 1.296.374 1.914.253.54.394 1.133.664 1.942-1.064-.737-1.954-1.287-2.762-1.938-.466-.376-.762-.378-1.166.036-.739.758-1.652 1.241-2.824 1.711.572-1.114.587-2.194 1.185-3.085.141-.21.068-.451-.285-.642-.709-.384-1.344-.906-1.996-1.389-.138-.102-.38-.209-.264-.459.088-.191.286-.122.447-.122.759-.001 1.521-.039 2.277.012.553.037.713-.214.835-.693.246-.974.516-1.95 1.207-2.917zm3.174 51.894c-.282.951-.559 1.904-.847 2.854-.171.566.037.9.538 1.211.704.436 1.474.812 2.156 1.64-1.184 0-2.186.018-3.188-.006-.63-.015-.943.179-1.062.868-.143.83-.482 1.626-.749 2.476-.323-.11-.453-.328-.52-.648-.176-.834-.635-1.581-.753-2.441-.052-.374-.419-.306-.685-.305-.872.002-1.745.03-2.617.029-.167 0-.435.112-.475-.183-.024-.176.135-.292.277-.393.617-.441 1.232-.883 1.843-1.331.777-.569.889-1.047.484-1.919-.231-.497-.642-.895-.774-1.449-.037-.153-.218-.307-.064-.448.138-.126.29 0 .447.076.783.378 1.425.971 2.168 1.415.618.369.982.286 1.483-.093.701-.531 1.449-.999 2.177-1.495l.161.142zm153.677-51.999c.492.831.752 1.594.847 2.373.09.741.464.935 1.112.927.844-.01 1.688-.001 2.531.012.207.003.473-.072.525.265.042.267-.096.382-.313.516-.645.399-1.23.908-1.904 1.243-.545.271-.507.672-.336 1.024.39.806.439 1.711.824 2.511.061.126.114.292-.054.36-.15.061-.298.032-.452-.101-.538-.461-1.114-.879-1.655-1.336-.687-.58-.978-.532-1.703.101-.476.416-1.088.661-1.602 1.052-.267.202-.58-.021-.464-.395.14-.449.154-.92.364-1.362.476-1.004.244-1.682-.727-2.081-.554-.227-.986-.571-1.399-.972-.089-.086-.307-.06-.252-.265.059-.223.264-.171.418-.171.787-.001 1.576-.008 2.362.024.421.017.632-.093.766-.538.308-1.028.7-2.027 1.112-3.187zm5.317 57.565c-1.107.234-2.197.124-3.28.129-.735.003-1.096.21-1.189 1.028-.091.798-.271 1.626-.819 2.467-.4-1.088-.802-2.041-1.089-3.026-.124-.427-.312-.527-.691-.52a99.86 99.86 0 01-2.447.023c-.173 0-.426.103-.473-.196-.035-.223.158-.283.289-.42.652-.683 1.587-.967 2.238-1.642.095-.099.434-.118.245-.295-.6-.557-.258-1.403-.691-2.009-.148-.207-.184-.575.05-.774.31-.264.377.179.566.278.602.314 1.169.703 1.792.964.703.295 1.225-.221 1.754-.57.47-.31.907-.669 1.367-.993.081-.057.232-.099.305-.061.062.033.112.22.075.289-.449.835-.474 1.801-.84 2.657-.177.414-.147.745.241.997.852.556 1.711 1.104 2.597 1.674zm-10.4-73.863c-.637.876-1.409 1.27-2.136 1.627-.521.257-.375.62-.227.77.545.551.531 1.294.798 1.935.057.137.233.294-.014.418-.14.071-.232-.001-.36-.093-.479-.345-1.024-.608-1.473-.986-.425-.357-.801-.323-1.207-.058-.494.323-.984.655-1.452 1.015-.225.173-.445.281-.68.113-.284-.204.013-.399.079-.579.175-.476.479-.886.664-1.372.228-.598.155-.882-.399-1.193-.671-.377-1.375-.75-1.881-1.533.773 0 1.469-.064 2.148.017.788.094 1.155-.33 1.257-.961.082-.505.378-.927.417-1.429.014-.182.076-.356.269-.369.265-.018.272.21.321.405.147.59.341 1.169.46 1.764.082.412.29.526.68.516.844-.021 1.686-.007 2.736-.007zm-138.368.007c-.535.856-1.327 1.113-1.949 1.568-.338.247-.385.467-.243.747.329.648.434 1.36.657 2.036.04.122.178.256.013.37-.153.106-.26.061-.422-.078-.371-.32-.828-.54-1.201-.857-.833-.709-1.504-.192-2.177.255-.391.26-.867.875-1.162.639-.278-.222.119-.873.352-1.315.516-.978.374-1.445-.542-2.043-.342-.223-.683-.455-1.046-.637-.23-.115-.567-.21-.507-.468.082-.355.47-.185.725-.195.448-.017.91-.046 1.346.038.785.151 1.178-.284 1.278-.914.08-.505.333-.934.419-1.421.026-.15-.015-.392.225-.355.132.02.354.079.368.289.031.48.377.866.366 1.364-.015.7.411.967 1.063.965.393-.001.787.008 1.18.01.361.003.724.002 1.257.002zm138.368 93.752c-1.02 0-1.831.016-2.642-.006-.51-.014-.821.213-.844.699-.028.57-.438 1.034-.39 1.616.015.175-.062.356-.255.381-.261.033-.279-.192-.351-.38-.294-.767-.18-1.873-.885-2.244-.641-.337-1.59-.087-2.404-.102-.136-.002-.271-.033-.494-.062.529-.695 1.203-1.125 1.892-1.445.651-.303.662-.667.397-1.171-.268-.508-.621-.967-.801-1.527-.061-.191-.056-.336.065-.452.145-.139.287-.055.442.051.521.361 1.132.626 1.57 1.065.572.574.975.355 1.381-.105.31-.351.719-.546 1.102-.767.319-.185.671-.195.564.386-.09.489-.243.925-.563 1.332-.299.381-.524.765.159 1.173.656.394 1.378.755 2.057 1.558zm-138.302.007c-.992 0-1.749.014-2.505-.006-.367-.01-.601.047-.561.492.018.203.045.412-.252.534-.56.23-.675.733-.528 1.257.085.304.032.408-.253.461-.316.058-.385-.139-.426-.38-.117-.681-.405-1.303-.629-1.949-.155-.445-.391-.464-.737-.463-.784.003-1.568.001-2.518.001.642-.734 1.432-1.034 2.07-1.504.599-.442.494-.817.293-1.316-.153-.379-.344-.744-.473-1.13-.054-.162-.164-.418.055-.532.168-.087.363 0 .531.136.251.204.525.381.801.551 1.092.672 1.433.649 2.429-.144.02-.016.02-.062.04-.072.307-.15.566-.691.878-.442.3.239.024.68-.139 1.046-.2.451-.188.977-.375 1.456-.139.355.261.476.49.647.535.4 1.185.645 1.809 1.357z" fill="#fefefe"/><path d="M100.303 168.44c-.563 0-1.128-.03-1.689.005-1.886.118-3.741-.246-5.606-.394-2.315-.184-4.626-.544-6.905-.995-1.558-.308-3.039-.993-4.592-1.338a31.133 31.133 0 01-3.782-1.114c-2.593-.934-5.194-1.808-7.655-3.134-1.896-1.022-3.825-2.005-5.658-3.129-1.227-.752-2.427-1.574-3.63-2.378-2.566-1.716-4.903-3.717-7.159-5.803-1.654-1.53-3.234-3.138-4.702-4.873-1.003-1.185-2.073-2.332-3.015-3.57a73.614 73.614 0 01-5.403-8.143c-1.613-2.828-2.817-5.82-4.125-8.774-.921-2.08-1.552-4.275-2.154-6.457-.348-1.26-.56-2.596-.865-3.874-.528-2.209-.681-4.468-1.153-6.681-.283-1.325-.153-2.744-.152-4.12.002-3.26-.107-6.53.106-9.778.164-2.495.588-4.981 1.129-7.449.293-1.336.608-2.691.869-4.044.264-1.37.68-2.721 1.145-4.039.497-1.41 1.203-2.748 1.684-4.163.777-2.285 1.832-4.453 3.041-6.507 1.398-2.375 2.583-4.901 4.277-7.078 1.118-1.436 2.239-2.876 3.361-4.312.897-1.148 2.098-2.013 2.981-3.152.537-.693 1.276-1.217 1.646-2.076.173-.403.868-.355 1.235-.724.939-.943 1.868-1.906 2.89-2.755 1.26-1.047 2.613-1.982 3.92-2.974 1.501-1.139 3.109-2.117 4.722-3.082.675-.404 1.42-.68 2.081-1.129 1.412-.958 3.02-1.549 4.535-2.314 1.637-.826 3.428-1.284 5.085-2.049 1.696-.783 3.527-1.126 5.258-1.782a3.008 3.008 0 011.329-.158c.874.09 1.466-.649 2.349-.646.828.003 1.667-.33 2.497-.527.885-.21 1.814-.163 2.727-.354 2.367-.495 4.787-.451 7.194-.448 2.787.003 5.583-.093 8.356.113 2.059.153 4.13.424 6.165.864 1.297.28 2.619.453 3.906.771 1.035.256 2.077.484 3.095.844.791.28 1.619.482 2.428.746 1.091.356 2.111.867 3.184 1.257 1.896.69 3.792 1.407 5.577 2.368.798.429 1.552.943 2.323 1.406.757.454 1.571.849 2.361 1.274 2.049 1.104 3.897 2.491 5.764 3.859a49.077 49.077 0 013.926 3.216c1.186 1.075 2.438 2.087 3.536 3.249 1.512 1.601 3.132 3.102 4.355 4.977.647.992 1.617 1.758 2.306 2.763.826 1.206 1.534 2.485 2.419 3.656 1.088 1.44 1.911 3.056 2.72 4.667.683 1.359 1.227 2.791 1.965 4.118 1.185 2.133 1.782 4.47 2.587 6.74.738 2.08 1.088 4.252 1.71 6.351.627 2.118.885 4.267 1.177 6.44.482 3.587.687 7.177.553 10.779-.103 2.773-.41 5.534-.854 8.282-.154.955-.497 1.889-.453 2.877.027.593-.439 1.001-.553 1.581a52.26 52.26 0 01-1.563 5.961c-.638 1.978-1.216 3.981-2.14 5.839-.907 1.825-1.672 3.713-2.692 5.497-.721 1.261-1.501 2.483-2.223 3.739-1.018 1.772-2.324 3.339-3.386 5.076-.324.53-.891.909-1.26 1.446-1.597 2.331-3.758 4.147-5.667 6.196-1.433 1.538-3.09 2.798-4.656 4.171-1.887 1.656-3.988 2.997-6.106 4.342-1.117.709-2.225 1.451-3.373 2.115-1.056.61-2.184 1.093-3.261 1.668a41.61 41.61 0 01-4.298 1.994c-1.47.581-2.995 1.022-4.476 1.577-1.315.493-2.687.917-4.032 1.13-1.457.23-2.772.84-4.205 1.108-1.822.341-3.673.468-5.481.865-.082.018-.168.017-.252.02-2.437.083-4.847.62-7.298.37zm-.088-21.695v.003h2.533c3.321.001 6.643.007 9.964-.006.33-.001.776.171.94-.314.678-2.003 1.357-4.006 1.997-6.021.115-.363.181-.737.342-1.094.326-.721.638-1.452.887-2.202.406-1.222.737-2.47 1.137-3.694.507-1.552 1.157-3.066 1.551-4.644.514-2.056 1.557-3.912 2.065-5.967.268-1.083.759-2.11 1.098-3.179.081-.256.17-.869-.367-.649-.432.177-.889.243-1.32.42-1.822.747-3.313 2.036-5.04 2.939-1.29.674-2.489 1.527-3.687 2.377-1.25.887-2.69 1.515-4.079 2.189-.379.184-.732.077-1.087-.415-1.31-1.816-2.411-3.811-4.168-5.272-.713-.593-1.148-1.431-1.889-2.002-1.122-.863-1.4-.915-2.274.164-.721.89-1.494 1.74-2.217 2.627-1.205 1.481-2.461 2.913-3.47 4.543-.246.397-.717.597-1.078.328-.846-.63-1.878-.858-2.753-1.422-2.015-1.298-4.062-2.548-6.106-3.802-.941-.578-2.01-.935-2.882-1.633-.564-.452-1.232-.699-1.877-.992-.288-.131-.635-.205-.886-.021-.283.206.079.436.098.66.08.984.543 1.828.902 2.721.611 1.52 1.123 3.081 1.64 4.637.388 1.168.645 2.386 1.1 3.526.397.995.484 2.114 1.028 3.013.53.876.835 1.826 1.061 2.76.241.994.606 1.951.934 2.893.647 1.86 1.288 3.723 1.828 5.612.54 1.891.453 1.917 2.424 1.917h11.651zm31.234-48.904v-.072c3.8 0 7.6.007 11.4-.007.57-.002 1.202.162 1.675-.323a6.426 6.426 0 001.515-2.53c.374-1.198.793-2.385 1.154-3.589.28-.936.565-1.871.903-2.792.48-1.311.826-2.67 1.246-4.003.241-.766.693-1.466.92-2.209.206-.675.368-1.376.634-2.035.51-1.264.953-2.567 1.34-3.856.542-1.805 1.042-3.625 1.661-5.409.095-.274.236-.575-.002-.778-.206-.175-.449.043-.685.136-2.89 1.15-5.389 2.971-7.993 4.611-1.384.872-2.742 1.827-4.315 2.297-.538.161-1.326.735-1.845-.095-.46-.736-1.086-1.274-1.734-1.823-.536-.454-1.144-.941-1.429-1.549-.829-1.768-2.24-3.071-3.406-4.569-.174-.223-.399-.166-.677-.088-.541.152-.708.708-1.136.93-1.132.587-1.684 1.738-2.582 2.541-.565.506-.46 1.302-.931 1.807-.969 1.038-1.949 2.073-3.154 2.85-.422.272-.864.38-1.344.036-1.983-1.422-4.253-2.355-6.26-3.772-1.943-1.372-4.152-2.367-6.228-3.557-.215-.123-.403-.268-.581-.102-.174.162-.06.39.022.613.303.823.537 1.671.841 2.493.588 1.592.751 3.338 1.747 4.783.072.105.064.268.082.406.134 1.046.553 2.026.886 3.001.539 1.578.98 3.186 1.497 4.769.654 2.004 1.295 4.01 2.034 5.986.488 1.307.983 2.622 1.216 4.009.228 1.354.845 1.891 2.215 1.89h11.314zm-55.768-.131v.069c1.66 0 3.32-.004 4.98.003.496.002.796-.124.987-.676.402-1.162 1.073-2.221 1.395-3.421.262-.981.742-1.893 1.02-2.855a83.511 83.511 0 012.244-6.68c.893-2.329 1.64-4.694 2.359-7.076.616-2.039 1.27-4.068 1.908-6.1.093-.298.236-.69-.016-.859-.165-.111-.584-.007-.818.232-.48.491-1.11.873-1.652 1.184a90.24 90.24 0 00-4.134 2.501c-2.099 1.359-4.283 2.584-6.667 3.434-.799.285-1.289.284-1.733-.444-.58-.95-1.207-1.861-2.133-2.526-.731-.525-.981-1.414-1.52-2.095-.897-1.134-1.925-2.102-3.063-2.966-.287-.218-.687-.356-.979-.006-.868 1.041-1.682 2.126-2.563 3.156-1.436 1.678-2.541 3.674-4.593 4.768-.457.244-.799.432-1.357.11-1.054-.61-2.085-1.273-3.146-1.845-1.31-.707-2.544-1.523-3.777-2.327-1.743-1.136-3.51-2.19-5.459-2.928-.196-.074-.341-.301-.58-.051-.198.207-.203.379-.15.665.093.507.488.841.591 1.359.186.929.544 1.825.844 2.73.355 1.07.822 2.104 1.209 3.152a46.116 46.116 0 011.064 3.173c.318 1.102.692 2.193 1.019 3.291.288.966.582 1.953.888 2.902.527 1.634 1.205 3.226 1.701 4.882.456 1.523.928 3.042 1.86 4.383.322.463.642.598 1.154.609 4.768.1 9.541-.172 14.307.231 1.593.135 3.206.021 4.81.021zm28.462-84.942c1.239.077 2.468.154 3.644.636.684.28.668.811.626 1.357-.04.528-.228.955-.797 1.207-.756.334-1.444.309-2.242.114-.775-.189-1.621-.114-2.436-.101-.479.008-.658-.159-.63-.63.035-.588.076-1.181.039-1.767-.042-.667.208-.917.869-.823.303.043.618.007.927.007zm7.574 165.512c1.781.035 2.532.776 3.363 2.405.331.649.368 1.337.505 1.981.305 1.428-.46 3.542-2.29 4.093-.939.283-1.931.097-2.829.543-.344.171-.638.027-.728-.494-.361-2.097-.79-4.182-1.012-6.301-.003-.028-.005-.056-.012-.083-.407-1.708-.408-1.729 1.386-1.839.587-.035 1.093-.45 1.617-.305z" fill="#056ca4"/><path d="M100.215 146.745H88.562c-1.971 0-1.883-.026-2.424-1.917-.539-1.889-1.181-3.753-1.828-5.612-.328-.943-.693-1.899-.934-2.893-.226-.934-.531-1.884-1.061-2.76-.544-.899-.63-2.018-1.028-3.013-.455-1.14-.711-2.357-1.1-3.526-.517-1.556-1.029-3.117-1.64-4.637-.359-.893-.822-1.737-.902-2.721-.018-.224-.381-.454-.098-.66.252-.183.599-.109.886.021.645.293 1.313.54 1.877.992.872.698 1.941 1.056 2.882 1.633 2.044 1.254 4.09 2.504 6.106 3.802.875.564 1.907.792 2.753 1.422.361.268.832.068 1.078-.328 1.009-1.63 2.265-3.062 3.47-4.543.723-.888 1.496-1.737 2.217-2.627.874-1.08 1.153-1.028 2.274-.164.741.57 1.176 1.409 1.889 2.002 1.757 1.461 2.859 3.456 4.168 5.272.355.493.708.599 1.087.415 1.39-.674 2.83-1.302 4.079-2.189 1.198-.85 2.398-1.702 3.687-2.377 1.727-.903 3.218-2.192 5.04-2.939.431-.177.889-.243 1.32-.42.538-.22.448.393.367.649-.339 1.069-.83 2.095-1.098 3.179-.508 2.055-1.551 3.911-2.065 5.967-.395 1.578-1.045 3.092-1.551 4.644-.4 1.225-.731 2.472-1.137 3.694-.249.75-.561 1.481-.887 2.202-.162.357-.227.731-.342 1.094-.64 2.015-1.319 4.018-1.997 6.021-.164.485-.61.312-.94.314-3.321.013-6.642.006-9.964.006h-2.533c.002-.001.002-.002.002-.003zm31.234-48.904c-3.772 0-7.543-.001-11.315.001-1.37.001-1.987-.536-2.215-1.89-.233-1.386-.727-2.701-1.216-4.009-.738-1.976-1.38-3.982-2.034-5.986-.517-1.583-.958-3.191-1.497-4.769-.333-.975-.752-1.955-.886-3.001-.018-.138-.01-.301-.082-.406-.995-1.445-1.159-3.191-1.747-4.783-.304-.823-.538-1.671-.841-2.493-.082-.224-.196-.451-.022-.613.179-.166.366-.021.581.102 2.075 1.19 4.285 2.184 6.228 3.557 2.006 1.417 4.276 2.35 6.26 3.772.48.344.921.236 1.344-.036 1.205-.777 2.184-1.812 3.154-2.85.471-.504.366-1.301.931-1.807.898-.804 1.451-1.954 2.582-2.541.428-.222.595-.778 1.136-.93.279-.079.503-.136.677.088 1.166 1.498 2.577 2.801 3.406 4.569.285.608.893 1.095 1.429 1.549.648.549 1.274 1.088 1.734 1.823.519.83 1.308.256 1.845.095 1.573-.47 2.931-1.425 4.315-2.297 2.604-1.641 5.103-3.462 7.993-4.611.236-.094.479-.312.685-.136.238.203.097.504.002.778-.619 1.783-1.119 3.604-1.661 5.409a44.679 44.679 0 01-1.34 3.856c-.266.659-.428 1.36-.634 2.035-.227.743-.678 1.444-.92 2.209-.42 1.333-.766 2.692-1.246 4.003a49.04 49.04 0 00-.903 2.792c-.36 1.204-.78 2.391-1.154 3.589a6.43 6.43 0 01-1.515 2.53c-.474.485-1.105.321-1.675.323-3.8.014-7.6.007-11.4.007l.001.071zm-55.768-.131c-1.604 0-3.217.113-4.809-.021-4.767-.403-9.539-.132-14.307-.231-.511-.011-.831-.146-1.154-.609-.932-1.341-1.403-2.86-1.86-4.383-.496-1.656-1.174-3.248-1.701-4.882-.306-.949-.6-1.936-.888-2.902-.327-1.098-.701-2.189-1.019-3.291a46.298 46.298 0 00-1.064-3.173c-.387-1.048-.854-2.082-1.209-3.152-.301-.905-.658-1.801-.844-2.73-.104-.518-.498-.852-.591-1.359-.053-.286-.048-.458.15-.665.239-.25.384-.024.58.051 1.949.737 3.716 1.792 5.459 2.928 1.234.804 2.468 1.62 3.777 2.327 1.061.572 2.092 1.235 3.146 1.845.558.323.9.134 1.357-.11 2.052-1.095 3.157-3.09 4.593-4.768.881-1.029 1.695-2.115 2.563-3.156.292-.35.692-.212.979.006 1.138.864 2.166 1.832 3.063 2.966.539.681.789 1.57 1.52 2.095.926.665 1.553 1.576 2.133 2.526.444.728.934.729 1.733.444 2.384-.85 4.568-2.075 6.667-3.434a90.24 90.24 0 014.134-2.501c.542-.311 1.172-.693 1.652-1.184.234-.239.653-.343.818-.232.252.169.11.562.016.859-.638 2.033-1.292 4.061-1.908 6.1-.719 2.381-1.466 4.747-2.359 7.076a83.377 83.377 0 00-2.244 6.68c-.278.962-.758 1.874-1.02 2.855-.321 1.201-.993 2.259-1.395 3.421-.191.551-.491.678-.987.676-1.66-.007-3.32-.003-4.98-.003l-.001-.069z" fill="#fccb04"/></svg>