<svg xmlns="http://www.w3.org/2000/svg" viewBox="0 0 200 200"><path d="M113.995 200.006H85.271c-.514-.423-.653-1.034-.825-1.631-1.973-6.808-4.051-13.586-6.034-20.391-.263-.901-.742-1.43-1.65-1.697-4.053-1.194-7.907-2.882-11.626-4.875-.955-.512-1.748-.479-2.727.048-6.356 3.426-12.69 6.893-19.034 10.34-.964.524-1.65.287-2.358-.425-2.499-2.515-5.01-5.017-7.518-7.524-3.573-3.572-7.149-7.14-10.715-10.719-1.191-1.196-1.2-1.256-.407-2.737a1660.079 1660.079 0 0110.263-18.924c.485-.879.626-1.659.149-2.62-1.893-3.815-3.519-7.747-4.759-11.824-.297-.978-.855-1.407-1.8-1.687-6.925-2.047-13.85-4.094-20.767-6.171-.387-.116-.759-.247-1.045-.547V89.899c.976-.774 2.209-.888 3.338-1.224 6.112-1.821 12.203-3.711 18.346-5.424 1.413-.394 2.18-1.102 2.656-2.559 1.46-4.471 3.483-8.714 5.804-12.805.361-.636.398-1.219.231-1.9-1.619-6.626-3.196-13.262-4.786-19.895-1.363-5.685-2.673-11.384-4.111-17.05-.427-1.68-.08-2.686 1.295-3.7 5.632-4.153 11.137-8.476 16.712-12.707 5.151-3.91 10.28-7.848 15.405-11.791.469-.361 1.009-.535 1.493-.837h77.394c2.051.997 3.714 2.551 5.497 3.918 7.138 5.474 14.314 10.898 21.445 16.381 2.389 1.837 4.766 3.69 7.191 5.477.956.705 1.185 1.466.904 2.625-2.075 8.57-4.107 17.151-6.18 25.722-.958 3.962-1.883 7.933-2.86 11.891-.209.846-.083 1.492.478 2.199 1.725 2.174 2.712 4.767 3.847 7.261.861 1.892 1.656 3.827 2.233 5.831.277.962.866 1.452 1.806 1.725 6.85 1.989 13.669 4.086 20.522 6.068.557.161 1.111.319 1.499.795v28.723c-.358.435-.86.603-1.375.755-6.716 1.977-13.416 4.006-20.14 5.955-1.004.291-1.56.777-1.863 1.797-1.201 4.044-2.792 7.941-4.71 11.699-.453.887-.39 1.626.088 2.492 3.554 6.438 7.017 12.926 10.543 19.38.511.935.241 1.561-.426 2.225-2.764 2.751-5.519 5.512-8.276 8.271-3.227 3.229-6.454 6.458-9.684 9.683-1.529 1.527-1.533 1.526-3.39.552-6.238-3.272-12.38-6.723-18.599-10.032-.888-.473-1.626-.5-2.49-.041-3.805 2.021-7.738 3.747-11.876 4.969-.877.259-1.281.821-1.523 1.654-1.978 6.808-4.031 13.593-6.037 20.393-.174.596-.31 1.209-.824 1.631z"/><path d="M162.269 72.52c1.331 2.202 2.188 4.4 3.041 6.591.748 1.919 1.464 3.859 2.032 5.837.252.876.699 1.261 1.493 1.495a4199.787 4199.787 0 0115.185 4.519c1.974.591 3.932 1.239 5.918 1.787.542.149.664.355.662.871-.016 7.091-.015 14.183-.001 21.274.001.505-.103.715-.652.877-5.562 1.631-11.108 3.315-16.66 4.979-1.522.456-3.047.9-4.573 1.343-.569.165-.784.622-.904 1.123-1.327 5.569-3.655 10.742-6.296 15.782-.419.799-.378 1.351.049 2.126 2.949 5.362 5.833 10.76 8.745 16.143.691 1.277 2.122 2.668 1.923 3.775-.22 1.224-1.914 2.188-2.978 3.253-4.04 4.046-8.094 8.078-12.116 12.141-.495.5-.818.627-1.501.251-6.191-3.409-12.417-6.755-18.618-10.147-.985-.539-1.835-.675-2.88-.054-4.61 2.741-9.494 4.895-14.714 6.14-1.848.441-2.068 1.822-2.467 3.13-1.226 4.026-2.346 8.084-3.524 12.125-.685 2.35-1.422 4.684-2.093 7.038-.228.799-.547 1.139-1.491 1.131-6.825-.058-13.651-.059-20.476.002-.897.008-1.216-.349-1.424-1.051-1.425-4.818-2.843-9.638-4.267-14.457-.621-2.101-1.291-4.188-1.854-6.304-.217-.816-.689-1.16-1.432-1.363-4.662-1.276-9.258-2.849-13.355-5.387-2.469-1.53-4.302-1.31-6.651.052-5.405 3.136-10.96 6.013-16.439 9.022-.83.456-1.34.393-2.054-.336a1258.478 1258.478 0 00-14.19-14.204c-.643-.635-.744-1.11-.308-1.905 3.374-6.16 6.683-12.356 10.077-18.505.622-1.127.709-1.943.035-3.165a64.423 64.423 0 01-6.035-15.185c-.16-.624-.519-1.007-1.261-1.225-7.044-2.069-14.059-4.238-21.107-6.293-.665-.194-.704-.417-.703-.934.007-7.047.01-14.094-.005-21.142-.001-.571.128-.715.75-.893 5.409-1.545 10.788-3.194 16.178-4.802 1.769-.528 3.551-1.011 5.317-1.546.565-.171.993-.368 1.211-1.138 1.209-4.259 2.826-8.369 4.935-12.494 1.295 5.478 2.544 10.775 3.801 16.07.885 3.726 1.775 7.45 2.672 11.173a30970.67 30970.67 0 005.57 23.08c1.374 5.686 2.769 11.366 4.128 17.056 1.04 4.352 2.042 8.713 3.05 13.073.24 1.039 1.211 1.302 1.919 1.799 8.301 5.83 16.631 11.619 24.943 17.433 4.987 3.489 9.994 6.952 14.907 10.544 1.212.886 1.868 1.121 3.26.117 7.875-5.683 15.874-11.193 23.835-16.756 5.802-4.053 11.612-8.094 17.412-12.15.311-.218.599-.458.703-.901 1.464-6.195 2.973-12.379 4.427-18.577 2.093-8.92 4.26-17.823 6.416-26.729 1.507-6.228 2.974-12.468 4.464-18.702 1.321-5.52 2.612-11.051 3.971-16.807z" fill="#bfbfbf"/><path d="M99.523 3.996c11.879 0 23.759.042 35.638-.055 1.443-.012 2.257.73 3.196 1.433a1261.17 1261.17 0 0112.015 9.091c5.47 4.192 10.92 8.41 16.368 12.629.832.645 2.171 1.019 1.748 2.498-1.029 3.603-1.787 7.269-2.655 10.911-1.744 7.323-3.524 14.637-5.296 21.953-1.468 6.062-2.97 12.116-4.412 18.184-2.039 8.581-4.041 17.169-6.193 25.723-1.637 6.509-3.063 13.072-4.629 19.599-1.626 6.776-3.327 13.533-4.941 20.312-.179.75-.455 1.523-.479 2.268-.079 2.405-1.648 3.661-3.39 4.873-7.9 5.498-15.791 11.01-23.679 16.525-4.175 2.919-8.349 5.84-12.497 8.799-.638.455-1.047.405-1.667-.032-8.29-5.848-16.602-11.666-24.909-17.49-4.454-3.123-8.91-6.243-13.363-9.368-.337-.236-.561-.463-.681-.965-1.892-7.905-3.941-15.773-5.764-23.693-1.515-6.584-3.116-13.146-4.693-19.715-2.07-8.618-4.177-17.226-6.24-25.845-1.022-4.27-1.953-8.561-2.971-12.832-1.745-7.323-3.523-14.637-5.29-21.954-1.374-5.686-2.743-11.374-4.143-17.054-.207-.84-.144-1.399.641-1.977 3.66-2.695 7.274-5.452 10.881-8.216 3.957-3.032 7.887-6.1 11.833-9.146 2.675-2.065 5.369-4.105 8.026-6.193.458-.36.914-.255 1.376-.255 12.057-.01 24.113-.008 36.17-.008z" fill="#bfbfbf"/><path d="M99.49 9.315c10.637 0 21.276.086 31.911-.064 2.466-.035 4.308.736 6.16 2.182 5.119 3.997 10.353 7.846 15.481 11.831 3.011 2.34 5.985 4.725 9.102 6.923.602.424.324.953.23 1.38-.586 2.644-1.236 5.274-1.869 7.907-1.761 7.318-3.517 14.638-5.288 21.953-1.468 6.061-2.991 12.109-4.424 18.179-2.027 8.583-4.063 17.163-6.167 25.728-1.067 4.343-2.073 8.704-3.12 13.054-1.914 7.947-3.806 15.899-5.698 23.851-.378 1.59-.716 3.191-1.075 4.786-.222.985-.847 1.598-1.677 2.174-6.878 4.778-13.719 9.61-20.575 14.42-4.134 2.901-8.281 5.784-12.403 8.702-.439.311-.689.331-1.14.014-5.188-3.651-10.399-7.268-15.597-10.904-5.979-4.181-11.942-8.384-17.934-12.546-1.03-.716-1.147-1.842-1.365-2.843-.965-4.415-2.091-8.789-3.161-13.177-1.753-7.189-3.408-14.402-5.134-21.598-1.465-6.106-2.992-12.197-4.454-18.304-1.814-7.573-3.577-15.158-5.387-22.733-1.279-5.354-2.611-10.696-3.898-16.049a6279.978 6279.978 0 01-5.389-22.59c-.14-.59-.173-1.047.55-1.583 4.77-3.533 9.444-7.196 14.155-10.808 4.159-3.189 8.321-6.373 12.494-9.544.509-.387 1.148-.345 1.768-.345 11.3.006 22.602.004 33.904.004z"/><path d="M99.559 14.634c10.059 0 20.12.096 30.177-.069 2.453-.04 4.226.805 6.004 2.237 2.8 2.256 5.677 4.417 8.535 6.6 3.921 2.996 7.856 5.974 11.783 8.963.291.221.362.445.262.866-.765 3.224-1.422 6.474-2.207 9.692a2521.12 2521.12 0 00-5.594 23.339c-.94 4.018-1.95 8.024-2.91 12.039-1.75 7.32-3.524 14.633-5.283 21.951-1.357 5.646-2.695 11.296-4.064 16.939-1.643 6.77-3.38 13.518-4.929 20.308-.536 2.348-1.214 4.664-1.636 7.037-.082.459-.379.705-.686.919-6.013 4.196-12.045 8.364-18.056 12.564-3.717 2.597-7.409 5.23-11.093 7.872-.3.215-.393.238-.713.013-6.074-4.262-12.172-8.49-18.252-12.743-3.644-2.549-7.268-5.126-10.895-7.699-.394-.28-.593-.641-.72-1.171-1.532-6.396-3.19-12.763-4.688-19.167-1.558-6.659-3.182-13.302-4.781-19.951-1.518-6.315-3.049-12.627-4.545-18.946-1.565-6.613-3.166-13.218-4.744-19.828-2.127-8.911-4.23-17.827-6.407-26.726-.519-2.122-1.19-4.231-1.451-6.428-.059-.498.063-.725.367-.955 5.039-3.812 10.092-7.604 15.122-11.428 2.45-1.863 4.87-3.766 7.277-5.685.601-.479 1.242-.549 1.956-.549 10.723.009 21.447.006 32.171.006z" fill="#bfbfbf"/><path d="M110.965 69.702c-1.021 3.899-2.004 7.651-2.28 11.541-.059.835-.308 1.484 1.19.853 2.036-.858 3.965-1.816 5.8-3.018.906-.593 1.506-.39 1.714.928.663 4.209 1.038 7.057-3.12 10.278-.489.379-.512.645-.021 1.089 2.947 2.664 5.382 5.753 7.338 9.202a39.2 39.2 0 013.671 8.877c.795 2.854 1.797 9.003 1.388 11.867-1.054-1.15-1.956-2.292-3.021-3.253-1.085-.979-2.001-2.191-3.5-2.861-.895 8.821-4.272 16.363-10.927 22.376-.012-2.346.155-4.592-.265-6.814-.055-.29-.212-.561-.321-.841-.24.199-.515.368-.713.602-2.846 3.359-6.309 5.854-10.225 7.88-2.672 1.382-5.501 2.156-8.324 3.001-.876.262-1.887.169-3.066.457.967-1.615 1.858-3.003 2.646-4.447.776-1.421 1.469-2.89 2.147-4.361.143-.309.146-.642-.497-.485-2.605.634-5.261.811-7.941.682-3.266-.157-6.348-.998-9.258-2.469-.453-.229-1.022-.207-1.503-.798 3.934-1.949 7.507-4.364 10.525-7.709-3.37-1.103-6.208-2.926-8.779-5.838 2.499.239 4.568-.115 6.6-.74 1.414-.436 2.655-1.214 3.915-1.954.17-.1.385-.264.276-.534-.114-.281-.378-.163-.574-.168-1.382-.032-2.802.193-4.079-.671 1.154-1.659 2.578-3.163 3.421-5.06.157-.354.55-.333.905-.41 2.473-.533 4.806-1.405 6.869-2.926 1.263-.931 1.861-2.037 1.229-3.597-.516-1.273-.646-2.968-2.324-3.214-1.355-.199-2.807-.366-4.173.152-.882.334-1.855.252-2.671.994-.98.892-.492 1.971-.752 3.023-3.075-1.568-5.709-3.505-6.733-6.972-.268-.907-.156-1.706.642-2.543 2.01-2.109 4.243-3.718 7.134-4.327.688-.145 1.031-.794 1.482-1.254.841-.858 1.627-1.743 2.757-2.274.516-.243.791-.685.69-1.456-.49-3.722-1.237-7.356-2.862-10.775-.201-.424-.374-1.095-.177-1.416.247-.403.793.106 1.181.211 2.318.624 4.6 1.376 6.692 2.589.663.385.755-.273.958-.523.942-1.16 1.772-2.412 2.844-3.467.699-.688 1.29-1.27 2.237-.151 1.082 1.279 2.36 2.395 3.248 3.841.272.442.355.674 1.013.25 2.055-1.322 4.214-2.483 6.57-3.23.36-.117.664-.117 1.024-.137zm26.601-26.622h-6.193c.672-.658 1.449-1.151 1.51-2.128.031-.508-.026-.814-.681-.8-1.946.041-3.894-.018-5.84.026-1.228.028-1.89 1.289-1.569 2.884h-5.508c1.918-1.446 3.011-3.417 4.482-5.068.556-.623 3.323-.733 3.911-.176.065.062.07.211.215.211 1.548 0 3.205.335 4.609-.116 1.029-.33 1.98-.265 2.96-.41.701-.104.953.175.884.877-.056.57.008 1.15-.015 1.724-.042 1.071.093 2.075 1.235 2.976zm-85.121-5.574c-.069.253-.097.474-.189.666-.314.659-.77 1.339-.204 2.033.612.75 1.563.62 2.315.441.901-.214 1.864-.626 2.184-1.659.416-1.345 1.336-1.671 2.603-1.489.39.056.794.009 1.198.009-.929 3.484-3.71 5.005-6.832 5.294-1.409.13-2.86.17-4.128-.759-1.159-.848-.851-1.903-.636-3.037.218-1.149.734-1.691 1.948-1.513.561.083 1.143.014 1.741.014zm41.964-3.989c.389-1.427 1.87-2.688.301-4.254 2.716 0 5.397-.077 8.069.033 1.288.053 2.403.691 3.007 1.963.607 1.278.031 2.245-1.361 2.257-.662.006-1.325.001-1.997.001.307-1.73.007-2.065-1.66-2.139-1.366-.061-2.656-.118-3.019 1.647-.098.476-.531.505-.951.496-.753-.015-1.506-.004-2.389-.004zm-3.594 4.154c-2.208 2.143-3.982 4.363-7.056 5.007-3.187.669-5.58-.89-5.607-4.058-.004-.428.027-1.338 1.014-1.119.127.028.265.01.398.003 1.002-.056 1.821-.282 1.959 1.364.173 2.074 2.114 2.489 3.878 1.02.339-.282.632-.62.945-.933 1.673-1.673 1.673-1.673 4.469-1.284zm27.38-.003c-.277 2.954-2.485 5.004-5.437 5.145-1.263.06-2.533.078-3.786-.252-1.835-.483-3.354-2.544-3.238-4.382.033-.514.168-.708.687-.68.619.034 1.246.059 1.86-.004 1.044-.108 1.547.061 1.513 1.361-.04 1.546 1.734 2.222 3.823 1.799 1.89-.383 3.266-1.492 4.578-2.987zm-43.323-.071c-.381 3.063-2.431 5.008-5.359 5.21-1.304.09-2.624.093-3.918-.25-1.718-.456-3.194-2.367-3.207-4.137-.005-.625.068-1.038.842-.922.347.052.708.01 1.062.008 1.134-.007 2.33-.397 2.201 1.643-.083 1.309 1.888 1.884 3.797 1.495 1.876-.381 3.266-1.457 4.582-3.047zm69.374-.091l-1.49 3.807c2.991-.546 6.115.921 8.885-1.352-.36.872-.693 1.725-1.067 2.558-.147.327-.495.309-.812.308-3.884-.003-7.769-.002-11.96-.002 1.623-.903 2.182-2.256 2.571-3.647.384-1.37 1.139-1.925 2.534-1.682.387.068.795.01 1.339.01zm-78.587-5.089c2.729-2.533 5.894-3.209 9.345-3.196 1.324.005 2.335.893 3.626.883.43-.004.245.447.146.733-.264.768-.522 1.537-.814 2.399-.974-1.487-2.142-2.614-4.101-2.393-.658.074-1.308.192-1.826.553-1.947 1.356-4.116 1.082-6.376 1.021zm55.654.813c-1.794-2.784-3.947-3.02-6.388-1.574-1.88 1.114-3.85.703-5.94.806 2.878-2.749 6.272-3.343 9.908-3.207 1.102.041 1.959.88 3.096.852.42-.01.234.451.135.736-.264.767-.523 1.537-.811 2.387zm11.931-2.268c-1.267 1.655-1.267 1.655-4.828 1.423.431-.969 2.698-1.617.225-3.122 2.714 0 5.038.009 7.362-.008.47-.003.563.188.61.623.275 2.508.222 2.547-2.243 2.593-.905.018-1.496-.082-1.126-1.509zm-40.948 1.49c-1.124 0-2.077.004-3.03-.003-.206-.001-.385.002-.537-.245-.836-1.359-2.016-.944-3.095-.457-1.694.764-1.873.843-3.939.592 1.849-2.646 5.893-3.529 8.144-2.861 1.543.459 1.76 1.706 2.457 2.974zm3.454 5.054c-.249 1.816-1.876 3.263-1.308 5.287h-4.975c1.577-.87 2.13-2.274 2.536-3.676.387-1.334 1.077-1.858 2.427-1.622.427.074.879.011 1.32.011zm3.799.001c1.014 0 1.8-.002 2.586.001 1.338.005 1.516.34 1.043 1.662-.412 1.152-1.296 2.227-.686 3.656h-2.014c-1.397-.002-1.764-.503-1.288-1.81.19-.523.428-1.032.686-1.525.352-.67.48-1.307-.327-1.984z"/><path d="M78.368 101.31c-.133 1.462.494 1.849 1.722 1.918 2.999.171 5.715-.743 8.39-1.903.403-.175.767-.381 1.268-.139-.755.978-1.856 1.558-2.873 1.94-2.153.809-4.347 1.641-6.76 1.432-.788-.068-1.464-.319-2.034-.745-1.032-.773-.488-1.578.287-2.503zM51.606 32.453c.276-1.102 1.008-1.992.361-3.135h5.263c-.997.413-1.509.942-1.768 1.671-.422 1.188-1.187 1.729-2.478 1.477-.425-.083-.88-.013-1.378-.013zm8.004-.109c.201-.892.834-1.683.473-2.701-.188-.53.351-.368.592-.371 1.401-.02 2.802-.01 4.328-.01-.456.466-1.061.604-1.227 1.154-.654 2.151-2.251 2.344-4.166 1.928zm89.001-3.037a3.11 3.11 0 00-1.474 1.81c-.379 1.197-1.151 1.502-2.288 1.347-.477-.065-.97-.011-1.476-.011.22-1.053.974-1.984.375-3.147l4.863.001zm-44.405 5.806c-.542.632-1.032.803-1.625.802-2.743-.009-5.486.003-8.228-.014-.297-.002-.803.214-.813-.36-.012-.673.561-.413.884-.415 3.184-.021 6.368-.013 9.782-.013zm-.967 2.127c-3.19 0-6.376.003-9.562-.005-.275-.001-.662.124-.684-.374-.023-.51.361-.412.646-.413 2.922-.006 5.845.014 8.767-.019.593-.007.756.277.833.811zM79.362 48.546c.835-.354 1.749.383 2.029-.807.055-.234.57-.213.715-.082.485.439.159 1.06.234 1.599.06.433-.222.547-.567.472-.221-.048-.751.324-.574-.435.078-.332-2.413-.585-2.504-.178-.249 1.123-1.016.402-1.492.635l-.258-.301c.649-.568 1.285-1.152 1.952-1.698.284-.232.637-.206.964-.026l-.499.821zm56.374.86c.565-.478 1.13-.955 1.694-1.434.638-.542.651-.547.879.242.074.256.266.226.394.185.447-.141 1.143.397 1.331-.37.138-.562.495-.436.799-.385.438.074.307.487.273.749-.057.443.286 1.011-.244 1.303-.229.126-.848.057-.868-.024-.371-1.567-1.557-.454-2.312-.647-.247-.063-.539.998-1.311.719-.119-.043-.263-.017-.395-.024l-.24-.314zm-79.915.3c.782-.741 1.331-1.299 1.921-1.808.528-.456.565-.432.776.306.069.241.25.243.394.197.448-.14 1.145.39 1.332-.367.139-.561.489-.439.796-.391.444.069.312.483.279.744-.056.445.283 1.011-.237 1.309-.226.129-.849.06-.867-.019-.369-1.567-1.556-.465-2.311-.652-.265-.066-.535 1.006-1.311.721-.119-.044-.263-.017-.772-.04zm81.431-4.221c-.056.401-.008.637-.642.597-.865-.055-1.886-.49-2.648.426-.087.105-.478.091-.628-.013-.539-.371-1.46-.711-1.846-.429-.58.425-.989.733-1.587-.005-.153-.189-.798-.179-1.249.276.063-.918.576-.851 1.037-.851 2.514-.002 5.028-.001 7.563-.001zm-34.035 1.705c1.043-.619 1.558-1.933 2.95-1.662-.062.54-.726.695-.73 1.305-.002.375-2.394.707-3.045.451-.136-.054-.128-.441-.241-.3-.29.359-.593.59-.86.131-.099-.169.192-.642.404-.893.194-.23-.482-.847.373-.751.41.046.783.022.884.534.067.337.15.671.265 1.185zm42.028-.002c1.05-.634 1.563-1.953 3.013-1.641-.12.165-.241.281-.302.423-.795 1.844-2.205 1.577-3.663 1.045-.302-.11-.191.119-.271.194-.18.169-.428.202-.604.087-.352-.23-.075-.554.092-.62.589-.232-.4-1.197.603-1.201.441-.002.766.074.873.551l.259 1.162zm-20.111-.88c-1.112-.062-2.18.027-3.016-.148-1.013-.212-1.967.108-2.923-.131-.278-.069-.567-.05-.74.342-.146.332-.601.251-.809.108-.203-.14.062-.485-.018-.794-.087-.333.383-.189.597-.191 1.898-.016 3.796.008 5.693-.02.563-.008.914.208 1.216.834zm-20.144 3.754c.302-.538.524-.944.757-1.344.297-.51.803-.485 1.014-.087.61 1.147.999 1.258 1.854.128.399-.528.699-.3 1.22-.242-1.135 2.219-3.111 1.234-4.845 1.545zm19.588-1.557c-1.121 1.583-2.681 1.622-4.377 1.449.251-.445.525-.831.695-1.258.174-.438.498-.247.77-.269.211-.017.322.13.283.33-.048.242-.538.519.033.695.403.124.765-.017 1.051-.358.37-.444.757-.888 1.545-.589zm-51.842.038c-.76.886-1.601 1.468-2.781 1.471-.624.002-.993-.311-1.144-.852-.066-.235-.198-.667.274-.725.308-.038.72-.183.765.402.094 1.211.749.653 1.218.319.48-.341.779-1.011 1.668-.615zm27.396 0c-.779.904-1.633 1.487-2.81 1.464-.666-.013-1.059-.343-1.136-1-.028-.238-.08-.574.319-.577.269-.002.632-.175.726.304.267 1.358.882.763 1.435.228.393-.381.754-.757 1.466-.419zm-5.305.337c-.966 1.4-2.781 1.624-3.699.47-.235-.295-.481-.638-.085-.864.306-.174.964-.263 1.084.098.576 1.734 1.475.758 2.321.353.101-.049.197-.111.299-.156.01-.005.053.064.08.099zM64.335 33.462c1.583-1.296 3.125-.446 4.553-.805-.533.992-.533.992-4.553.805zm46.867.665c-1.203 1.354-2.807.386-4.204.616 1.22-1.256 2.804-.402 4.204-.616zm-5.341 3.113c.087-.553.273-.852.86-.811.791.056 1.591-.013 2.384.027.294.015.839-.249.837.287-.001.481-.504.504-.921.5-1.014-.01-2.029-.003-3.16-.003zm1.967-3.587c.87-1.06.87-1.06 4.635-.884-1.395 1.392-2.999.406-4.635.884zm-45.295 3.472c1.189-1.27 2.709-.373 4.067-.535-1.199 1.201-2.713.343-4.067.535zm1.09-2.393c1.25-1.215 2.812-.415 4.231-.601-1.214 1.342-2.816.387-4.231.601zm46.797.384c-.074.573-.284.844-.862.808-.836-.053-1.678.004-2.517-.024-.256-.009-.714.195-.706-.298.006-.319.316-.49.674-.488 1.103.007 2.207.002 3.411.002zm-43.353 0c-.071.581-.29.844-.864.808-.836-.052-1.679.004-2.517-.024-.257-.008-.716.191-.704-.301.007-.316.32-.489.678-.486 1.103.008 2.206.003 3.407.003zM83.3 49.838c.52-.364.159-1.722 1.377-1.385.563.156-.194.58.011 1.059h2.426l.004.325-3.818.001zm34.117-.252h2.405l.002.274h-3.807c.471-.414.147-1.739 1.415-1.398.434.117-.232.594-.015 1.124zm18.088.322h-3.811c.52-.44.134-1.767 1.398-1.45.521.131-.235.578.003.978.74.175 1.618-.136 2.41.472zm-10.961-12.726c1.098-1.398 2.633-.348 3.94-.689-1.091 1.385-2.628.366-3.94.689zm10.287-2.28c-.646-.271-1.844.313-1.832-.387.015-.934 1.174-.39 1.809-.427.575-.034 1.695-.369 1.686.293-.014 1.045-1.138.146-1.663.521zm-.312-1.387c-.455-.212-1.532.409-1.541-.381-.01-.838 1.046-.277 1.616-.395.465-.096.967-.023 1.452-.017.262.003.534-.011.55.378.016.391-.239.412-.516.414-.485.004-.97.001-1.561.001z"/><path d="M134.668 35.967c-.539-.365-1.662.501-1.684-.508-.015-.692 1.103-.339 1.672-.305.639.038 1.805-.514 1.826.411.016.728-1.18.12-1.814.402zm-9.085-.138c1.179-1.264 2.641-.446 3.967-.63-1.131 1.376-2.67.315-3.967.63zM63.455 46.136c.125-.503.385-.656.786-.653 1.055.009 2.11-.004 3.164.009.168.002.512-.129.409.248-.028.102.044.554-.456.355-.523-.208-1.105-.178-1.559.338-.168.191-.536.226-.687-.044-.426-.767-1.021-.255-1.657-.253zm63.205-11.369c1.043-1.289 2.459-.426 3.702-.619-1.013 1.346-2.476.335-3.702.619zm1.01-1.349c1.028-1.325 2.488-.351 3.713-.626-1.03 1.31-2.474.42-3.713.626zm6.841 3.871c-.482-.333-1.544.466-1.537-.511.005-.692 1.043-.335 1.561-.289.587.052 1.679-.595 1.693.419.009.664-1.104.158-1.717.381zm-33.125-2.518c1.082-1.164 2.442-.545 3.697-.606-1.018 1.342-2.49.305-3.697.606zm9.502 11.417c-1.547.233-2.739-.535-3.897.079-.202.107-.408-.022-.273-.344.061-.145-.187-.46.189-.424 1.206.115 2.501-.387 3.981.689zm-18.872.24c1.342-.731 2.449-1.221 3.785-.687.231.092.399.142.367.418-.019.167-.103.474-.242.348-1.122-1.022-2.188.225-3.276.039-.119-.02-.238-.044-.634-.118zM58.483 34.847c.393-1.386 1.422-.636 2.131-.762.369-.066 1.154-.337 1.169.303.013.585-.731.45-1.2.457-.661.009-1.322.002-2.1.002zm-4.648-.66c-.905 1.176-2.18.38-3.271.567.889-1.267 2.175-.411 3.271-.567zm89.018-.67c.024-.848.57-.884 1.108-.785.726.133 2.082-.38 2.058.294-.034.952-1.309.328-2.029.48-.338.07-.702.011-1.137.011zm3.079.673c-1.284 1.079-2.494.449-3.619.694.399-.966.755-1.037 3.619-.694zm-62.96-.094c-.918 1.38-2.29.378-3.418.725.898-1.381 2.284-.42 3.418-.725zm14.555.094c-1.284 1.079-2.494.449-3.619.694.4-.966.755-1.037 3.619-.694zm45.51 3.107c-.498-.338-1.558.453-1.553-.516.003-.697 1.026-.3 1.561-.299.498.001 1.469-.473 1.45.42-.015.723-.957.131-1.458.395zm-52.468-3.721c-.496-.293-1.496.348-1.485-.476.01-.732.999-.351 1.525-.345.516.006 1.505-.419 1.488.381-.016.79-1.016.148-1.528.44zm.734 2.867c-.15.443-.181.853-.76.808-.658-.051-1.324-.001-1.986-.017-.231-.006-.603.103-.579-.301.015-.26.244-.455.545-.481.088-.008.176-.008.265-.008l2.515-.001zm-9.419.117c-.732.782-.732.782-3.362.628.357-.874.74-.95 3.362-.628zm-22.869-3.043c.393-1.386 1.422-.636 2.131-.762.369-.066 1.154-.337 1.169.303.013.585-.731.45-1.2.457-.661.009-1.322.002-2.1.002zm.196 2.821c.561.32 1.506-.3 1.509.46.003.86-.963.399-1.47.405-.531.006-1.555.375-1.544-.317.014-.97 1.096-.055 1.505-.548zm-7.992.96c-.501-.286-1.501.344-1.498-.464.003-.748.992-.358 1.516-.355.519.003 1.508-.407 1.499.371-.008.792-1.008.162-1.517.448zm-.157-3.79c.105-.523.27-.859.866-.802.613.059 1.236.002 1.855.019.23.007.601-.112.589.291-.008.265-.236.482-.534.486-.926.014-1.851.006-2.776.006z"/><path d="M143.451 35.967c-.493-.27-1.437.338-1.446-.405-.011-.876.957-.407 1.459-.411.533-.004 1.556-.385 1.553.308-.005.95-1.059.18-1.566.508zm-55.272-.201c1.28-1.079 2.491-.442 3.616-.693-.399.966-.786 1.043-3.616.693zm-9.575 0c1.28-1.079 2.491-.442 3.616-.693-.398.966-.785 1.043-3.616.693zm-18.984.203c-.459-.29-1.386.383-1.404-.441-.017-.839.91-.388 1.371-.376.572.014 1.641-.429 1.648.342.008.863-1.068.175-1.615.475zm-7.887-.955c.581.306 1.523-.286 1.538.438.019.892-.952.419-1.45.42-.535.001-1.558.398-1.562-.299-.005-1.013 1.094-.046 1.474-.559z"/><path d="M90.595 33.999c.513.228 1.47-.267 1.478.33.011.839-.962.515-1.503.486-.52-.027-1.504.416-1.487-.386.017-.79 1.016-.147 1.512-.43zm-6.696-1.273c-.561.64-2.662 1.08-3.2.747-.088-.055-.2-.219-.175-.283.1-.25.27-.461.577-.463.884-.003 1.769-.001 2.798-.001zm56.492 13.83c-.316-.233-.626-.108-.954-.018-.773.212-.58-.446-.473-.693.325-.749 1.035-.209 1.56-.347.437-.115.616.121.607.586-.011.59-.418.428-.74.472zm-80.295-.168c-.31.197-.652.213-.998.089-.017-.006.069-.208.047-.305-.143-.625.136-.844.7-.677.5.148 1.405-.499 1.451.499.048 1.051-.738.396-1.2.394zm21.37.167c-.188-.165-.316-.15-.501-.121-.275.043-.708.49-.815-.288-.101-.731.245-.711.736-.664.175.017.358-.023.53.008.367.066.944-.266.936.532-.008.816-.576.416-.886.533zm19.203.158c-1.165-.613-2.232-.208-3.431-.147 1.836-1.425 2.723-1.419 3.431.147zm-30.804-.152c1.788-1.415 2.695-1.412 3.421.15-1.171-.608-2.24-.192-3.421-.15zm-14.834 1.85c.23.075.789-.121.655.287-.15.457-.205 1.192-.843 1.275-.658.086-.664-.478-.697-.979-.048-.737.46-.562.885-.583zm21.989-.007c-.678.618-.385 1.67-1.378 1.554-.601-.07-.608-.772-.441-1.172.316-.761.982-.237 1.819-.382zm38.5.062c-.353.566-.052 1.618-1.065 1.494-.519-.063-.539-.646-.447-1.069.216-.986.999-.167 1.512-.425zm-9.47-.723h3.836c-1.253.625-2.543.35-3.822.344l-.014-.344zm3.538 2.178c.304-.552.561-1.042.841-1.519a.54.54 0 01.694-.226c.398.17.048.403.012.626-.146.89-.462 1.51-1.547 1.119zm-43.097.019c.325-.585.583-1.075.865-1.551a.53.53 0 01.698-.209c.379.182.014.417-.013.638-.111.947-.533 1.426-1.55 1.122zm-3.475.017c.912-.464.614-1.805 1.809-1.513.428.104.039.403.048.612.054 1.26-.805.948-1.857.901zm65.371.011c.186-.255.331-.414.431-.597.254-.467.318-1.15 1.127-.942.279.072.245.221.179.483-.177.699-.313 1.37-1.293 1.096-.084-.024-.176-.018-.444-.04zm16.885-.015c-.122-.25.13-.339.247-.484.289-.357.152-1.112.895-1.035.397.041.174.292.152.545-.077.844-.38 1.27-1.294.974zm-42.182-.02c.211-.243.323-.368.43-.497.289-.35.166-1.096.913-.999.265.035.242.224.157.477-.21.62-.219 1.41-1.241 1.074-.04-.013-.084-.018-.259-.055zm-51.601-.011c.677-.376.265-1.64 1.563-1.471-.413.635-.087 1.821-1.563 1.471zm21.011 0c.677-.376.265-1.64 1.563-1.471-.414.635-.087 1.821-1.563 1.471zm69.467.001c.145-.185.321-.332.393-.519.164-.425.094-1.019.807-.983.168.009.337.013.188.282-.278.504-.064 1.406-1.078 1.295-.085-.009-.169-.04-.31-.075zm-42.003.017c.825-1.353.825-1.353 1.486-1.48-.408.621-.068 1.803-1.486 1.48zm12.95-1.494c-.444.614-.106 1.808-1.686 1.458.854-.326.314-1.587 1.686-1.458zm-59.568-2.463c-.35-.578.09-.485.413-.498.362-.015.661-.029.674.504.016.616-.357.526-.748.571-.616.07-.442-.262-.339-.577zm60.198-.479c.503-.067.721.04.727.526.008.651-.428.482-.787.523-.696.08-.216-.404-.318-.605-.371-.735.316-.315.378-.444zm-39.181.579c-.091-.328-.306-.683.329-.607.386.046.767-.057.752.564-.013.526-.303.542-.669.506-.279-.028-.858.176-.412-.463zm11.916-.67c-.218.727-.408 1.257-1.17 1.131-.641-.106.186-.591-.201-.758.305-.586.827-.152 1.371-.373zm26.294.106c-.178.616-.365 1.139-1.131 1.029-.32-.046-.201-.152-.184-.385.068-.912.682-.664 1.315-.644zm-43.112.024c-.133.732-.461 1.191-1.301.954.23-1.008.23-1.008 1.301-.954zm66.282 1.466c-.924.388-1.867.386-2.929.238.51-.799 1.014-.199 1.477-.182.483.018.968-.034 1.452-.056zm-15.685.109c-.943.231-1.885.306-2.957.11.55-.742 1.046-.197 1.519-.163.477.034.965.102 1.438.053zm-.394.617c-.917-.075-1.788.539-2.707.202.871-.551 1.812-.19 2.707-.202zm12.997-.044h2.705c-.914-.055-1.775.64-2.707.344l.002-.344zm-77.668-.61c-.939.353-1.537.353-2.477 0 .94-.353 1.538-.353 2.477 0zm20.666-.007c-.594.34-1.192.335-1.998.086.767-.531 1.383-.357 1.998-.086zm38.841.027c-.618.319-1.216.281-1.799-.017.618-.312 1.221-.365 1.799.017zm-37.573-1.587h1.05c-.087.399-.147.854-.531.949-.78.192-.158-.74-.519-.949zm38.849.004h1.049c-.145.425-.184.967-.681.983-.591.02 0-.767-.368-.983zm-58.752.011c-.231.388-.215 1.01-.757.967-.465-.037-.128-.67-.518-.967h1.275zm35.389 2.156c-.421.682-.956.445-1.516.387.419-.681.954-.444 1.516-.387zm45.558-.41c.421-.682.956-.445 1.516-.387-.42.681-.955.444-1.516.387zm-79.928.281c.527-.963 1.066-.699 1.602-.703-.284.812-.913.315-1.602.703zm21.108-.232c.473-.717.998-.482 1.547-.451-.36.727-.938.405-1.547.451zm65.162.33h1.611c-.591.386-1.057.811-1.611 0zm-51.305-.818c-.554.42-.981.68-1.541.408.298-.655.85-.383 1.541-.408zm9.33.818h1.577c-.604.35-1.071.889-1.577 0zm-5.631-.322c.399-.648.813-.547 1.247-.436-.234.648-.722.403-1.247.436zm-12.365-.278c.518-.311.852-.284 1.409.045-.612.288-.955.348-1.409-.045zm45.105 1.072c.323-.637.748-.535 1.209-.451-.208.64-.684.438-1.209.451zm-7.076-.22c-.518.311-.853.284-1.408-.046.611-.287.954-.347 1.408.046zm-62.21-.773c.473-.473.807-.296 1.331-.181-.473.488-.816.466-1.331.181zm54.591.675c-.298.442-.641.353-1.057.205.273-.688.716-.254 1.057-.205zm-50.169-.549c.352-.619.788-.404 1.226-.413-.286.651-.74.534-1.226.413zm6.034-.425c-.323.637-.748.535-1.209.451.208-.641.684-.439 1.209-.451zm2.832.159c-.479.481-.825.384-1.248.186.303-.526.684-.386 1.248-.186zm24 .716c-.375.616-.805.392-1.241.393.314-.624.763-.54 1.241-.393zm-13.373.143c.518-.312.852-.284 1.409.045-.612.288-.955.348-1.409-.045zm-2.94-.683c.479-.481.825-.384 1.248-.186-.303.526-.684.385-1.248.186zm-5.213.639c-.298.442-.641.353-1.057.205.272-.688.715-.254 1.057-.205zm23.434-.595c.643-.483.977-.491 1.388-.164-.356.462-.721.259-1.388.164zm-30.531.857c.332-.584.75-.485 1.201-.384-.236.615-.692.472-1.201.384zm-3.262-.438c-.323.637-.748.535-1.209.451.207-.641.684-.439 1.209-.451zm42.002-.584c-.605.372-.939.344-1.419.063.483-.401.822-.315 1.419-.063zm-53.824.919c.479-.481.825-.384 1.248-.186-.302.526-.684.385-1.248.186zm55.529-.736c.314-.534.729-.488 1.201-.301-.314.537-.729.489-1.201.301zm13.454-.183c-.605.373-.939.343-1.42.064.485-.402.824-.316 1.42-.064zm2.586-.055c-.479.481-.825.384-1.248.186.303-.526.684-.386 1.248-.186zm14.598.173c.486-.471.83-.385 1.253-.179-.306.52-.685.383-1.253.179zm-8.953-.244c-.302.551-.733.488-1.208.318.302-.553.733-.488 1.208-.318zm-7.032 1.107c.179-.406.474-.506.844-.342.063.028.112.287.074.316-.291.22-.604.198-.918.026zm-24.473.013c.159-.413.463-.506.835-.37.068.025.138.289.103.319-.291.245-.615.191-.938.051zm-27.426.024c.279-.46.56-.57.921-.343.05.031.088.183.058.224-.263.357-.603.175-.979.119zm-4.611-.274c.447-.161.624-.497.963-.399.065.019.143.295.101.335-.252.243-.565.158-1.064.064zm43.228.036c.279-.177.455-.58.86-.392.05.023.096.179.067.231-.248.448-.618.068-.927.161zm4.724-.581c.317-.474.616-.518.966-.321-.218.422-.536.52-.966.321zm28.401.602c-.058.285-.236.296-.412.286-.177-.009-.373-.033-.34-.285.03-.23.222-.233.397-.23.187.004.34.059.355.229zm-87.497-.194c-.285.476-.567.589-.964.405.146-.485.487-.469.964-.405zm18.072.277c-.103.259-.325.218-.522.192-.198-.026-.299-.204-.201-.348.07-.102.282-.13.435-.146.201-.022.292.107.288.302zm2.909-.22c-.317.474-.616.518-.966.321.218-.421.536-.519.966-.321zm.256-.785c-.227.403-.532.55-.96.308.227-.403.531-.55.96-.308zm23.942.699c.114.02.315.028.281.281-.03.23-.222.237-.397.229-.178-.009-.374-.034-.34-.285.03-.226.217-.234.456-.225zm11.436 0c.114.02.315.028.281.281-.03.23-.222.237-.397.229-.178-.009-.374-.034-.34-.285.031-.226.217-.234.456-.225zm2.201.48c.257-.504.563-.541.956-.448-.149.524-.491.508-.956.448zm-59.545-.869c.295-.492.611-.457.966-.334-.239.428-.542.573-.966.334zm-2.533.901c-.2-.003-.39-.003-.419-.233-.032-.252.166-.273.342-.283.177-.01.366.003.396.23.033.254-.17.26-.319.286zm93.945-.338c.013.308-.167.34-.341.335-.124-.003-.247-.061-.37-.095.107-.191.212-.403.464-.399.092.002.183.116.247.159zm-42.022 0c.013.308-.167.34-.341.335-.124-.003-.247-.061-.37-.095.107-.191.212-.403.464-.399.092.002.184.116.247.159z"/><path d="M96.153 97.337c-1.347-1.783-3.417-2.139-5.366-2.327-3.309-.318-6.637-.183-9.641 1.589-.599.353-1.013-.059-1.48-.288-.115-.606.449-.665.758-.909.657-.52 1.227-1.099 1.62-1.85.19-.363.087-.566-.259-.706-.8.256-1.587.577-2.406.745-.48.098-1.172.263-1.434-.325-.25-.561.405-.832.742-1.097 2.154-1.693 4.69-2.418 7.356-2.785.336-.046.661-.176.993-.255.229-.054.617.096.585-.299-.015-.178-.33-.332-.508-.497-.125-.723.451-1.006.886-1.346 1.846-1.444 4.055-1.963 6.296-2.271 3.164-.436 6.345-.454 9.509.076.515.086 1.061.154 1.439.596.074.609-.588.655-.8 1.044.302.976 1.007.634 1.622.469 2.404-.643 4.699-1.566 6.913-2.706.642-.331 1.403-1.076 2.043-.584.727.559-.008 1.472-.05 2.233-.007.129-.09.248-.159.363a.727.727 0 01-.061.22c-.708-.031-.413-.741-.711-1.05-.103-.21-.207-.166-.392-.061-2.381 1.356-5.027 1.978-7.624 2.739-.098.029-.168.157-.251.239.096.721.695 1.006 1.213 1.311 5.196 3.062 9.175 7.319 12.232 12.468 1.54 2.594 2.694 5.369 3.502 8.274.258.925.672 1.812.742 2.793.025.354.147.7-.167.987-1.814-1.328-3.389-3.002-5.602-3.959.24 7.708-1.719 14.665-6.174 21.082-.388-2.474-.696-4.764-1.484-6.948-.081-.225.062-.538-.322-.617-.429-.088-.49.249-.644.502-2.619 4.299-6.227 7.631-10.426 10.299-1.751 1.113-3.76 1.82-5.651 2.711-.405-.605.023-1.098.243-1.599a33.054 33.054 0 001.774-5.117c.146-.572.354-1.211-.192-1.734-2.756.836-5.446 1.773-8.41 1.924-2.665.136-5.231-.033-7.805-.601.093-.536.518-.801.905-1.092 1.841-1.385 3.609-2.856 5.138-4.585.461-.521.947-.703 1.628-.641 4.792.442 9.109-.817 12.969-3.678.107-.079.21-.165.325-.231.335-.19.666-.598 1.06-.371.445.256.056.722.087 1.092.157 1.88-.311 3.686-.631 5.511-.065.371-.31.824.133 1.09.402.241.773-.049 1.08-.291 2.445-1.928 4.557-4.14 6.299-6.754 2.289-3.433 3.475-7.235 3.951-11.244.387-3.259-.042-6.51-1.032-9.662-.763-1.126-.678-2.649-1.859-3.827 2.465 9.062.798 17.112-5.022 24.662.055-3.065.115-5.797-.705-8.503-1.444 2.192-3.109 4.25-5.33 5.699-3.859 2.519-8.072 3.543-12.696 2.745-1.153-.199-2.228-.58-3.338-.879.031-.588.558-.632.931-.794 2.262-.982 4.255-2.328 5.861-4.216.38-.447.811-.789 1.401-.939 3.524-.901 6.65-2.585 9.409-4.934 3.922-3.34 5.621-7.471 4.303-12.604-.195-.759-.269-1.56-.668-2.261-.101-.136-.18-.355-.308-.389-.244-.064-.227.185-.212.33.076.732.152 1.464.26 2.191.789 5.289-2.001 8.573-6.141 11.183-2.387 1.505-4.945 2.554-7.647 3.263-1.209.317-2.459.597-3.74.393-.322-1.131.61-1.194 1.263-1.408 1.85-.607 3.611-1.385 5.271-2.407.757-.466 1.409-1.04 2.072-1.624 1.736-1.528 1.971-2.369.941-5.147l.009.01c-.154-.316-.179-.664-.252-1.001-.12-.56.06-.821.663-.762.529.052 1.082.094 1.173-.658zm5.585-17.554c-1.269-.784-2.666-1.117-4.137-1.044-2.273.114-4.564-.316-6.823.24-.413.102-.936-.044-.918-.505.041-1.039-.806-1.86-.617-2.907.163-.791.311-.9 1.04-.489.924.52 1.891 1.013 2.666 1.738.713.667 1.185.496 1.749-.154.674-.776 1.062-1.74 1.74-2.508 1.552-1.757 2.02-1.746 3.442.097.596.773 1.181 1.556 1.679 2.393.405.681.81.822 1.483.325.854-.631 1.776-1.165 2.636-1.792.355-.258.832-.484 1.242-.224.439.279.057.718.018 1.082-.168 1.575-.83 3.071-.697 4.703.031.386.026.916-.494 1.139-2.801-.242-5.566-1.017-8.397-.732-2.085.21-4.187.409-6.202 1.063-.767-.388-.302-.704.098-.914a7.046 7.046 0 012.386-.725c2.267-.29 4.542-.496 6.834-.278.485.046 1.103.292 1.272-.508z" fill="#fbc51c"/><path d="M110.512 99.215c.673.431.51 1.177.658 1.796 1.79 7.523.2 14.389-4.175 20.648-1.521 2.177-3.475 3.995-5.587 5.609-.359.274-.821.785-1.409.346-.51-.38-.252-.84-.142-1.32.5-2.186.606-4.42.727-6.735-1.783 1.221-3.492 2.494-5.518 3.284-2.888 1.126-5.837 1.586-8.904 1.247-.418-.046-.759-.176-1.059.217-1.793 2.343-4.16 4.041-6.503 5.764-.414-.004-.719-.232-1.058-.496 2.727-1.704 5.242-3.606 7.268-6.092.372-.456.75-.532 1.444-.439 2.439.326 4.877.021 7.241-.696 2.803-.85 5.271-2.306 7.709-4.531-.189 3.171-.244 6.025-1.094 8.834.793-.176 2.526-1.355 3.368-2.15 2.671-2.526 4.828-5.496 6.096-8.88 1.624-4.334 2.478-8.88 1.335-13.562-.226-.927-.269-1.896-.397-2.844zm-7.712-5.851c1.276 2.501 1.747 5.146 1.13 7.89-1.243 5.523-5.321 8.439-10.05 10.738-1.385.674-2.754 1.359-4.301 1.569-.284.039-.468.165-.645.393-1.927 2.472-4.53 3.987-7.37 5.159-.603.19-.756-.518-1.569-.618 1.152-.422 2.022-.686 2.845-1.053 2.258-1.006 4.366-2.239 5.742-4.392.43-.673 1.155-.595 1.734-.765 4.801-1.404 9.004-3.777 11.758-8.026 1.925-2.969 2.028-6.37.913-9.743-.13-.394-.115-.771-.187-1.152zm2.948-11.487c.332-2.237.644-4.478 1.242-6.883-1.642.524-2.765 1.59-3.977 2.432-.802.557-1.084.378-1.533-.292-.757-1.131-1.574-2.222-2.379-3.319-.558-.761-1.021-.914-1.83-.107-.991.989-1.494 2.277-2.407 3.296-.694.774-1.177 1.084-2.081.138-.768-.803-1.868-1.291-2.827-1.91-.399-.258-.664-.177-.714.335-.809-.439-.434-1.323-.936-2.1 2.052.599 3.624 1.691 4.961 2.896.991.893 1.145.016 1.408-.312.741-.926 1.196-2.051 2.004-2.96.282-.317.688-.457.923-.865.218-.378.646-.345 1.054.047 1.206 1.159 2.195 2.479 3.058 3.896.407.667.63.689 1.313.17 1.448-1.102 2.953-2.16 4.633-2.914.071-.032.174.005.359.015-.881 2.387-1.506 4.802-1.528 7.352-.002.298.115 1.157-.743 1.085zm17.547 32.25a36.45 36.45 0 00-6.068-14.511c-2.957-4.221-6.693-7.544-11.075-10.198-.358-.217-1.394-.374-.379-1.124 3.719 1.857 6.751 4.579 9.514 7.622a32.76 32.76 0 014.388 6.168c1.455 2.627 2.612 5.371 3.396 8.286.335 1.246.827 2.457.74 3.756-.06.894-.337.209-.516.001zm-18.052-28.74c-2.547-.61-5.139-.528-7.731-.554-2.583-.026-5.05.482-7.449 1.38-1.166.436-2.174 1.124-2.95 2.119-.822-.224-1.082-.383-.238-1.134 2.008-1.787 4.374-2.716 6.941-3.112 3.835-.592 7.684-.477 11.504.239.599.112.584.268-.077 1.062zm9.568.82c-.172-.833.518-1.612.113-2.556-1.573.735-3.146 1.463-4.712 2.203-1.59.751-3.297 1.145-4.972 1.632-.454.132-.89-.053-1.138-.479-.195-.336.118-.446.341-.574 2.015-.084 3.851-.854 5.67-1.597 1.82-.744 3.561-1.682 5.449-2.589.027 1.44.21 2.797-.751 3.96z" fill="#d6a832"/><path d="M94.559 99.748c1.249 1.772 1.116 3.471-.252 4.937-2.202 2.362-5.026 3.607-8.003 4.572-.628.204-1.187.32-1.291 1.077-.236-.085-.894.38-.557-.45.322-.793.568-1.414 1.645-1.693 3.202-.83 6.167-2.234 8.401-4.797.703-.806.343-1.846.234-2.774-.032-.268-.124-.578-.177-.872zm7.179-19.965c.224.128.54.241.341.573-.251.418-.646.543-1.14.458-3.126-.537-6.199-.177-9.234.622-.268.071-1.062.028-.556.771-.827.605-.477-.337-.652-.534-.314-.355-.247-.665.257-.895a11.464 11.464 0 013.447-.984c2.512-.295 5.024-.451 7.537-.011zm-6.923 48.965c.61-.006.656.272.606.846-.19 2.188-1.108 4.139-1.892 6.131-.192.487-.414.96-.538 1.472l-1.032.303c1.096-2.376 2.074-4.663 2.728-7.081.156-.577.123-1.112.128-1.671zm-13.03-35.903c.274-.082.531-.408.835-.086.279.295-.082.451-.165.673-.516 1.363-1.677 2.096-2.788 2.879-1.184-.592-.342-1.029.175-1.293.949-.487 1.812-.982 1.943-2.173z" fill="#d6a832"/><path d="M96.153 97.337c.833.454.264.773-.146.982-.444.227-.94.088-1.439-.148v1.588c-.81-.642-.243-1.836-1.155-2.474 1.031-.517 1.869.314 2.74.052z" fill="#d6a832"/><path d="M114.039 85.377c.507.167.38.763.711 1.049-.721 1.118-1.496 2.155-3.319 2.128 1.242-.963 2.275-1.808 2.608-3.177z" fill="#d7a932"/><path d="M89.216 89.633c1.593-2.083 3.676-3.126 6.317-2.915 1.004.08 2.048-.301 3.012.248-2.336 1.609-4.261 4.102-7.604 3.541-.66-.111-1.458.023-1.725-.874z"/><path d="M89.216 89.633c2.245.993 4.387.89 6.255-.795a9.603 9.603 0 013.074-1.872c1.033.69-.064 1.095-.319 1.174-1.319.406-2.277 1.331-3.284 2.151-1.646 1.341-3.443 1.082-5.25.653-.56-.135-1.464-.463-.476-1.311z" fill="#d6a832"/></svg>