<?xml version="1.0" encoding="UTF-8" standalone="no"?>
<svg
   xmlns:dc="http://purl.org/dc/elements/1.1/"
   xmlns:cc="http://creativecommons.org/ns#"
   xmlns:rdf="http://www.w3.org/1999/02/22-rdf-syntax-ns#"
   xmlns:svg="http://www.w3.org/2000/svg"
   xmlns="http://www.w3.org/2000/svg"
   xmlns:sodipodi="http://sodipodi.sourceforge.net/DTD/sodipodi-0.dtd"
   xmlns:inkscape="http://www.inkscape.org/namespaces/inkscape"
   viewBox="0 0 200 200"
   version="1.1"
   id="svg16"
   sodipodi:docname="United_States_Red.svg"
   inkscape:version="0.92.4 (5da689c313, 2019-01-14)">
  <metadata
     id="metadata22">
    <rdf:RDF>
      <cc:Work
         rdf:about="">
        <dc:format>image/svg+xml</dc:format>
        <dc:type
           rdf:resource="http://purl.org/dc/dcmitype/StillImage" />
        <dc:title></dc:title>
      </cc:Work>
    </rdf:RDF>
  </metadata>
  <defs
     id="defs20" />
  <sodipodi:namedview
     pagecolor="#ffffff"
     bordercolor="#666666"
     borderopacity="1"
     objecttolerance="10"
     gridtolerance="10"
     guidetolerance="10"
     inkscape:pageopacity="0"
     inkscape:pageshadow="2"
     inkscape:window-width="1918"
     inkscape:window-height="1008"
     id="namedview18"
     showgrid="false"
     inkscape:pagecheckerboard="false"
     inkscape:zoom="3.337544"
     inkscape:cx="135.16406"
     inkscape:cy="92.171261"
     inkscape:window-x="953"
     inkscape:window-y="1080"
     inkscape:window-maximized="0"
     inkscape:current-layer="svg16" />
  <path
     d="M99.627.496h.497c.758.565.941 1.438 1.179 2.265.49 1.709 1.032 3.401 1.561 5.097.56 1.794.714 1.945 2.609 2.023 1.902.079 3.786.285 5.672.514a88.184 88.184 0 0120.641 5.099c9.451 3.575 18.072 8.584 25.783 15.083 8.415 7.092 15.421 15.398 20.792 25.045 3.292 5.913 5.953 12.085 7.819 18.591.273.952.785 1.319 1.781 1.304 2.937-.043 5.876-.017 8.814-.015.414 0 .829-.014 1.241.029.417.044.863.116 1.007.579.127.406-.168.693-.435.961-.529.53-1.152.945-1.751 1.381-.754.549-.661 1.06-.055 1.615.244.223.523.404.781.612 1.451 1.172 2.271 2.677 2.438 4.536v3.23c-.335 3.366-2.052 6.247-3.317 9.277-2.771 6.638-5.721 13.202-8.499 19.838-.813 1.943-1.023 4.079-1.588 6.109-3.389 12.164-9.083 23.129-17.077 32.894a90.338 90.338 0 01-14.815 14.39c-.781.602-1.082 1.179-.761 2.199 1.675 5.321 3.286 10.663 4.953 15.987.803 2.564 1.569 5.139 2.377 7.701.176.558.347 1.118-.031 1.667h-.497c-2.904-1.22-5.111-3.456-7.579-5.293-4.44-3.304-8.87-6.629-13.171-10.11-1.691-1.368-2.973-1.572-5.038-.655-7.63 3.39-15.665 5.416-23.962 6.44-4.935.609-9.885.919-14.837.664-11.36-.585-22.334-2.939-32.73-7.676-.851-.388-1.465-.366-2.249.228-6.554 4.962-13.068 9.976-19.593 14.976-.798.611-1.667 1.046-2.579 1.427h-.497c-.452-.699-.1-1.389.101-2.032 1.188-3.788 2.318-7.594 3.512-11.381 1.231-3.905 2.377-7.836 3.64-11.729.393-1.211.058-1.943-.903-2.61-3.107-2.153-5.841-4.763-8.497-7.414-3.393-3.385-6.54-7.009-9.35-10.919-6.122-8.516-10.673-17.784-13.597-27.855-.454-1.563-.494-1.713-2.148-1.533-3.385.367-5.947-.981-8.083-3.44-.163-.187-.325-.389-.528-.524-1.711-1.14-2.478-2.798-2.657-4.785v-3.23c.329-3.017 1.806-5.629 2.965-8.348a1412.216 1412.216 0 017.341-16.961c.412-.933.205-1.526-.574-2.108a483.734 483.734 0 01-7.594-5.785c-.603-.47-1.628-.874-1.373-1.716.295-.975 1.413-.608 2.195-.618 2.897-.036 5.794-.05 8.69.004 1.084.02 1.649-.342 1.958-1.409 2.503-8.645 6.287-16.705 11.276-24.189a90.934 90.934 0 019.567-12.009C39.993 32.047 46.179 27 53.056 22.801c9.487-5.792 19.692-9.712 30.652-11.656 3.502-.621 7.015-1.086 10.569-1.254 1.895-.09 2.048-.236 2.611-2.027.583-1.853 1.169-3.705 1.708-5.572.2-.689.441-1.34 1.031-1.796z"
     fill="#24267b"
     id="path2"
     style="fill:#c3362c;fill-opacity:1" />
  <path
     d="M171.455 78.259c6.375 0 12.751.027 19.126-.012 2.828-.017 4.983 2.346 5.213 5.178.163 2.018-.751 3.685-1.498 5.419-3.19 7.41-6.38 14.819-9.595 22.218-.925 2.128-1.514 4.413-2.999 6.285-.524.661-1.099.928-1.935.925-6.872-.023-13.744-.012-20.617-.014-1.243 0-1.702-.569-1.246-1.74.8-2.054 1.674-4.08 2.561-6.098.581-1.32.406-2.428-.679-3.439-.334-.311-.296-.575-.122-.975.911-2.096 1.769-4.215 2.665-6.318.114-.268.201-.535.659-.584 1.807-.193 2.885-1.401 3.568-2.945 1.055-2.383 1.988-4.819 3.024-7.211.454-1.049.671-2.054-.25-2.908-.659-.612-2.148-.329-3.182.341-1.753 1.135-2.422 2.985-3.129 4.753-1.49 3.727-3.133 7.386-4.703 11.078-1.852 4.356-3.643 8.739-5.552 13.07-.804 1.823-1.405 3.079-4.228 3.021-6.58-.135-13.164-.042-19.746-.044-1.35-.001-1.555-.292-1.104-1.63 1.065-3.161 2.556-6.147 3.828-9.223 1.838-4.449 3.663-8.909 5.673-13.281 1.39-3.024 2.288-6.292 4.183-9.066 2.422-3.544 5.816-5.745 9.968-6.78.312-.078.66-.018.991-.018 6.375-.002 12.751-.002 19.126-.002zm-142.929 40c-7.451 0-14.903-.059-22.353.035-2.323.029-4.853-2.791-4.978-4.959-.155-2.68 1.158-4.837 2.099-7.12 2.156-5.229 4.352-10.445 6.688-15.596 1.656-3.652 3.005-7.439 4.883-10.992.55-1.04 1.354-1.384 2.486-1.38 6.747.026 13.495.012 20.242.013 1.608 0 2.059.678 1.428 2.15-2.848 6.638-5.701 13.275-8.551 19.913-1.062 2.472-2.13 4.941-3.181 7.418-.558 1.314-.246 2.983 1.806 2.856 2.584-.161 2.7-.207 3.727-2.734 1.359-3.346 2.871-6.629 4.299-9.948 1.966-4.57 3.839-9.181 5.91-13.703.809-1.767 1.148-3.815 2.763-5.182.555-.47 1.084-.783 1.843-.781 6.83.019 13.66.009 20.491.014 1.218.001 1.575.5 1.205 1.657-.967 3.027-2.411 5.858-3.631 8.78-1.917 4.59-3.873 9.164-5.844 13.731-1.687 3.907-3.417 7.796-5.133 11.69-.484 1.099-.843 2.239-1.671 3.194-.591.681-1.179.958-2.047.956-7.496-.02-14.988-.012-22.481-.012zm78.581-40c6.374 0 12.748.028 19.122-.013 2.836-.018 4.973 2.349 5.223 5.171.167 1.89-.676 3.465-1.305 5.107-.573 1.497-1.273 2.948-1.955 4.401-.698 1.488-1.799 2.263-3.547 2.249-6.581-.054-13.162-.02-19.743-.023-1.407-.001-1.696-.508-1.33-1.929.415-1.609 1.285-3.024 1.808-4.586.296-.882.417-1.769-.208-2.404-.651-.662-1.583-.66-2.485-.277-1.36.579-2.38 1.544-2.979 2.847-.854 1.857-1.55 3.786-2.332 5.676-.663 1.601.156 2.908 1.854 2.908 5.877.003 11.759.142 17.631-.042 4.994-.156 7.598 4.082 5.823 8.549-1.347 3.392-2.944 6.685-4.404 10.033-.718 1.646-1.787 2.411-3.725 2.375-6.496-.119-12.996-.045-19.494-.045-1.647 0-2.011-.462-1.382-2.063 1.084-2.762 2.26-5.488 3.409-8.224.703-1.674-.097-2.877-1.955-2.878-8.195-.005-16.39-.002-24.586-.003-1.603 0-2.048-.523-1.453-1.984 1.393-3.417 2.879-6.797 4.323-10.193.957-2.251 1.654-4.66 2.914-6.725 2.884-4.724 6.919-7.886 12.77-7.922 6.003-.033 12.004-.005 18.006-.005zM90.145 31.303c-1.247 4.175-2.355 8.393-3.934 12.464-.583.646-1.368.497-2.095.498-6.619.015-13.238.007-19.856.008-6.288.001-12.576.019-18.864-.016-1.247-.007-2.238.319-3.066 1.276-2.462 2.844-4.916 5.694-6.995 8.84-.648.98-.539 1.169.626 1.222.413.019.827.006 1.241.006 14.313.001 28.626-.006 42.94.015.784.001 1.686-.286 2.302.533l-3.727 12.422c-.762.672-1.697.547-2.597.548-15.171.005-30.341-.003-45.512.007-4.033.003-3.275-.337-4.764 3.239-.302.725-.535 1.477-.776 2.224-.183.568-.468 1.052-.967 1.395-1.53.014-3.061.016-4.591.047-.568.011-.695-.148-.538-.728.788-2.91 1.858-5.722 3.046-8.48 2.168-5.033 4.698-9.887 7.811-14.407a94.013 94.013 0 016.541-8.455 82.745 82.745 0 016.835-6.974c4.62-4.185 9.643-7.86 15.113-10.887 5.144-2.847 10.459-5.295 16.097-7.014 4.317-1.316 8.685-2.358 13.167-2.967 2.464-.335 4.909-.732 7.499-.714l-1.456 4.972c-.913 1.141-2.28.835-3.451.989-9.943 1.306-19.352 4.242-28.17 9.038a3.721 3.721 0 00-.503.347c.687.04 1.29.018 1.891.018 8.234.003 16.467-.007 24.7.014.708-.004 1.521-.242 2.053.52zm23.395 12.464c-1.327-3.238-2.091-6.658-3.223-9.959-.281-.82-.476-1.669-.711-2.504.532-.762 1.345-.524 2.054-.526 8.523-.02 17.047-.012 25.57-.013.289 0 .579.015 1.12-.031a86.932 86.932 0 00-5.374-2.718c-6.559-3.065-13.446-5.059-20.582-6.221-1.466-.239-2.936-.478-4.414-.608-.745-.066-1.369-.234-1.852-.814l-1.447-4.926c2.317-.208 4.567.202 6.794.502 3.226.435 6.421 1.097 9.584 1.916 4.439 1.149 8.752 2.624 12.937 4.499 4.824 2.161 9.444 4.681 13.787 7.697 2.663 1.85 5.197 3.864 7.667 5.971 2.266 1.933 4.317 4.076 6.378 6.204 2.714 2.803 5.097 5.894 7.343 9.086 2.928 4.159 5.416 8.573 7.527 13.195 1.583 3.465 3.031 6.984 4.031 10.678.208.767.037.849-.61.835-1.489-.031-2.978-.033-4.466-.047-.545-.365-.815-.907-1.004-1.514-.431-1.382-1.006-2.711-1.513-4.065-.339-.906-.935-1.307-1.882-1.279-.536.016-1.075-.004-1.612-.004-15.336-.001-30.672.002-46.008-.003-.9 0-1.835.124-2.597-.548-1.013-3.34-2.027-6.679-3.036-10.021-.241-.797-.461-1.601-.691-2.401.449-.687 1.168-.53 1.805-.535 4.095-.027 8.191-.012 12.286-.013 10.425-.001 20.849 0 31.274 0 .372 0 .745.011 1.117-.006 1.165-.054 1.273-.241.626-1.222-2.053-3.113-4.49-5.924-6.906-8.752-.885-1.036-1.94-1.369-3.279-1.365-12.783.03-25.565.024-38.348.009-.804-.002-1.68.209-2.345-.497zm-54.161 86.955c-.519 2.429-1.395 4.754-2.099 7.129-.522 1.761-1.11 3.502-1.669 5.252-.534.616-1.262.532-1.959.533-5.625.008-11.249.003-16.874.004-.331 0-.662-.014-.992.006-.32.019-.725-.093-.908.243-.184.338.117.629.3.884 1.706 2.386 3.453 4.745 5.406 6.935 3.555 3.987 2.047 3.185 7.458 3.279.786.014 1.572-.013 2.357.018.496.02 1.011.013 1.279.561-.296 2.041-1.156 3.916-1.728 5.876-.415 1.423-.844 2.842-1.258 4.265-.195.671-.52.767-1.06.311-1.49-1.261-3.063-2.432-4.481-3.767-5.276-4.969-10.077-10.349-14.017-16.465-4.534-7.039-8.044-14.542-10.409-22.578-.168-.57-.04-.742.535-.731 1.53.032 3.061.033 4.592.047.549.303.782.82.963 1.384.505 1.576 1.12 3.112 1.68 4.667.422 1.17 1.117 1.577 2.317 1.572 6.494-.027 12.989-.016 19.484-.013 3.144.002 6.288-.019 9.432.015.597.005 1.275-.116 1.651.573zm84.762 12.381c-1.305-4.112-2.656-8.21-3.768-12.381.497-.809 1.32-.572 2.024-.574 7.156-.026 14.313-.013 21.469-.015 2.399-.001 4.799-.023 7.198.009 1.1.015 1.75-.386 2.146-1.452.59-1.589 1.215-3.165 1.729-4.781.179-.565.413-1.081.963-1.384 1.489-.014 2.979-.016 4.468-.046.647-.013.818.065.604.835-1.643 5.922-4.096 11.505-7.014 16.886-2.602 4.799-5.711 9.256-9.195 13.475-2.526 3.06-5.361 5.801-8.172 8.571-1.415 1.394-3.029 2.589-4.575 3.847-.274.223-.695.471-.867-.16-.948-3.478-2.283-6.841-3.076-10.365.338-.648.964-.554 1.527-.565 1.778-.035 3.557-.021 5.335-.011.84.005 1.516-.253 2.094-.874 2.766-2.966 5.269-6.143 7.608-9.45.57-.807.403-1.019-.797-1.022-5.625-.013-11.249-.005-16.874-.006-.496 0-.993-.009-1.489-.009-.52 0-.978-.133-1.338-.528z"
     fill="#fefefe"
     id="path4" />
  <path
     d="M120.745 167.907c-5.449.014-10.899.04-16.348.038-8.464-.003-16.927-.024-25.391-.038 1.915-1.527 3.807-3.085 5.752-4.573 3.449-2.639 6.93-5.236 10.397-7.85a18.824 18.824 0 019.441 0c4.11 3.097 8.26 6.142 12.305 9.322 1.291 1.014 2.732 1.861 3.844 3.101zm-49.441 5.796c4.459 1.897 9.136 3.034 13.876 3.928 3.519.664 7.07 1.024 10.646 1.306 3.789.299 7.513.032 11.272-.275 4.498-.367 8.912-1.163 13.258-2.303 2.741-.719 5.519-1.394 8.091-2.657l4.646 3.486c-17.537 8.085-43.277 10.168-66.515.083l4.726-3.568z"
     fill="#fefefe"
     id="path8" />
  <path
     d="M74.775 118.259c-3.474 0-6.947.003-10.421-.002-1.136-.002-1.517-.456-1.105-1.497.988-2.493 1.941-5.009 3.128-7.408.608-1.228 1.651-2.082 3.326-2.06 6.574.086 13.149.035 19.724.035 1.662 0 2.118.542 1.451 2.073-1.101 2.531-1.935 5.187-3.412 7.551-.562.899-1.31 1.33-2.397 1.32-3.43-.033-6.862-.012-10.294-.012z"
     fill="#fefefe"
     id="path12" />
  <g
     id="g837">
    <path
       id="path10"
       d="M175.901 122.524c-.576 2.518-1.61 4.876-2.492 7.289-.268.733-.663.892-1.415.89-10.086-.032-20.173-.022-30.259-.02-.454 0-.908.026-1.361.039-.811-2.466-1.667-4.919-2.407-7.406-.268-.9.541-.829 1.108-.83 3.346-.007 6.693-.004 10.039-.004.95 0 1.913-.098 2.848.019 2.256.282 3.597-.864 4.411-2.759.397-.925.826-.881 1.424-.314.78.738 1.567 1.475 2.276 2.279.543.617 1.152.793 1.95.79 4.625-.017 9.251.013 13.878.027zm-116.522 8.198c-7.44-.014-14.88-.029-22.32-.04-3.183-.005-6.366-.005-9.549.004-.511.001-.789-.039-1.043-.668-.993-2.459-1.978-4.914-2.617-7.494l27.764-.041c.537-.001 1.089-.082 1.609.014 2.008.371 3.306-.698 4.358-2.158.33-.457.42-.548.874-.17.939.781 1.949 1.478 2.921 2.221.3.229.603.517.439.938-.942 2.422-1.364 5.015-2.436 7.394z"
       fill="#c3362c" />
    <g
       id="g831">
      <path
         d="M82.443 56.148H33.421c.854-1.284 1.547-2.491 2.398-3.574 2.216-2.821 4.376-5.692 6.914-8.246.397-.4.785-.618 1.385-.617 13.908.02 27.815.016 41.723.019.123 0 .246.024.37.037-.011 1.303-.648 2.439-1.011 3.643-.882 2.923-1.648 5.885-2.757 8.738zm31.097-12.381c4.883-.014 9.767-.036 14.65-.04 8.651-.007 17.304.105 25.951-.076 2.179-.046 3.363.994 4.514 2.372 2.339 2.8 4.688 5.598 6.705 8.65.282.427.58.844 1.016 1.475h-49.068c-.925-2.911-1.889-5.81-2.758-8.738-.358-1.206-.998-2.34-1.01-3.643zM71.304 173.703c2.578-1.918 5.017-4.021 7.702-5.796.796-.394 1.645-.515 2.525-.515h36.689c.88 0 1.729.12 2.525.515 1.669 1.227 3.345 2.444 5.003 3.685.915.684 1.8 1.407 2.699 2.112-.055.792-.722.969-1.279 1.165-4.889 1.715-9.891 3.006-15.017 3.766-4.006.594-8.03 1.067-12.089 1.026-7.938-.08-15.725-1.206-23.343-3.468-1.389-.412-2.785-.801-4.136-1.324-.552-.215-1.223-.374-1.279-1.166zM24.099 75.982c.496-2.504 1.664-4.774 2.5-7.159.118-.336.385-.24.607-.247.496-.016.993-.006 1.489-.006h50.02c-.661 2.183-1.321 4.365-1.985 6.547-.175.575-.399.932-1.17.93-17.072-.035-34.144-.031-51.216-.035-.081 0-.163-.02-.245-.03zm96.936-7.412c16.963 0 33.926.006 50.889-.019.783-.001 1.223.151 1.497.943.745 2.162 1.787 4.222 2.232 6.488-.495.014-.991.04-1.486.04-16.493.002-32.986-.01-49.478.027-1.112.002-1.499-.337-1.762-1.415-.502-2.054-1.248-4.047-1.892-6.064z"
         id="path6"
         fill="#c3362c" />
      <path
         d="M90.145 31.303H59.787l-.074-.219c.779-.45 1.541-.931 2.338-1.344 4.299-2.232 8.688-4.25 13.333-5.68a89.47 89.47 0 0113.071-2.985c1.721-.258 3.473-.28 5.169-.704l-3.479 10.932zm15.983-10.931c1.762.248 3.52.542 5.288.735 3.143.343 6.209 1.074 9.255 1.853 5.841 1.494 11.378 3.799 16.708 6.606.89.469 1.754.987 2.612 1.737h-30.385l-3.478-10.931zM51.677 155.567c-1.985-.014-3.997-.238-5.947.015-2.16.28-3.409-.855-4.557-2.266-2.098-2.577-4.326-5.055-6.149-7.85-.478-.732-1.012-1.428-1.679-2.363h22.267c-1.279 4.165-2.381 8.386-3.935 12.464zm92.464-12.464h22.072c-.52 1.414-1.474 2.472-2.296 3.558-2.163 2.857-4.357 5.701-6.89 8.257-.437.441-.875.631-1.508.624-2.481-.027-4.962.011-7.444.025-1.139-2.727-1.763-5.62-2.718-8.407-.458-1.335-.814-2.704-1.216-4.057zm-39.545 12.381h-9.441c1.324-1.021 2.667-2.019 3.964-3.075.552-.449.962-.449 1.514 0 1.296 1.056 2.639 2.054 3.963 3.075z"
         id="path14"
         fill="#c3362c" />
    </g>
  </g>
</svg>
