<svg xmlns="http://www.w3.org/2000/svg" viewBox="0 0 200 200"><path d="M199.953.206c-.468.795-.985 1.566-1.397 2.389a877626.294 877626.294 0 00-97.101 194.087c-.412.825-.718 1.703-1.073 2.556h-.858c-.355-.853-.66-1.731-1.073-2.556C66.092 131.982 33.725 67.286 1.35 2.594.938 1.771.421 1.001-.047.206c.386-.887 1.16-.402 1.717-.403C17.192-.23 32.714-.223 48.236-.223c49.928 0 99.857-.002 149.785.027.629 0 1.456-.496 1.932.402z" fill="#141e33"/><path d="M99.951 4.066l89.454.001c.715 0 1.43.004 2.145.021 1.009.024 1.264.494.812 1.386-.226.445-.419.907-.642 1.353-30.017 59.994-60.034 119.988-90.069 179.972-.462.922-.661 2.49-1.695 2.493-1.041.003-1.237-1.567-1.698-2.488C68.222 126.82 38.206 66.826 8.188 6.832 6.821 4.099 6.835 4.068 9.851 4.068c30.034-.003 60.067-.002 90.1-.002z" fill="#007f46"/><path d="M100.047 7.498l83.892.001c.715 0 1.431.002 2.145.031.903.037 1.111.501.74 1.284-.245.516-.485 1.033-.741 1.544-28.137 56.239-56.274 112.479-84.429 168.709-.462.923-.656 2.492-1.689 2.505-1.054.013-1.243-1.561-1.703-2.479C70.074 122.799 41.905 66.495 13.735 10.191c-1.323-2.643-1.294-2.692 1.776-2.692 28.179-.002 56.358-.001 84.536-.001z" fill="#141e33"/><path d="M27.43 22.031c-1.204-3.378-1.204-3.38 2.454-3.38 3.074 0 6.148.009 9.222.008.893 0 1.726.085 2.131 1.064.264.64.96 1.236.586 1.954-.347.665-1.157.366-1.769.397-2.308.118-2.427.263-1.409 2.298a98377.925 98377.925 0 0040.815 81.544c.296.591.407 1.587 1.269 1.517.646-.053.806-.93 1.085-1.488 5.629-11.226 11.24-22.46 16.867-33.687.313-.624.486-1.625 1.171-1.679.915-.073 1.038 1.031 1.366 1.684 5.608 11.156 11.185 22.328 16.782 33.49.312.622.481 1.625 1.178 1.667.903.054 1.031-1.04 1.36-1.697a120386.39 120386.39 0 0040.624-81.161c1.132-2.264 1.057-2.345-1.309-2.499-.669-.044-1.91.43-1.799-.777.096-1.041.51-2.488 1.893-2.527 4.214-.12 8.432-.069 12.649-.05.985.004.942.66.675 1.35-.256.661-.529 1.316-.794 1.974a.712.712 0 01-.186.568c-3.186.336-5.065 2.046-6.519 4.977-14.417 29.063-28.973 58.057-43.486 87.072-.511 1.022-.968 2.078-1.604 3.03-.892 1.335-1.936 1.334-2.841-.005-.52-.769-.893-1.628-1.309-2.458-4.829-9.65-9.653-19.302-14.484-28.95-.32-.639-.596-1.305-.994-1.898-.825-1.229-1.394-1.22-2.221.032-.393.596-.672 1.261-.991 1.899-4.86 9.714-9.721 19.427-14.583 29.14-.416.83-.779 1.699-1.331 2.445-.778 1.05-1.845 1.038-2.604-.043-.657-.936-1.105-1.999-1.617-3.022-14.548-29.08-29.133-58.14-43.582-87.266-1.454-2.93-3.344-4.615-6.516-4.959a.719.719 0 01-.179-.564z" fill="#007f46"/><path d="M27.43 22.031l.429.121c1.548.648 2.112 2.094 2.788 3.444 16.543 33.045 33.07 66.097 49.605 99.146 5.885 11.762 11.772 23.523 17.653 35.286.128.256.235.526.39.764.483.742.598 1.986 1.762 1.897.965-.073 1.178-1.154 1.551-1.898 9.608-19.17 19.197-38.35 28.792-57.527 12.921-25.825 25.837-51.653 38.764-77.475.704-1.407 1.261-2.949 2.883-3.636l.428-.12c2.52.305 2.596.444 1.343 2.948a980581.828 980581.828 0 01-72.13 144.187c-.288.575-.573 1.152-.886 1.714-.555.994-1.141.999-1.699.003-.314-.561-.599-1.138-.886-1.713l-71.944-143.8c-.128-.256-.258-.51-.381-.768-.996-2.109-.895-2.277 1.538-2.573zm72.572-10.244c25.31 0 50.621-.001 75.931.001 4.515 0 4.521.006 2.434 4.105-.355.698-.719 1.406-1.191 2.025-.536.704-1.363.891-2.112.452-.753-.441-.355-1.153-.06-1.707.927-1.745.236-2.358-1.529-2.298-.643.022-1.287-.005-1.93-.005H28.263c-.643 0-1.287.022-1.93.008-1.638-.036-2.327.521-1.479 2.19.305.601.84 1.391-.098 1.853-.869.429-1.739.109-2.22-.734a62.915 62.915 0 01-2.158-4.188c-.527-1.109.02-1.616 1.122-1.664a59.645 59.645 0 012.573-.038h75.929z" fill="#24375b"/><path d="M108.927 27.442c-3.561 3.57-6.933 6.94-10.292 10.322-.799.805-1.172.515-1.376-.449-.058-.274-.177-.54-.298-.797-.477-1.015-.19-2.813-1.199-3.001-1.235-.23-1.995 1.381-2.836 2.288-2.812 3.033-2.794 3.072-4.081-.888-.658-2.027-1.239-4.079-1.858-6.118-.141-.466-.471-1.032.16-1.3.709-.3 1.014.263 1.197.847.596 1.897 1.158 3.805 1.782 5.693.758 2.294.887 2.311 2.674.549.914-.901 1.857-1.778 2.718-2.728.877-.967 1.363-.695 1.762.389 1.5 4.081 1.506 4.079 4.636.951 1.615-1.613 3.216-3.241 4.854-4.83.484-.467.858-1.2 2.157-.928zm2.944 11.353c-1.391-.09-2.929-.531-3.761-2.215-.928-1.877-.423-3.724.625-5.265 1.417-2.084 3.338-3.658 5.895-4.338 3.136-.833 6.654 1.391 5.515 5.388-.952 3.336-4.643 6.425-8.274 6.43zM59.892 27.26c1.142 0 2.285-.012 3.426.007.348.006.763.04.826.495.061.436-.26.731-.632.666-4.116-.715-4.181 2.61-5.081 5.076-.512 1.403-.958 2.83-1.415 4.252-.14.437-.376.922-.821.827-.71-.151-.454-.812-.319-1.238.686-2.17 1.342-4.356 2.17-6.473.686-1.752.359-2.537-1.634-2.383-.503.039-1.383.24-1.421-.513-.048-.949.9-.693 1.472-.721 1.14-.055 2.284-.016 3.426-.016.003.008.003.014.003.021zm85.972 4.398c-.04 2.806-2.383 5.441-5.957 6.437-.983.274-2.607 1.369-2.988.162-.351-1.11 1.625-.694 2.487-1.181 1.357-.766 2.883-1.221 3.981-2.431 1.879-2.071 1.436-4.405-1.092-5.528-.454-.202-.928-.357-1.392-.537-.332-.129-.752-.261-.67-.692.094-.494.54-.584 1.002-.599 2.315-.07 4.661 2.136 4.629 4.369zM71.8 28.148c-.555 1.688-1.107 3.378-1.667 5.064a540.259 540.259 0 01-1.565 4.652c-.143.416-.39.874-.889.696-.513-.183-.308-.719-.252-1.119.167-1.195 1.55-2.513.467-3.493-.879-.795-2.474-.207-3.749-.284-.356-.021-.715-.006-1.069-.04-.349-.033-.786-.049-.812-.508-.032-.57.444-.671.876-.688.998-.038 2.011-.146 2.994-.029 2.187.26 3.583-.411 3.911-2.768.085-.611.453-1.186.715-1.767.121-.269.336-.475.667-.397.361.084.393.354.373.681zm56.867 1.019c.047 1.143-.184 2.109-.901 2.532-2.036 1.199-1.374 2.735-.899 4.405.224.786 1.216 2.087.131 2.419-1.34.41-1.102-1.254-1.43-2.09-.259-.66-.418-1.362-.702-2.01-.518-1.178-.297-1.956.928-2.572.787-.396 1.735-1.026 1.426-2.128-.331-1.179-1.429-1.215-2.463-1.208-.497.003-1.005.004-1.488-.094-.517-.105-.742-.453-.316-.904.78-.825 5.026-.174 5.533.853.149.306.157.683.181.797zm4.944-1.883c-.372 2.775-1.454 5.077-2.221 7.464-.86 2.674-.868 2.654 1.941 2.8.612.032 1.739-.394 1.686.647-.046.893-1.148.575-1.803.598-4.503.158-4.507.145-3.088-4.067.634-1.883 1.292-3.758 1.928-5.64.221-.656.293-1.403 1.557-1.802zm-57.625 1.333c-1.057-.397-2.842.472-2.86-.705-.018-1.198 1.765-.654 2.719-.626.999.03 2.809-.724 2.839.652.024 1.126-1.848.194-2.698.679zm-1.647 3.696c.912.366 2.599-.542 2.639.769.03 1.008-1.683.553-2.596.537-1.047-.017-2.965.545-2.953-.552.014-1.279 1.896-.376 2.91-.754zm-2.003 6.563c-.93-.33-2.651.411-2.636-.596.021-1.337 1.709-.686 2.645-.705.98-.019 2.84-.502 2.8.476-.059 1.448-1.863.393-2.809.825z" fill="#007f46"/><path d="M172.048 22.152c-.397.916-.75 1.854-1.196 2.745a250902.727 250902.727 0 01-69.18 138.255c-.45.899-.579 2.429-1.819 2.358-1-.057-1.188-1.482-1.624-2.352A329894.63 329894.63 0 0129.056 24.9c-.446-.892-.8-1.831-1.197-2.748 3.495-.79 5.253.763 6.823 3.935 14.625 29.561 29.436 59.03 44.193 88.526.255.511.496 1.029.776 1.526.267.474.365 1.23 1.059 1.175.509-.04.669-.668.891-1.112.829-1.66 1.672-3.314 2.503-4.973 4.888-9.767 9.771-19.537 14.67-29.3.281-.56.444-1.437 1.08-1.5.869-.086.979.916 1.275 1.505 5.641 11.227 11.25 22.469 16.882 33.7.31.618.474 1.627 1.188 1.649.886.028 1.019-1.056 1.351-1.717 14.929-29.809 29.894-59.6 44.677-89.481 1.568-3.171 3.326-4.722 6.821-3.933z" fill="#141e33"/><path d="M115.682 28.105c2.744.045 4.198 2.823 2.705 5.453-1.159 2.041-2.91 3.504-5.331 3.896-2.781.45-4.634-1.82-3.733-4.522.943-2.828 3.635-4.872 6.359-4.827z" fill="#141e33"/></svg>